<?xml version="1.0" encoding="UTF-8"?>
<svg width="253px" height="53px" viewBox="0 0 253 53" version="1.1" xmlns="http://www.w3.org/2000/svg" xmlns:xlink="http://www.w3.org/1999/xlink">
    <!-- Generator: Sketch 51 (57462) - http://www.bohemiancoding.com/sketch -->
    <title>logo_11_color</title>
    <desc>Created with Sketch.</desc>
    <defs></defs>
    <g id="Symbols" stroke="none" stroke-width="1" fill="none" fill-rule="evenodd">
        <g id="our_clients_assets" transform="translate(-736.000000, -689.000000)">
            <g id="logo_11_color" transform="translate(736.000000, 689.000000)">
                <path d="M96.7810297,26.3221822 C96.7810297,27.7704984 95.5984354,28.9586038 94.1209154,28.9485957 C92.6448411,28.9485957 91.4492354,27.7704984 91.4492354,26.3221822 C91.4492354,24.8624281 92.6448411,23.6814714 94.1209154,23.6814714 C95.5984354,23.6814714 96.7810297,24.8624281 96.7810297,26.3221822" id="Fill-1" fill="#663AB7"></path>
                <path d="M105.198412,14.3273216 L105.198412,32.5678135 L113.660178,32.5678135 L113.660178,35.4029676 L102.123378,35.4029676 L102.114703,14.3273216 L105.198412,14.3273216 Z M118.361641,19.3728378 L118.361641,28.4659189 C118.368869,29.9242432 118.405012,31.5326892 119.787115,32.4777405 C120.165892,32.7308027 120.971155,33.099673 122.149412,33.099673 C123.424532,33.0639297 124.049081,32.7593973 124.487132,32.4319892 C125.835983,31.3253784 125.730446,29.3609297 125.736229,27.8568541 L125.730446,19.3728378 L128.808372,19.3671189 L128.808372,27.8497054 C128.808372,29.8255919 128.773675,30.5719108 128.510555,31.5741514 C128.259001,32.3719405 127.760229,33.8316946 125.902486,34.8796865 C124.352681,35.7746973 122.724806,35.7746973 122.082909,35.7746973 C121.069463,35.7746973 120.222275,35.6445919 119.885423,35.5402216 C118.099966,35.1084432 116.472092,33.9046108 115.801281,32.1946541 C115.332869,30.9979703 115.293835,29.5610919 115.293835,28.2214351 L115.293835,19.3671189 L118.361641,19.3728378 Z M143.540201,22.6111757 L143.501166,22.6111757 C143.168652,22.3709811 143.133955,22.3523946 142.938783,22.2537432 C141.853052,21.6375297 140.674795,21.6132243 140.267103,21.6132243 C139.860858,21.6132243 138.948612,21.6446784 137.966972,22.1093405 C136.782932,22.6454892 134.897721,24.085227 134.897721,27.2921108 C134.897721,27.7624919 134.897721,28.6260486 135.301075,29.6683216 C136.107783,31.8357919 138.034921,33.1783081 140.363966,33.1825973 C142.026538,33.1783081 143.133955,32.496327 143.645738,32.1946541 L143.678989,34.7724568 C143.414423,34.9454541 143.070343,35.1398973 142.765298,35.2385486 C142.330138,35.4472892 141.209709,35.7746973 139.788572,35.7746973 C134.897721,35.7432432 131.673778,31.9987811 131.673778,27.2921108 C131.673778,26.7245081 131.718595,25.354827 132.286761,23.9150892 C132.889623,22.3066432 134.858686,18.9939595 139.661349,18.9939595 C140.494081,18.9939595 141.793778,19.0640162 143.540201,19.8975486 L143.540201,22.6111757 Z M148.886452,28.3572595 C148.948618,29.0535378 149.091743,29.5253486 149.194389,29.7912784 C149.655572,31.2338757 150.771663,32.4048243 152.202921,32.9352541 C152.773978,33.1425649 153.572012,33.3670324 154.957006,33.3670324 C155.770943,33.3613135 157.028715,33.2969757 158.815618,32.6807622 L158.782366,35.1084432 C158.042161,35.3772324 156.586326,35.7746973 154.485703,35.7746973 C153.884286,35.7746973 151.825589,35.7746973 149.993869,34.8739676 C148.272023,34.0418649 145.708772,31.8729649 145.743469,27.2263432 C145.743469,26.6201378 145.770938,25.1132027 146.386812,23.5819622 C146.930401,22.2723297 148.634898,18.9939595 152.972041,18.9939595 C157.093772,18.9939595 159.729309,22.0307054 159.729309,26.0167919 C159.729309,26.6844757 159.694612,27.1234027 159.389566,28.3529703 L148.886452,28.3572595 Z M156.756921,26.3227541 C156.756921,25.9195703 156.853783,24.5813432 156.222006,23.3789405 C155.877926,22.7698757 154.957006,21.3415757 152.944572,21.3630216 C152.062686,21.3630216 151.251641,21.6375297 150.608298,22.1736784 C148.978978,23.5462189 148.886452,25.8023324 148.848863,26.3313324 L156.756921,26.3227541 Z M166.081778,19.3671189 L166.081778,22.5153838 C166.262492,22.1436541 166.519829,21.6046459 166.758372,21.2700892 C168.241675,19.2112784 170.206401,18.9939595 171.144669,18.9939595 C171.733075,18.9939595 173.282881,19.0640162 174.601372,20.0405216 C176.623926,21.5474568 176.691875,23.8178676 176.691875,26.0539649 L176.691875,35.4029676 L173.621178,35.4029676 L173.621178,26.4171162 C173.621178,25.0088324 173.580698,23.609127 172.468943,22.5797216 C172.163898,22.2723297 171.423692,21.7633459 170.239652,21.7633459 C169.795818,21.7633459 168.824298,21.8805838 167.870126,22.6111757 C166.182978,23.9737081 166.220566,26.2913 166.220566,28.1899811 L166.220566,35.4072568 L163.142641,35.4029676 L163.142641,19.3671189 L166.081778,19.3671189 Z M188.551069,21.9134676 L183.998515,21.9191865 L183.998515,30.1858838 C183.998515,30.3288568 183.959481,31.1023405 184.096823,31.6270514 C184.575355,33.2312081 186.326115,33.1783081 186.730915,33.1783081 C187.307755,33.1783081 187.816646,33.1425649 188.889366,32.8566189 L188.863343,35.3700838 C187.883149,35.5716757 187.102463,35.6717568 186.089018,35.6717568 C185.678435,35.6717568 184.229829,35.6717568 183.038561,35.0340973 C180.988538,33.9417838 180.920589,31.8029081 180.920589,29.8255919 L180.920589,16.3475297 L183.998515,13.981327 L183.998515,19.3928541 L188.551069,19.398573 L188.551069,21.9134676 Z M19.4241834,35.4029676 L22.487652,35.4029676 L22.487652,14.3273216 L19.4241834,14.3273216 L19.4241834,35.4029676 Z M37.667652,22.6111757 L37.6401834,22.6111757 C37.2989949,22.3709811 37.2671891,22.3423865 37.0618977,22.2537432 C35.9833949,21.6446784 34.7993549,21.6046459 34.388772,21.6132243 C33.983972,21.6046459 33.0775091,21.6446784 32.091532,22.1093405 C30.9089377,22.6383405 29.0237263,24.085227 29.0237263,27.2921108 C29.0237263,27.7624919 29.0136063,28.6260486 29.4256349,29.6683216 C30.2381263,31.8286432 32.1536977,33.1783081 34.500092,33.1783081 C36.1482063,33.1783081 37.2671891,32.496327 37.768852,32.1946541 L37.8107777,34.7724568 C37.5404291,34.9454541 37.1992406,35.1398973 36.888412,35.2385486 C36.4619263,35.443 35.3443891,35.7746973 33.9261434,35.7818459 C29.0237263,35.7432432 25.8099034,31.9987811 25.8099034,27.2921108 C25.8099034,26.7173595 25.8446006,25.354827 26.4214406,23.9150892 C27.031532,22.3123622 28.9818006,18.9939595 33.7859091,18.9939595 C34.6345434,18.9939595 35.916892,19.0640162 37.667652,19.9046973 L37.667652,22.6111757 Z M41.2515777,20.3993838 C41.5898749,20.2435432 41.9513034,20.0676865 42.3242977,19.8975486 C43.1064291,19.5958757 44.8398406,18.9939595 47.0647949,18.9939595 C49.366372,18.9939595 50.6761891,19.5958757 51.4554291,20.2749973 C51.623132,20.3993838 52.1652749,20.8711946 52.4385149,21.4831189 C52.7334406,22.1093405 52.9531891,22.8427919 52.9474063,24.4440892 L52.9141549,35.1856486 C50.4477663,35.7217973 47.9481263,35.7818459 47.1356349,35.7746973 C45.7795549,35.7746973 44.7328577,35.6503108 44.2167377,35.5473703 C43.2828063,35.3772324 39.9301949,34.6495 39.9301949,31.0751757 C39.9301949,30.2888243 40.0603091,28.7247 41.6289091,27.4236459 C43.9203663,25.4520486 47.1659949,25.323373 49.933092,25.323373 L49.933092,24.5813432 C49.933092,23.6505892 49.902732,23.3188919 49.7379206,22.9142784 C49.3996234,22.1436541 48.485932,21.4016243 46.5992749,21.4073432 C45.1419949,21.4073432 43.4505091,21.8477 42.1594863,22.4496162 C41.826972,22.5797216 41.5161434,22.7698757 41.219772,22.9414432 L41.2515777,20.3993838 Z M49.933092,27.3192757 C48.1143834,27.3192757 45.5728177,27.3893324 44.0577091,28.6331973 C43.3435263,29.1979405 42.9719777,29.9242432 42.9719777,30.8721541 C42.9719777,31.4311784 43.1064291,31.9387324 43.456292,32.3319081 C44.0880691,33.1425649 45.2417491,33.4714027 47.2700863,33.4656838 C47.7356063,33.4714027 48.7562806,33.4328 49.933092,33.2312081 L49.933092,27.3192757 Z M64.4393891,21.9134676 L59.8694863,21.9134676 L59.8694863,30.1944622 C59.8694863,30.3288568 59.8449091,31.0966216 59.9706863,31.6270514 C60.4448806,33.2312081 62.2057606,33.1783081 62.603332,33.1783081 C63.180172,33.1783081 63.686172,33.1425649 64.7661206,32.8566189 L64.7400977,35.3772324 C63.7613491,35.5716757 62.9734349,35.6717568 61.9686634,35.6717568 C61.5638634,35.6760459 60.113812,35.6717568 58.9225434,35.0340973 C56.8638463,33.9417838 56.7901149,31.7957595 56.7973434,29.8255919 L56.7973434,16.3475297 L59.8694863,13.981327 L59.8694863,19.398573 L64.4393891,19.3928541 L64.4393891,21.9134676 Z M68.9543549,28.3529703 C69.0251949,29.0535378 69.1639834,29.5253486 69.2666291,29.7912784 C69.7393777,31.2338757 70.8482406,32.4048243 72.2664863,32.9352541 C72.8418806,33.1425649 73.6572634,33.3613135 75.0465949,33.3613135 C75.8460749,33.3613135 77.0980634,33.2969757 78.8835206,32.6721838 L78.856052,35.1141622 C78.117292,35.3700838 76.6614577,35.7746973 74.5695091,35.7746973 C73.9623091,35.7746973 71.8891549,35.7818459 70.0675549,34.8739676 C68.3486006,34.0418649 65.7781206,31.8686757 65.811372,27.2206243 C65.811372,26.6201378 65.8475149,25.1132027 66.469172,23.5876811 C66.9983034,22.2723297 68.7172577,18.9939595 73.0500634,18.9939595 C77.1703491,18.9939595 79.8102234,22.0307054 79.8102234,26.0167919 C79.8102234,26.6844757 79.7784177,27.1234027 79.4661434,28.3529703 L68.9543549,28.3529703 Z M76.8262691,26.3227541 C76.8262691,25.9138514 76.9260234,24.5813432 76.2913549,23.3717919 C75.9458291,22.7698757 75.0465949,21.3501541 73.0052463,21.3630216 C72.126252,21.3630216 71.3253263,21.6446784 70.6776463,22.1679595 C69.0613377,23.5462189 68.9543549,25.7951838 68.9239949,26.3313324 L76.8262691,26.3227541 Z M83.0471777,14.3344703 L86.1178749,14.3273216 L86.1178749,35.4029676 L83.0471777,35.4029676 L83.0471777,14.3344703 Z M13.8408349,35.4029676 L12.5411377,31.2596108 L4.585372,31.2596108 L3.29579486,35.4029676 L-0.000433714286,35.4072568 L6.589132,14.3273216 L10.6356863,14.3273216 L17.1428463,35.4029676 L13.8408349,35.4029676 Z M8.58421771,17.2311027 L5.41954914,28.4373243 L11.7214177,28.4430432 L8.58421771,17.2311027 Z" id="Fill-3" fill="#231F20"></path>
                <path d="M252.472025,26.3221822 C252.472025,40.8539551 240.556448,52.6578038 225.852088,52.6463659 C211.153511,52.6578038 199.242271,40.8539551 199.242271,26.3221822 C199.235042,11.7789714 211.153511,0.000857837838 225.852088,0.000857837838 C240.556448,0.0037172973 252.472025,11.7789714 252.472025,26.3221822 Z M230.048129,39.36818 C227.807272,40.2717692 226.806838,40.3032232 226.699855,37.8169232 C226.509021,33.0244692 228.660243,24.1472773 230.869295,16.1650962 C232.781975,9.26093135 233.043649,8.06281784 229.727181,6.99623946 C227.217421,6.19702054 225.429072,6.74603676 221.749729,10.1030422 C216.986101,14.4437016 209.738735,24.2888205 206.092643,31.7949016 C207.023683,32.6069881 208.057369,33.4190746 208.825043,33.9709503 C209.650546,34.5571395 210.306901,34.3741341 210.915546,33.4333719 C213.623369,29.2842962 218.116649,24.8435557 223.318329,21.7281746 C223.556872,20.8717665 223.808426,20.0353746 224.068655,19.2147097 C219.769101,21.2263395 216.250232,23.8041422 216.250232,23.8041422 C220.704478,15.7275989 227.143689,9.20374216 228.320501,9.70700703 C229.083838,10.0272665 226.496009,16.5382557 224.642603,23.1750611 C222.531861,30.7755043 221.451912,36.5673395 221.790209,40.8021989 C222.089472,44.6624692 225.152941,45.6918746 229.711278,43.7145584 C233.146295,42.2147719 236.396261,39.3167097 238.771569,35.7738395 L237.733546,33.6821449 C235.139935,36.6516935 232.221038,38.4788881 230.048129,39.36818 Z M236.377177,16.8349246 C239.778943,17.4439895 245.97672,21.56733 240.415057,32.9279624 C240.407829,32.9522678 240.387589,32.9694246 240.381806,32.9880111 L239.486909,31.2337327 C241.532594,27.8238273 242.773017,23.3416246 240.750463,20.4592895 C238.693211,17.5397814 235.580589,17.0822678 232.154246,17.8743381 C232.265566,17.4239732 232.378331,17.0079219 232.479531,16.6776543 C233.84284,16.5389705 235.141091,16.5918705 236.377177,16.8349246 Z" id="Combined-Shape" fill="#663AB7"></path>
            </g>
        </g>
    </g>
</svg>