<?xml version="1.0" encoding="UTF-8"?>
<svg width="31px" height="31px" viewBox="0 0 31 31" version="1.1" xmlns="http://www.w3.org/2000/svg" xmlns:xlink="http://www.w3.org/1999/xlink">
    <!-- Generator: Sketch 51 (57462) - http://www.bohemiancoding.com/sketch -->
    <title>assets_linkdin</title>
    <desc>Created with Sketch.</desc>
    <defs></defs>
    <g id="assets_linkdin" stroke="none" stroke-width="1" fill="none" fill-rule="evenodd">
        <path d="M24.7610648,23.13778 L21.0560189,23.13778 L21.0560189,17.17586 C21.0560189,15.67856 20.5215896,14.65618 19.1799364,14.65618 C18.1563369,14.65618 17.548129,15.34438 17.2796744,16.01088 C17.1817164,16.24958 17.1569169,16.58004 17.1569169,16.91422 L17.1569169,23.13778 L13.451871,23.13778 C13.451871,23.13778 13.50147,13.03984 13.451871,11.99452 L17.1569169,11.99452 L17.1569169,13.57366 C17.649187,12.81602 18.5270895,11.73288 20.4961701,11.73288 C22.9339613,11.73288 24.7610648,13.32566 24.7610648,16.74744 L24.7610648,23.13778 Z M9.55152897,10.47428 L9.52734945,10.47428 C8.28427431,10.47428 7.47953041,9.61806 7.47953041,8.54794 C7.47953041,7.4555 8.30845383,6.62284 9.57570849,6.62284 C10.8435831,6.62284 11.6229075,7.4555 11.6470871,8.54794 C11.6470871,9.61806 10.8435831,10.47428 9.55152897,10.47428 L9.55152897,10.47428 Z M7.69900602,23.13778 L11.4034319,23.13778 L11.4034319,11.99452 L7.69900602,11.99452 L7.69900602,23.13778 Z M15.49969,0 C6.9401412,0 0,6.93966 0,15.5 C0,24.06034 6.9401412,31 15.49969,31 C24.0604788,31 31,24.06034 31,15.5 C31,6.93966 24.0604788,0 15.49969,0 L15.49969,0 Z" fill="#F7F9FA"></path>
    </g>
</svg>