<?xml version="1.0" encoding="UTF-8"?>
<svg width="236px" height="38px" viewBox="0 0 236 38" version="1.1" xmlns="http://www.w3.org/2000/svg" xmlns:xlink="http://www.w3.org/1999/xlink">
    <!-- Generator: Sketch 51 (57462) - http://www.bohemiancoding.com/sketch -->
    <title>logo_7_color</title>
    <desc>Created with Sketch.</desc>
    <defs></defs>
    <g id="Symbols" stroke="none" stroke-width="1" fill="none" fill-rule="evenodd">
        <g id="our_clients_assets" transform="translate(-736.000000, -442.000000)" fill="#000000">
            <g id="logo_7_color" transform="translate(736.000000, 442.000000)">
                <path d="M18.7415116,9.88662791 C13.8558605,9.88662791 9.88132558,13.8616047 9.88132558,18.7472558 C9.88132558,23.6324651 13.8558605,27.607 18.7415116,27.607 C21.9843256,27.607 24.8175349,25.8510465 26.3618372,23.2449535 L28.2565349,24.4035116 C26.3260465,27.6441163 22.7880698,29.8163023 18.7415116,29.8163023 C12.6283721,29.8163023 7.67202326,24.8608372 7.67202326,18.7472558 C7.67202326,12.6332326 12.6283721,7.67732558 18.7415116,7.67732558 C22.8331395,7.67732558 26.4033721,9.89855814 28.3197209,13.1996977 L26.4276744,14.3564884 C24.8983953,11.6903023 22.0289535,9.88662791 18.7415116,9.88662791 M18.7415116,21.9675349 C19.9513256,21.9675349 21.0064884,21.2963488 21.5570465,20.3074651 L23.4411395,21.4589535 C22.502186,23.0823488 20.7515349,24.1768372 18.7415116,24.1768372 C15.7426047,24.1768372 13.3119302,21.7461628 13.3119302,18.7472558 C13.3119302,15.7483488 15.7426047,13.3172326 18.7415116,13.3172326 C20.7961628,13.3172326 22.5839302,14.459 23.506093,16.1420465 L21.6144884,17.2988372 C21.0829302,16.2489767 19.9963953,15.5265349 18.7415116,15.5265349 C16.9656744,15.5265349 15.5212326,16.9709767 15.5212326,18.7472558 C15.5212326,20.5226512 16.9656744,21.9675349 18.7415116,21.9675349 M18.7415116,34.4766047 C10.0545349,34.4766047 3.01172093,27.4342326 3.01172093,18.7472558 C3.01172093,10.0598372 10.0545349,3.01746512 18.7415116,3.01746512 C24.5157442,3.01746512 29.5604651,6.13081395 32.2964651,10.7681395 L30.4066279,11.9231628 C28.0563721,7.92123256 23.708907,5.22676744 18.7415116,5.22676744 C11.2864419,5.22676744 5.22102326,11.2917442 5.22102326,18.7472558 C5.22102326,26.2023256 11.2864419,32.2673023 18.7415116,32.2673023 C23.6642791,32.2673023 27.9790465,29.6223256 30.3438837,25.6796047 L32.2337209,26.8346279 C29.4835814,31.4127442 24.4711163,34.4766047 18.7415116,34.4766047 M18.7476977,0 C8.3935814,0 0,8.39313953 0,18.7472558 C0,29.1009302 8.3935814,37.4940698 18.7476977,37.4940698 C29.1009302,37.4940698 37.4945116,29.1009302 37.4945116,18.7472558 C37.4945116,8.39313953 29.1009302,0 18.7476977,0" id="Fill-1"></path>
                <path d="M72.7092646,17.627683 L72.7092646,8.54209811 L80.9796854,8.54209811 C82.9827677,8.54209811 84.6062677,10.163834 84.6062677,12.1647396 L84.6062677,14.0050415 C84.6062677,16.0053434 82.9827677,17.627683 80.9796854,17.627683 L72.7092646,17.627683 Z M83.2299797,20.8506264 C86.6020968,20.1417962 89.1352646,17.1549283 89.1352646,13.5751547 L89.1352646,11.6780981 C89.1352646,7.57123019 85.801831,4.24141887 81.6904956,4.24141887 L67.9656949,4.24141887 L67.9656949,18.8406642 L67.9656949,21.0112302 L67.9656949,30.5140226 L73.1535209,30.5140226 L73.1535209,21.0112302 L78.1467203,21.0112302 L84.2810842,30.5140226 L89.4689101,30.5140226 L83.2299797,20.8506264 Z" id="Fill-1"></path>
                <path d="M61.4892234,23.0870038 C61.4892234,25.0873057 59.8657234,26.7096453 57.8626411,26.7096453 L49.2875873,26.7096453 L49.2875873,19.3381736 L57.8626411,19.3381736 C59.8657234,19.3381736 61.4892234,20.9605132 61.4892234,22.9608151 L61.4892234,23.0870038 Z M49.2875873,8.16172075 L56.4416253,8.16172075 C58.4447076,8.16172075 60.0682076,9.78406038 60.0682076,11.7843623 L60.0682076,11.9105509 C60.0682076,13.9114566 58.4447076,15.5331925 56.4416253,15.5331925 L49.2875873,15.5331925 L49.2875873,8.16172075 Z M60.3728405,17.1959849 C62.912657,16.2444377 64.7241348,13.8039849 64.7241348,10.9342491 C64.7241348,7.23794717 61.7243468,4.24141887 58.0240241,4.24141887 L44.9997582,4.24141887 L44.9997582,17.1283623 L44.9997582,17.627683 L44.9997582,30.5140226 L59.4692171,30.5140226 C63.1695399,30.5140226 66.1693278,27.5174943 66.1693278,23.8211925 C66.1693278,20.4322113 63.6446222,17.6379472 60.3728405,17.1959849 Z" id="Fill-3"></path>
                <path d="M103.865172,26.7692377 C98.6731155,26.7692377 94.4638623,22.5645585 94.4638623,17.3775396 C94.4638623,12.1911245 98.6731155,7.98704906 103.865172,7.98704906 C109.057229,7.98704906 113.266483,12.1911245 113.266483,17.3775396 C113.266483,22.5645585 109.057229,26.7692377 103.865172,26.7692377 M103.865172,3.73769057 C96.3236946,3.73769057 90.2104858,9.84486038 90.2104858,17.3775396 C90.2104858,24.9108226 96.3236946,31.0179925 103.865172,31.0179925 C111.40665,31.0179925 117.519859,24.9108226 117.519859,17.3775396 C117.519859,9.84486038 111.40665,3.73769057 103.865172,3.73769057" id="Fill-6"></path>
                <path d="M123.601215,19.6943396 L123.601215,14.5755472 C123.601215,10.7995472 126.666281,7.73720755 130.447597,7.73720755 C134.228914,7.73720755 137.29398,10.7995472 137.29398,14.5755472 L137.29398,19.6943396 L123.601215,19.6943396 Z M130.598101,3.60377358 L130.06862,3.60377358 C124.060582,3.60377358 119.189477,8.46958491 119.189477,14.4716981 L119.189477,30.5139623 L123.601215,30.5139623 L123.601215,24.5245283 L137.29398,24.5245283 L137.29398,30.5139623 L141.477847,30.5139623 L141.477847,14.4716981 C141.477847,8.46958491 136.607347,3.60377358 130.598101,3.60377358 Z" id="Fill-8"></path>
                <path d="M194.501382,19.6943396 L194.501382,14.5755472 C194.501382,10.7995472 197.566448,7.73720755 201.347765,7.73720755 C205.129081,7.73720755 208.194147,10.7995472 208.194147,14.5755472 L208.194147,19.6943396 L194.501382,19.6943396 Z M201.498268,3.60377358 L200.968787,3.60377358 C194.960144,3.60377358 190.08904,8.46958491 190.08904,14.4716981 L190.08904,30.5139623 L194.501382,30.5139623 L194.501382,24.5245283 L208.194147,24.5245283 L208.194147,30.5139623 L212.378015,30.5139623 L212.378015,14.4716981 C212.378015,8.46958491 207.507515,3.60377358 201.498268,3.60377358 Z" id="Fill-10"></path>
                <path d="M164.19488,17.7391396 C164.19488,22.7408 160.135525,26.7957434 155.128424,26.7957434 L149.00494,26.7957434 L149.00494,8.35529057 L155.128424,8.35529057 C160.135525,8.35529057 164.19488,12.410234 164.19488,17.4118943 L164.19488,17.7391396 Z M154.404316,4.24178113 L144.592598,4.24178113 L144.592598,30.5137811 L155.188867,30.5137811 C162.234712,30.5137811 167.946579,24.8081208 167.946579,17.7699321 C167.946579,10.298234 161.883538,4.24178113 154.404316,4.24178113 Z" id="Fill-12"></path>
                <path d="M231.453656,3.60353208 L231.453656,14.0639094 L231.350298,14.0639094 L231.350298,16.5224755 C230.892745,18.7147774 228.947688,20.3618717 226.618213,20.3618717 L224.345555,20.3618717 C221.675181,20.3618717 219.510112,18.1991547 219.510112,15.531683 L219.510112,3.60353208 L214.794346,3.60353208 L214.794346,14.8639094 C214.794346,20.1988528 219.123881,24.5242868 224.464628,24.5242868 L226.066368,24.5242868 C228.017469,24.5242868 229.83076,23.9422491 231.350298,22.9490415 L231.350298,25.9914566 C231.350298,28.6595321 229.133852,30.8216453 226.399409,30.8216453 L224.072352,30.8216453 C221.455169,30.8216453 219.317903,28.8400604 219.138387,26.3319849 L214.861438,28.5309283 C216.218384,32.2876075 219.878814,34.9852679 224.193843,34.9852679 L225.834267,34.9852679 C231.303757,34.9852679 235.737254,30.659834 235.737254,25.3248906 L235.737254,14.8639094 L235.737254,14.0639094 L235.737254,3.60353208 L231.453656,3.60353208 Z" id="Fill-14"></path>
                <path d="M181.126002,15.5233509 C179.577452,15.0958792 178.022252,14.6762566 176.511781,14.1352755 C174.971692,13.584634 173.918774,12.5745208 174.132138,10.7553509 C174.349733,8.89391698 175.726021,8.32033208 177.296936,8.08063396 C179.675974,7.71655849 181.984293,8.19957736 183.944461,9.48078491 C184.483613,9.83338868 184.894021,9.96682264 185.2186,9.95716226 L187.181186,6.56335094 C186.859024,6.22403019 186.242505,6.02659623 185.862923,5.8122566 C182.590537,3.96470943 179.059455,3.40803019 175.391167,4.24123774 C172.025094,5.00682264 169.785679,7.5722566 169.536654,10.6949736 C169.234439,14.4915019 170.732217,16.893917 174.521996,18.3248604 C176.674372,19.1369358 178.924062,19.6887849 181.121167,20.3885585 C182.803297,20.9247094 184.029686,21.8961811 183.748626,23.8675019 C183.474819,25.7881057 182.004844,26.4764075 180.319692,26.7064453 C177.473429,27.0958792 174.846575,26.2626717 172.72442,24.4712755 C172.570895,24.3408604 171.988828,23.9381434 171.47204,23.5915774 L168.701331,26.9455396 C169.325708,27.4279547 170.067948,27.9955019 170.242629,28.1174642 C172.870692,29.9589736 175.756243,30.9763321 178.995385,30.8863698 C184.236401,30.9262189 187.769297,28.4241811 188.348341,24.2653887 C188.96486,19.8427472 186.645056,17.0472755 181.126002,15.5233509" id="Fill-17"></path>
            </g>
        </g>
    </g>
</svg>