<?xml version="1.0" encoding="UTF-8"?>
<svg width="162px" height="59px" viewBox="0 0 162 59" version="1.1" xmlns="http://www.w3.org/2000/svg" xmlns:xlink="http://www.w3.org/1999/xlink">
    <!-- Generator: Sketch 51 (57462) - http://www.bohemiancoding.com/sketch -->
    <title>logo_8_color</title>
    <desc>Created with Sketch.</desc>
    <defs>
        <polygon id="path-1" points="0 0.989390244 32.4698532 0.989390244 32.4698532 41.0345512 0 41.0345512"></polygon>
        <polygon id="path-3" points="0 59.5121951 161.195945 59.5121951 161.195945 0.989390244 0 0.989390244"></polygon>
    </defs>
    <g id="Symbols" stroke="none" stroke-width="1" fill="none" fill-rule="evenodd">
        <g id="our_clients_assets" transform="translate(-1093.000000, -412.000000)">
            <g id="logo_8_color" transform="translate(1093.000000, 411.000000)">
                <polygon id="Fill-1" fill="#87BC23" points="42.0171523 40.6325463 40.3198679 40.6325463 43.5554092 31.973522 61.7008954 31.973522 64.9379229 40.6325463 63.2391523 40.6325463 60.5862165 33.4613268 44.6700881 33.4613268"></polygon>
                <g id="Group-26" transform="translate(0.000000, 0.498117)">
                    <path d="M135.978193,22.2023634 C135.948468,22.6903634 135.903881,23.1709244 135.847404,23.6485098 L153.007514,23.6485098 L153.007514,22.2023634 L135.978193,22.2023634 Z" id="Fill-2" fill="#87BC23"></path>
                    <path d="M135.917257,19.0043268 C135.957385,19.4819122 135.985624,19.9654488 135.997514,20.451961 L161.195202,20.451961 L161.195202,19.0043268 L135.917257,19.0043268 Z" id="Fill-4" fill="#87BC23"></path>
                    <g id="Group-8">
                        <mask id="mask-2" fill="white">
                            <use xlink:href="#path-1"></use>
                        </mask>
                        <g id="Clip-7"></g>
                        <path d="M32.4698532,37.1588195 C29.128789,39.1747951 24.9361101,41.0345512 19.6837431,41.0345512 C8.54141284,41.0345512 0,32.4841366 0,21.1202829 C0,9.38150244 9.17752294,0.988795122 19.8962752,0.988795122 C25.7327339,0.988795122 29.7634128,3.00774634 32.362844,4.81394146 L31.7802385,6.40738049 C29.0217798,4.5506 25.0951376,2.53016098 19.7892661,2.53016098 C10.6117431,2.53016098 1.64377982,10.0197707 1.64377982,21.0101854 C1.64377982,31.3667951 9.28453211,39.4976488 19.7892661,39.4976488 C24.8305872,39.4976488 28.8612661,37.7435268 32.1503119,35.6204293 L32.4698532,37.1588195 Z" id="Fill-6" fill="#87BC23" mask="url(#mask-2)"></path>
                    </g>
                    <path d="M31.7803872,33.8140854 C28.5433596,35.7244268 24.670222,37.5826951 19.7909009,37.5826951 C10.5063688,37.5826951 3.82126789,30.5200854 3.82126789,21.0130122 C3.82126789,11.0298415 11.1424789,4.44184146 19.7909009,4.44184146 C24.1411211,4.44184146 28.3323138,6.19447561 31.1948092,8.37113415 L30.5601853,9.9139878 C27.8552312,7.78940244 23.5570294,5.98320732 19.6838917,5.98320732 C12.1486624,5.98320732 5.46356147,11.8243293 5.46356147,20.9058902 C5.46356147,29.5098659 11.355011,36.0443049 19.8964239,36.0443049 C24.5646991,36.0443049 28.2788092,34.1860366 31.4088275,32.2206463 L31.7803872,33.8140854 Z" id="Fill-9" fill="#87BC23"></path>
                    <polygon id="Fill-11" fill="#87BC23" points="52.0971193 1.04324878 36.4990459 40.1323463 38.1978165 40.1323463 52.7347156 3.21990732 52.9457615 3.21990732 67.0590826 40.1323463 68.7578532 40.1323463 53.5833578 1.04324878"></polygon>
                    <path d="M52.8402385,8.15971707 L44.2453211,29.6689122 L61.011578,29.6689122 L52.8402385,8.15971707 Z M52.8402385,12.1440585 L58.8357248,28.1825951 L46.4196881,28.1825951 L52.8402385,12.1440585 Z" id="Fill-13" fill="#87BC23"></path>
                    <mask id="mask-4" fill="white">
                        <use xlink:href="#path-3"></use>
                    </mask>
                    <g id="Clip-16"></g>
                    <path d="M68.4873578,3.37880488 L91.9372294,3.37880488 L91.9372294,1.8924878 L68.4873578,1.8924878 L68.4873578,3.37880488 Z M81.2214495,5.185 L81.2214495,40.1350244 L82.8146972,40.1350244 L82.8146972,6.67131707 L91.9387156,6.67131707 L91.9387156,5.185 L81.2214495,5.185 Z M68.4873578,5.185 L68.4873578,6.67131707 L77.6143486,6.67131707 L77.6143486,40.1350244 L79.2061101,40.1350244 L79.2061101,5.185 L68.4873578,5.185 Z" id="Fill-15" fill="#87BC23" mask="url(#mask-4)"></path>
                    <path d="M114.114286,0.989390244 C125.151094,0.989390244 133.960029,9.75553659 133.960029,20.9066341 C133.960029,32.2199024 124.937075,41.0351463 113.901754,41.0351463 C102.867919,41.0351463 94.0604697,32.4311707 94.0604697,21.1179024 C94.0604697,9.80612195 103.078965,0.989390244 114.114286,0.989390244 M114.011736,39.4952683 C124.143424,39.4952683 132.311791,31.2647317 132.311791,21.0137561 C132.311791,10.6020976 124.300965,2.52926829 114.011736,2.52926829 C103.875589,2.52926829 95.7042495,10.7612927 95.7042495,21.0137561 C95.7042495,31.4209512 103.718048,39.4952683 114.011736,39.4952683 M114.011736,4.44109756 C123.186286,4.44109756 130.137424,11.5587561 130.137424,21.0137561 C130.137424,30.4137073 123.186286,37.583439 114.011736,37.583439 C104.83124,37.583439 97.8786165,30.4657805 97.8786165,21.0137561 C97.8786165,11.5587561 104.83124,4.44109756 114.011736,4.44109756 M114.114286,35.9914878 C122.285626,35.9914878 128.545662,29.4585366 128.545662,21.1179024 C128.545662,12.4082927 122.181589,6.03602439 113.901754,6.03602439 C105.730415,6.03602439 99.470378,12.6210488 99.470378,20.9066341 C99.470378,29.6162439 105.840396,35.9914878 114.114286,35.9914878" id="Fill-17" fill="#87BC23" mask="url(#mask-4)"></path>
                    <polygon id="Fill-18" fill="#87BC23" mask="url(#mask-4)" points="17.6102917 50.1058463 17.6102917 56.5272122 13.2080532 50.1058463 12.5600532 50.1058463 12.5451908 50.0865049 12.5451908 50.1058463 12.3935945 50.1058463 11.9848789 50.1058463 11.9848789 59.3540415 12.9539064 59.3540415 13.362622 59.3540415 13.362622 52.7273585 17.9015945 59.3540415 18.1170991 59.3540415 18.5808055 59.3540415 18.9895211 59.3540415 18.9895211 50.1058463 18.0175211 50.1058463"></polygon>
                    <polygon id="Fill-19" fill="#87BC23" mask="url(#mask-4)" points="28.8529431 55.2012805 31.942833 55.2012805 31.8046128 54.2118902 31.7525945 53.8577927 28.8529431 53.8577927 28.8529431 51.4505244 32.5269248 51.4505244 32.5269248 50.5161829 32.5269248 50.1055488 27.4499339 50.1055488 27.4499339 59.3552317 27.8586495 59.3552317 32.6487963 59.3552317 32.6487963 58.4208902 32.6487963 58.0117439 28.8529431 58.0117439"></polygon>
                    <polygon id="Fill-20" fill="#87BC23" mask="url(#mask-4)" points="46.5121321 50.4589024 46.4630862 50.1077805 39.6813798 50.1077805 39.6813798 51.0406341 39.6813798 51.4482927 42.4413248 51.4482927 42.4413248 59.3559756 43.4356183 59.3559756 43.8443339 59.3559756 43.8443339 51.4482927 46.6518385 51.4482927"></polygon>
                    <polygon id="Fill-21" fill="#87BC23" mask="url(#mask-4)" points="64.4398844 50.1058463 62.4899394 56.7131878 60.2917927 50.1058463 59.6913523 50.1058463 59.6675725 50.0329439 59.6408202 50.1058463 59.3747835 50.1058463 59.079022 50.1058463 56.9269486 56.7027732 54.9443064 50.0210415 54.0555358 50.0210415 53.5071138 50.0210415 56.3012422 59.3793341 56.8704716 59.3793341 56.8912789 59.4522366 56.9150587 59.3793341 57.1305633 59.3793341 57.4248385 59.3793341 59.670545 52.6113098 61.9504349 59.3793341 62.5137193 59.3793341 62.5360128 59.441822 62.5553339 59.3793341 62.779756 59.3793341 63.0829486 59.3793341 63.1706367 59.0877244 65.8815358 50.1058463 64.7460495 50.1058463"></polygon>
                    <path d="M79.827655,54.7421439 C79.827655,55.7910463 79.5318936,56.6569488 79.0533248,57.2461195 C78.568811,57.836778 77.920811,58.1670707 77.1122972,58.1715341 C76.2963523,58.1670707 75.6409211,57.8352902 75.1534349,57.2431439 C74.6718936,56.6509976 74.3716734,55.7776561 74.3716734,54.718339 C74.3716734,53.6694366 74.6659486,52.805022 75.1474899,52.2158512 C75.6290312,51.6266805 76.2770312,51.2949 77.0870312,51.2919244 C77.9044624,51.2949 78.5584073,51.6281683 79.0444073,52.2188268 C79.5289211,52.8109732 79.827655,53.681339 79.827655,54.7421439 M77.1122972,49.9469488 C75.9158752,49.945461 74.8532147,50.4587537 74.1130679,51.3201927 C73.3714349,52.1816317 72.9448844,53.3748512 72.9448844,54.7421439 C72.9448844,56.1019976 73.3640037,57.2922415 74.0996917,58.1477293 C74.8353798,59.0032171 75.8920954,59.515022 77.0870312,59.5120463 C78.2849394,59.515022 79.3476,59.0017293 80.0862606,58.141778 C80.8278936,57.2818268 81.254444,56.0856317 81.254444,54.718339 C81.254444,53.3569976 80.8353248,52.1697293 80.0996367,51.3127537 C79.3639486,50.455778 78.307233,49.945461 77.1122972,49.9469488" id="Fill-22" fill="#87BC23" mask="url(#mask-4)"></path>
                    <path d="M93.3170532,52.7633634 C93.3125945,53.2528512 93.1550532,53.5519 92.8756404,53.7825098 C92.5962275,54.0071683 92.1384661,54.1529732 91.5291083,54.1529732 L90.6938422,54.1529732 L90.6938422,51.4496317 L91.6851633,51.4496317 C92.2781725,51.4496317 92.6883743,51.5894854 92.9321174,51.7992659 C93.1758606,52.0075585 93.3125945,52.2947049 93.3170532,52.7633634 Z M92.8459156,55.2331195 C93.2739523,55.0873146 93.6767229,54.8953878 93.994778,54.5859244 C94.4584844,54.1380951 94.7468147,53.4968512 94.7438422,52.7395585 C94.7497872,51.9376317 94.4347046,51.241339 93.8833101,50.7845829 C93.3319156,50.3278268 92.5798789,50.1061439 91.7223193,50.1061439 L89.6965761,50.1061439 L89.2893468,50.1061439 L89.2893468,59.3558268 L90.2866128,59.3558268 L90.6938422,59.3558268 L90.6938422,55.4800951 L91.3299523,55.4800951 L94.1998789,59.4391439 L95.0187963,59.4391439 L95.8065028,59.4391439 L95.3517138,58.7964122 L92.8459156,55.2331195 Z" id="Fill-23" fill="#87BC23" mask="url(#mask-4)"></path>
                    <polygon id="Fill-24" fill="#87BC23" mask="url(#mask-4)" points="110.095349 50.1073341 109.031202 50.1073341 108.250927 50.1073341 108.090413 50.1073341 104.411972 53.4742366 104.411972 50.1073341 103.419165 50.1073341 103.008963 50.1073341 103.008963 59.3540415 104.001771 59.3540415 104.411972 59.3540415 104.411972 55.5050902 108.450083 59.4388463 109.439917 59.4388463 110.45056 59.4388463 105.287367 54.4457732"></polygon>
                    <path d="M121.590363,55.0313732 C121.162327,54.5701537 120.561886,54.2309341 119.787556,53.9021293 C119.144015,53.629861 118.736785,53.3947878 118.524253,53.1790561 C118.319152,52.9618366 118.250785,52.790739 118.240382,52.4202756 C118.241868,52.1152756 118.354822,51.8623488 118.564382,51.6733976 C118.772455,51.4829585 119.084565,51.3520317 119.508143,51.3520317 C120.148712,51.3535195 120.612418,51.5186659 121.062749,51.7745683 L121.581446,52.0721293 L121.752363,50.8937878 L121.792492,50.6230073 L121.55618,50.4831537 C121.059776,50.1885683 120.370161,50.0115195 119.52895,50.0100317 C118.803666,50.0100317 118.131886,50.2451049 117.635483,50.6735927 C117.137593,51.1005927 116.825483,51.7284463 116.826969,52.4455683 C116.818051,53.0942512 117.000859,53.6715195 117.425923,54.117861 C117.848015,54.5686659 118.449941,54.8959829 119.285207,55.2545439 L119.283721,55.2515683 C119.901996,55.5163976 120.297336,55.7618854 120.509868,55.9969585 C120.723886,56.2305439 120.801171,56.4388366 120.807116,56.8063244 C120.804143,57.221422 120.648088,57.5204707 120.387996,57.7451293 C120.124932,57.9697878 119.741483,58.1096415 119.286694,58.1096415 C118.512363,58.1111293 117.815317,57.8507634 117.400657,57.594861 L116.868583,57.2705195 L116.69618,58.4830805 L116.656051,58.7583244 L116.896822,58.8966902 C117.425923,59.2046659 118.209171,59.4516415 119.249538,59.4516415 C120.023868,59.4516415 120.761042,59.2195439 121.316895,58.7583244 C121.877207,58.3015683 122.238363,57.5993244 122.233905,56.7691293 C122.238363,56.0892024 122.019886,55.4925927 121.590363,55.0313732" id="Fill-25" fill="#87BC23" mask="url(#mask-4)"></path>
                </g>
            </g>
        </g>
    </g>
</svg>