<?xml version="1.0" encoding="UTF-8"?>
<svg width="129px" height="68px" viewBox="0 0 129 68" version="1.1" xmlns="http://www.w3.org/2000/svg" xmlns:xlink="http://www.w3.org/1999/xlink">
    <!-- Generator: Sketch 51 (57462) - http://www.bohemiancoding.com/sketch -->
    <title>logo_1_color</title>
    <desc>Created with Sketch.</desc>
    <defs></defs>
    <g id="Symbols" stroke="none" stroke-width="1" fill="none" fill-rule="evenodd">
        <g id="our_clients_assets" transform="translate(-111.000000, -181.000000)" fill="#059FD8">
            <g id="logo_1_color" transform="translate(111.000000, 181.000000)">
                <polygon id="Fill-1" points="123.180451 64.1142857 123.180451 64.4507688 123.984302 64.4507688 123.984302 67.0285714 124.313658 67.0217277 124.313658 64.4507688 125.120301 64.4507688 125.120301 64.1142857"></polygon>
                <polygon id="Fill-2" points="127.424104 64.1142857 126.597981 66.5004641 126.57908 66.5004641 125.732943 64.1142857 125.120301 64.1142857 125.120301 67.0217277 125.51168 67.0285714 125.51168 64.63669 125.533918 64.6435337 126.368935 67.0285714 126.738078 67.0285714 127.607563 64.6435337 127.619794 64.63669 127.619794 67.0217277 128.030075 67.0285714 128.030075 64.1142857"></polygon>
                <polygon id="Fill-3" points="35.887218 67.0285714 41.7067669 67.0285714 41.7067669 44.6857143 35.887218 44.6857143"></polygon>
                <path d="M88.2631579,51.5414222 C88.0257298,51.4124857 86.1711915,50.3310448 83.4023777,50.3310448 C79.6755827,50.3310448 77.0745043,52.890029 77.0745043,56.3399532 C77.0745043,59.6853342 79.5598217,62.3477 83.4023777,62.3477 C86.1203984,62.3477 88.0139174,61.2906525 88.2631579,61.155908 L88.2631579,67.199664 C87.5355174,67.3959729 85.564037,68 82.9983955,68 C76.503968,68 70.8045113,63.5917635 70.8045113,56.3399532 C70.8045113,49.6108586 75.9570564,44.6903606 82.9983955,44.6857143 C85.7164162,44.6857143 87.7221525,45.3315587 88.2631579,45.4965046 L88.2631579,51.5414222 Z" id="Fill-4"></path>
                <path d="M29.0977444,51.5340486 C28.8686159,51.4120269 27.0084232,50.3301016 24.2340786,50.3301016 C20.4995203,50.3301016 17.9094235,52.8890701 17.9094235,56.3405399 C17.9094235,59.6885818 20.3873182,62.3509782 24.2435272,62.3509782 C26.9564559,62.3509782 28.8402701,61.2934572 29.0977444,61.1598144 L29.0977444,67.205116 C28.3749266,67.4015128 26.4072561,68 23.8195214,68 C17.333059,68 11.6390977,63.5955991 11.6390977,56.3405399 C11.6390977,49.6095927 16.7992132,44.6822419 23.8195214,44.6857282 C26.5371744,44.6822419 28.5426392,45.3341862 29.0977444,45.4864227 L29.0977444,51.5340486 Z" id="Fill-6"></path>
                <path d="M104.747332,50.4181641 C101.440887,50.4181641 98.9886349,53.0665907 98.9886349,56.3399532 C98.9886349,59.6109924 101.440887,62.2687118 104.747332,62.2687118 C108.037853,62.2617422 110.490105,59.6109924 110.490105,56.3399532 C110.490105,53.0665907 108.037853,50.4181641 104.747332,50.4181641 M116.390977,56.3399532 C116.390977,62.7740037 111.525146,67.994192 104.747332,68 C97.9604181,68 93.1082355,62.7740037 93.1127852,56.3399532 C93.1082355,49.910549 97.9604181,44.6857143 104.747332,44.6857143 C111.525146,44.6857143 116.390977,49.904741 116.390977,56.3399532" id="Fill-8"></path>
                <path d="M63.4103054,50.203057 C63.3173367,50.1833148 60.9222311,49.524857 58.9629161,49.524857 C56.6816971,49.524857 55.4394031,50.2808641 55.4394031,51.3620357 C55.4394031,52.7416617 57.1128394,53.2108274 58.0413641,53.5162497 L59.6171832,54.0098027 C63.3115262,55.1838784 64.9849624,57.7039023 64.9849624,60.4434122 C64.9849624,66.1024336 60.011138,67.9941935 55.6532311,68 C52.6282627,68 49.7950421,67.444898 49.5196224,67.3845103 L49.5196224,62.2074289 C50.0344365,62.3293656 52.4167589,63.0435659 54.8978606,63.0389207 C57.7171358,63.0389207 59.0268321,62.2143967 59.0268321,60.9450944 C59.0268321,59.7907608 57.8937763,59.143916 56.4829766,58.6979763 C56.1413167,58.5830074 55.6230163,58.4239091 55.2743837,58.307779 C52.1053138,57.2997694 49.4661654,55.4509777 49.4661654,51.7266843 C49.4661654,47.5111604 52.6236142,44.6857143 57.8635615,44.6857143 C60.6282176,44.6857143 63.2336649,45.3557852 63.4044948,45.4045598 L63.4103054,50.203057 Z" id="Fill-10"></path>
                <path d="M5.81954887,21.292252 C5.81954887,19.7380444 4.50727416,18.4571429 2.91336971,18.4571429 C1.30748102,18.4571429 0,19.7380444 0.00479369759,21.292252 L0,27.2651008 C0,28.843941 1.30748102,30.1142857 2.91336971,30.1142857 C4.50727416,30.1142857 5.81954887,28.843941 5.81954887,27.2651008 L5.81954887,21.292252 Z" id="Fill-12"></path>
                <path d="M21.3383459,13.5183413 C21.3383459,11.9646635 20.0345846,10.6857143 18.4321697,10.6857143 C16.8225583,10.6857143 15.518797,11.9646635 15.518797,13.5183413 L15.518797,27.2758134 C15.518797,28.8423508 16.8225583,30.1142857 18.4321697,30.1142857 C20.0345846,30.1142857 21.3383459,28.8423508 21.3383459,27.2758134 L21.3383459,13.5183413 Z" id="Fill-14"></path>
                <path d="M36.8571429,2.75858072 C36.8571429,1.23748835 35.5492985,-0.00683382464 33.9521503,2.82461941e-05 C32.3514157,-0.00683382464 31.037594,1.23748835 31.037594,2.75858072 L31.037594,32.1945772 C31.037594,33.7385432 32.3514157,34.9714286 33.9521503,34.9714286 C35.5492985,34.9714286 36.8571429,33.7316811 36.8571429,32.1945772 L36.8571429,2.75858072 Z" id="Fill-16"></path>
                <path d="M52.3759398,13.5183413 C52.3759398,11.9646635 51.0752407,10.6857143 49.4613658,10.6857143 C47.8666894,10.6857143 46.556391,11.9646635 46.556391,13.5183413 L46.556391,27.2758134 C46.556391,28.8423508 47.8666894,30.1142857 49.4613658,30.1142857 C51.0680412,30.1142857 52.3759398,28.8423508 52.3759398,27.2758134 L52.3759398,13.5183413 Z" id="Fill-18"></path>
                <path d="M66.924812,21.2981169 C66.924812,19.7380444 65.617966,18.4571429 64.014437,18.4571429 C62.4037012,18.4571429 61.1052632,19.7380444 61.1052632,21.292252 L61.1052632,27.2651008 C61.1052632,28.8380761 62.4037012,30.1142857 64.014437,30.1142857 C65.6107591,30.1142857 66.924812,28.8380761 66.924812,27.2651008 L66.924812,21.2981169 Z" id="Fill-20"></path>
                <path d="M82.4435884,13.5253557 C82.4435884,11.9588182 81.1423573,10.6927286 79.5278223,10.6857143 C77.9252913,10.6857143 76.6324629,11.9646635 76.6324629,13.5183413 L76.6240602,27.2758134 C76.6324629,28.8423508 77.9252913,30.1142857 79.5278223,30.1142857 C81.1423573,30.1142857 82.4495904,28.8423508 82.4435884,27.2758134 L82.4435884,13.5253557 Z" id="Fill-22"></path>
                <path d="M97.962406,2.76487426 C97.962406,1.24407907 96.6551422,0 95.0568408,0 C93.4453104,0 92.1428571,1.24407907 92.1428571,2.76487426 L92.1428571,32.1996936 C92.1428571,33.7387841 93.4453104,34.9714286 95.0568408,34.9714286 C96.6551422,34.9714286 97.962406,33.7319233 97.962406,32.1951198 L97.962406,2.76487426 Z" id="Fill-24"></path>
                <path d="M113.481203,13.5123721 C113.481203,11.9522881 112.187438,10.6787263 110.555855,10.6857431 C108.948232,10.6787263 107.661654,11.9581355 107.661654,13.5123721 L107.661654,27.2747925 C107.661654,28.8418934 108.948232,30.1142857 110.555855,30.1142857 C112.187438,30.1142857 113.481203,28.8477407 113.481203,27.2747925 L113.481203,13.5123721 Z" id="Fill-27"></path>
                <path d="M129,21.2981169 C129,19.7380444 127.691022,18.4571429 126.093828,18.4571429 C124.479822,18.4571429 123.180451,19.7380444 123.180451,21.292252 L123.180451,27.2651008 C123.180451,28.843941 124.479822,30.1142857 126.093828,30.1142857 C127.691022,30.1142857 128.991594,28.8380761 129,27.2651008 L129,21.2981169 Z" id="Fill-29"></path>
            </g>
        </g>
    </g>
</svg>