<?xml version="1.0" encoding="UTF-8"?>
<svg width="417px" height="120px" viewBox="0 0 417 120" version="1.1" xmlns="http://www.w3.org/2000/svg" xmlns:xlink="http://www.w3.org/1999/xlink">
    <title>exalt-logo-dark</title>
    <g id="Graphic-Profile" stroke="none" stroke-width="1" fill="none" fill-rule="evenodd">
        <g id="Frontify-—-Logo" transform="translate(-511.000000, -232.000000)">
            <g id="Block" transform="translate(120.000000, 0.000000)">
                <g id="Graphic-Profile/Logo/Light" transform="translate(391.000000, 232.000000)">
                    <g id="Symbol" transform="translate(0.000000, 4.198416)">
                        <path d="M51.9169274,63.7571157 L51.7868941,81.0046821 L17.4887338,115.240223 L0.209620437,115.370019 L0.339653706,98.1224526 L34.637814,63.8869116 L51.9169274,63.7571157 Z M63.9667362,63.7571157 L81.2458496,63.8869116 L115.54401,98.1224526 L115.674043,115.370019 L98.3949297,115.240223 L64.0967695,81.0046821 L63.9667362,63.7571157 Z M0.209620437,-3.90798505e-13 L17.4887338,0.129795862 L51.7868941,34.3653369 L51.9169274,51.6129032 L34.637814,51.4831074 L0.339653706,17.2475664 L0.209620437,-3.90798505e-13 Z" id="Combined-Shape" fill="#111328" fill-rule="nonzero"></path>
                        <polygon id="Rectangle" fill="#1736FF" points="98.3949297 0.129795862 64.0967695 34.3653369 63.9667362 51.6129032 81.2458496 51.4831074 115.54401 17.2475664 115.674043 4.74594009e-13"></polygon>
                    </g>
                    <g id="Wordmark" transform="translate(147.096774, 0.000000)" fill="#111328" fill-rule="nonzero">
                        <path d="M32.8339559,30.9677419 C53.6149406,30.9677419 65.8064516,44.6808511 65.8064516,66.0123542 L65.8026344,66.5504372 L65.7917279,67.0736627 L65.7745503,67.5790321 L65.7519195,68.0635465 L65.7095379,68.7446553 L65.6594876,69.3619724 L65.6045295,69.9053771 L65.5474242,70.3647485 L65.5095244,70.6193131 L65.4727153,70.8290327 L65.4378147,70.9909085 C65.4265902,71.03656 65.4158201,71.0737377 65.4056408,71.1019419 L65.3908319,71.1374555 L16.0706282,71.1374555 C16.4862479,81.3876583 24.521562,88.7290198 34.4964346,88.7290198 C43.5194048,88.7290198 47.7210334,85.7393664 52.4633911,80.3321873 L61.3605161,88.9726204 C56.1417784,96.9331135 46.9563517,102.580645 34.4964346,102.580645 C16.2091681,102.580645 0,89.2830848 0,66.4279029 C0,45.0963998 15.7935484,30.9677419 32.8339559,30.9677419 Z M32.8343906,44.516129 C22.9085247,44.516129 17.1457143,51.858309 16.4743988,58.7731664 L16.4516129,59.0322581 L49.3548387,59.0322581 C49.0794979,51.3709677 43.8480227,44.516129 32.8343906,44.516129 Z" id="e"></path>
                        <path d="M85.8735484,100.645161 C87.1277419,98.5548387 99.8090323,80.0206452 101.202581,77.9303226 L116.949677,100.645161 L135.901935,100.645161 L111.236129,66.0851613 L135.065806,32.7793548 L116.670968,32.7793548 L101.899355,54.5187097 C101.247174,53.5042065 97.5804697,48.2316883 94.0343461,43.1098963 L93.4901628,42.323712 C90.41664,37.882145 87.5569548,33.7269677 86.9883871,32.7793548 L67.7574194,32.7793548 L92.0051613,66.363871 L67.3393548,100.645161 L85.8735484,100.645161 Z" id="x"></path>
                        <path d="M168.462773,30.9677419 C189.235973,30.9677419 197.258583,42.5073233 197.416958,55.7751266 L197.419355,56.1777001 L197.419355,100.502901 L182.452398,100.502901 L182.45146,91.9148936 C179.234062,97.039995 172.519492,102.580645 161.46843,102.580645 C147.199969,102.580645 138.387097,92.8845074 138.387097,82.2187558 C138.387097,70.8214362 146.395066,64.2561599 157.085783,62.1713906 L157.827262,62.0347126 C158.075797,61.9915182 158.325684,61.9506874 158.57686,61.9122159 L176.436325,59.2250577 C180.353157,58.6709927 181.472252,56.7317651 181.472252,54.3769888 C181.472252,48.6978224 177.55542,44.126786 168.60266,44.126786 C160.196921,44.126786 155.672719,45.2081708 151.497518,52.0888141 L142.679751,44.2120388 C147.082132,36.5984994 156.10442,30.9677419 168.462773,30.9677419 Z M181.935484,69.6774194 L164.012097,72.2863993 C158.931452,73.1102877 154.83871,75.8565824 154.83871,81.3491718 C154.83871,85.880558 158.366935,90 164.858871,90 C165.142584,90 165.425082,89.9959283 165.706169,89.9876508 L166.266403,89.9654484 C166.545521,89.9515036 166.823097,89.9332637 167.098935,89.9105946 L167.648235,89.859311 L168.192551,89.795978 L168.462731,89.7597184 L168.998916,89.6778643 C176.198677,88.4880135 181.797486,83.8412524 181.932971,73.0989969 L181.935484,72.6983435 L181.935484,69.6774194 Z" id="a"></path>
                        <polygon id="l" points="226.451613 100.645161 226.451613 0 210 0 210 100.645161"></polygon>
                        <path d="M239.032258,12.5806452 L254.884943,12.5806452 L254.884943,33.2438951 L268.893559,33.2438951 L268.893559,47.5278866 L254.884943,47.5278866 L254.884943,78.8694604 C254.884943,84.8326801 257.520227,87.3289117 263.484291,87.3289117 C265.614711,87.3289117 268.128605,86.9454905 268.939869,86.792122 L269.032258,86.7741935 L269.032258,100.087428 C268.061364,100.503467 265.009982,101.612903 259.184617,101.612903 C246.831722,101.612903 239.096866,94.2794105 238.937063,81.8970684 L238.934538,81.5043714 L238.935258,62.9026452 L239.032258,62.9032258 L239.032258,12.5806452 Z" id="t"></path>
                    </g>
                </g>
            </g>
        </g>
    </g>
</svg>