<?xml version="1.0" encoding="UTF-8"?>
<svg width="31px" height="31px" viewBox="0 0 31 31" version="1.1" xmlns="http://www.w3.org/2000/svg" xmlns:xlink="http://www.w3.org/1999/xlink">
    <!-- Generator: Sketch 51 (57462) - http://www.bohemiancoding.com/sketch -->
    <title>assets/facebook</title>
    <desc>Created with Sketch.</desc>
    <defs></defs>
    <g id="assets/facebook" stroke="none" stroke-width="1" fill="none" fill-rule="evenodd">
        <path d="M19.35454,16.0456 L16.833,16.0456 L16.833,25.03374 L13.09626,25.03374 L13.09626,16.0456 L11.31996,16.0456 L11.31996,12.86872 L13.09626,12.86872 L13.09626,10.81404 C13.09626,9.34216 13.79562,7.0432 16.8671,7.0432 L19.63602,7.05374 L19.63602,10.13762 L17.6266,10.13762 C17.29986,10.13762 16.83424,10.30068 16.83424,11.00252 L16.83424,12.86934 L19.68128,12.86934 L19.35454,16.0456 Z M15.5,0 C6.9533,0 0,6.9533 0,15.5 C0,24.04608 6.9533,31 15.5,31 C24.04608,31 31,24.04608 31,15.5 C31,6.9533 24.04732,0 15.5,0 L15.5,0 Z" fill="#F7F9FA"></path>
    </g>
</svg>