<?xml version="1.0" encoding="UTF-8"?>
<svg width="125px" height="63px" viewBox="0 0 125 63" version="1.1" xmlns="http://www.w3.org/2000/svg" xmlns:xlink="http://www.w3.org/1999/xlink">
    <!-- Generator: Sketch 51 (57462) - http://www.bohemiancoding.com/sketch -->
    <title>logo_5_color</title>
    <desc>Created with Sketch.</desc>
    <defs></defs>
    <g id="Symbols" stroke="none" stroke-width="1" fill="none" fill-rule="evenodd">
        <g id="our_clients_assets" transform="translate(-113.000000, -423.000000)">
            <g id="logo_5_color" transform="translate(113.000000, 423.000000)">
                <path d="M125.00047,16.8732529 C125.00047,15.7123853 124.041823,14.7673853 122.864192,14.7673853 L10.0117481,14.7673853 C8.83317669,14.7673853 7.87546992,15.7123853 7.87546992,16.8732529 L7.87546992,35.4777088 C7.87546992,36.1975765 7.28242481,36.7831059 6.5531015,36.7831059 L5.59727444,36.7831059 C4.86795113,36.7831059 4.27396617,36.1975765 4.27396617,35.4777088 L4.27396617,5.51657647 C4.27396617,4.79763529 4.86795113,4.21210588 5.59727444,4.21210588 L26.612312,4.21210588 C27.3416353,4.21210588 27.9356203,4.79763529 27.9356203,5.51657647 L27.9356203,6.37263529 C27.9356203,7.09157647 27.3416353,7.67710588 26.612312,7.67710588 L10.0117481,7.67710588 C8.83317669,7.67710588 7.87546992,8.62210588 7.87546992,9.7839 C7.87546992,10.9456941 8.83317669,11.8897676 10.0117481,11.8897676 L26.612312,11.8897676 C29.6978383,11.8897676 32.2081767,9.41516471 32.2081767,6.37263529 L32.2081767,5.51657647 C32.2081767,2.47497353 29.6978383,0.000370588236 26.612312,0.000370588236 L5.59727444,0.000370588236 C2.51080827,0.000370588236 0.000469924812,2.47497353 0.000469924812,5.51657647 L0.000469924812,35.4777088 C0.000469924812,38.5202382 2.51080827,40.9948412 5.59727444,40.9948412 L6.5531015,40.9948412 C9.63862782,40.9948412 12.1489662,38.5202382 12.1489662,35.4777088 L12.1489662,18.9791206 L122.864192,18.9791206 C124.041823,18.9791206 125.00047,18.0341206 125.00047,16.8732529" id="Fill-1" fill="#96CA50"></path>
                <path d="M50.3067669,36.5923456 C49.6554511,37.303875 48.8199248,37.6596397 47.8030075,37.6596397 C46.7860902,37.6596397 45.9505639,37.303875 45.2992481,36.5923456 C44.6469925,35.8817426 44.3208647,34.9599044 44.3208647,33.8277574 C44.3208647,32.6965368 44.6469925,31.7709926 45.2992481,31.051125 C45.9505639,30.3312574 46.7860902,29.9708603 47.8030075,29.9708603 C48.8199248,29.9708603 49.6554511,30.3312574 50.3067669,31.051125 C50.9590226,31.7709926 51.2851504,32.6965368 51.2851504,33.8277574 C51.2851504,34.9599044 50.9590226,35.8817426 50.3067669,36.5923456 M47.8030075,26.6800368 C45.6723684,26.6800368 43.9035714,27.3702574 42.4947368,28.7497721 C41.0859023,30.1302132 40.3819549,31.822875 40.3819549,33.8277574 C40.3819549,35.8335662 41.0859023,37.5225221 42.4947368,38.8936985 C43.9035714,40.2658015 45.6723684,40.9504632 47.8030075,40.9504632 C49.9327068,40.9504632 51.7024436,40.2658015 53.1112782,38.8936985 C54.5201128,37.5225221 55.2240602,35.8335662 55.2240602,33.8277574 C55.2240602,31.822875 54.5201128,30.1302132 53.1112782,28.7497721 C51.7024436,27.3702574 49.9327068,26.6800368 47.8030075,26.6800368" id="Fill-4" fill="#000000"></path>
                <path d="M37.5255639,27.2968809 C36.768985,27.6915574 36.1383459,28.1705426 35.6336466,28.7366162 L35.6336466,26.9114691 L31.7210526,26.9114691 L31.7210526,40.7446015 L35.6336466,40.7446015 L35.6336466,34.7540426 C35.6336466,33.4162191 35.9212406,32.3405868 36.4945489,31.5262191 C37.068797,30.7127779 37.9381579,30.3051309 39.1035714,30.3051309 L39.8601504,30.3051309 L39.8338346,26.6798515 C39.0509398,26.6965279 38.2821429,26.9022044 37.5255639,27.2968809" id="Fill-6" fill="#000000"></path>
                <polygon id="Fill-8" fill="#000000" points="17.1921992 40.7447868 21.2617481 40.7447868 21.2617481 33.6999044 29.2955827 33.6999044 29.2955827 30.1765368 21.2617481 30.1765368 21.2617481 26.2936985 29.7128759 26.2936985 29.7128759 22.7712574 17.1921992 22.7712574"></polygon>
                <path d="M64.9799812,26.6798515 C63.5015977,26.6798515 62.1717105,27.2709397 60.9893797,28.4540426 L60.9893797,26.9114691 L57.0758459,26.9114691 L57.0758459,40.7446015 L60.9893797,40.7446015 L60.9893797,33.0308074 C60.9893797,31.9505426 61.2797932,31.1324691 61.8625,30.5756603 C62.4452068,30.017925 63.1275376,29.7390574 63.9104323,29.7390574 C65.4931391,29.7390574 66.2844925,30.8026456 66.2844925,32.9279691 L66.2844925,40.7446015 L70.1970865,40.7446015 L70.1970865,32.3368809 C70.1970865,30.6229103 69.6970865,29.2508074 68.6970865,28.222425 C67.6970865,27.1940426 66.4583647,26.6798515 64.9799812,26.6798515" id="Fill-10" fill="#000000"></path>
                <path d="M78.5701128,37.58265 C78.187594,37.58265 77.8567669,37.4325618 77.5785714,37.1323853 C77.3003759,36.8322088 77.1612782,36.41715 77.1612782,35.8853559 L77.1612782,29.6881941 L80.5522556,29.6881941 L80.5522556,26.9115618 L77.1612782,26.9115618 L77.1612782,22.7711647 L73.2223684,22.7711647 L73.2223684,26.9115618 L71.5795113,26.9115618 L71.5795113,29.6881941 L73.2223684,29.6881941 L73.2223684,36.0650912 C73.2223684,37.5743118 73.687594,38.7648265 74.6180451,39.6394147 C75.5484962,40.5140029 76.687594,40.9503706 78.0353383,40.9503706 C79.3830827,40.9503706 80.6659774,40.4028265 81.8830827,39.3049588 L80.4225564,36.6052235 C79.9178571,37.2565324 79.3003759,37.58265 78.5701128,37.58265" id="Fill-12" fill="#000000"></path>
                <path d="M103.97594,26.6798515 C102.497556,26.6798515 101.167669,27.2709397 99.9853383,28.4540426 L99.9853383,26.9114691 L96.0727444,26.9114691 L96.0727444,40.7446015 L99.9853383,40.7446015 L99.9853383,33.0308074 C99.9853383,31.9505426 100.275752,31.1324691 100.859398,30.5756603 C101.441165,30.017925 102.124436,29.7390574 102.906391,29.7390574 C104.489098,29.7390574 105.280451,30.8026456 105.280451,32.9279691 L105.280451,40.7446015 L109.193045,40.7446015 L109.193045,32.3368809 C109.193045,30.6229103 108.693045,29.2508074 107.693045,28.222425 C106.693045,27.1940426 105.454323,26.6798515 103.97594,26.6798515" id="Fill-14" fill="#000000"></path>
                <path d="M114.879135,32.4395338 C114.984398,31.6511074 115.357519,31.0248132 116.001316,30.5625044 C116.644173,30.0992691 117.35282,29.8676515 118.127256,29.8676515 C118.900752,29.8676515 119.557707,30.0909309 120.096241,30.5365632 C120.635714,30.9821956 120.948684,31.6168279 121.03609,32.4395338 L114.879135,32.4395338 Z M122.978759,28.401975 C121.631015,27.2540779 119.991917,26.6796662 118.062406,26.6796662 C116.131955,26.6796662 114.458083,27.3226368 113.040789,28.6076515 C111.622556,29.8935926 110.91485,31.6251662 110.91485,33.8023721 C110.91485,35.9795779 111.610338,37.7148574 113.001316,39.0091368 C114.392293,40.3034162 116.153571,40.9500926 118.283271,40.9500926 C120.41391,40.9500926 122.270113,40.2135485 123.85282,38.7395338 L121.66203,36.3992691 C120.774812,37.3081368 119.644173,37.7621074 118.271053,37.7621074 C117.418609,37.7621074 116.653571,37.5221515 115.975,37.0422397 C115.297368,36.5623279 114.896992,35.9452985 114.774812,35.190225 L125.000376,35.190225 L125.000376,33.1334603 C125.000376,31.1276515 124.326504,29.5507985 122.978759,28.401975 Z" id="Fill-16" fill="#000000"></path>
                <path d="M91.4554511,21.2793618 C90.812594,21.2793618 90.2684211,21.4980088 89.8257519,21.9353029 C89.3821429,22.3725971 89.1603383,22.9080971 89.1603383,23.5427294 C89.1603383,24.1764353 89.3821429,24.7119353 89.8257519,25.1492294 C90.2684211,25.5865235 90.812594,25.8051706 91.4554511,25.8051706 C92.0992481,25.8051706 92.6424812,25.5865235 93.0860902,25.1492294 C93.5296992,24.7119353 93.7515038,24.1764353 93.7515038,23.5427294 C93.7515038,22.9080971 93.5296992,22.3725971 93.0860902,21.9353029 C92.6424812,21.4980088 92.0992481,21.2793618 91.4554511,21.2793618" id="Fill-19" fill="#000000"></path>
                <polygon id="Fill-21" fill="#000000" points="82.9257519 40.7457132 86.8383459 40.7457132 86.8383459 21.6659779 82.9257519 21.6659779"></polygon>
                <polygon id="Fill-23" fill="#000000" points="89.5 40.7457132 93.412594 40.7457132 93.412594 26.9116544 89.5 26.9116544"></polygon>
                <g id="Group-27" transform="translate(15.977444, 47.250000)" fill="#000000">
                    <path d="M0.624559445,0.515258789 L2.18896852,0.515258789 L2.18896852,11.8125 L0.624559445,11.8125 L0.624559445,0.515258789 Z M5.11386868,3.5760498 L6.44478386,3.5760498 L6.44478386,4.74499512 C6.83913107,4.26305911 7.25682152,3.91699324 7.69786774,3.70678711 C8.13891396,3.49658098 8.62924623,3.39147949 9.16887925,3.39147949 C10.3519209,3.39147949 11.1509809,3.79906819 11.5660832,4.61425781 C11.7943895,5.06030496 11.9085409,5.69860425 11.9085409,6.5291748 L11.9085409,11.8125 L10.4842282,11.8125 L10.4842282,6.62145996 C10.4842282,6.11901604 10.408992,5.7139908 10.2585174,5.40637207 C10.009456,4.89367419 9.55803901,4.6373291 8.90425284,4.6373291 C8.57217098,4.6373291 8.29976417,4.67065396 8.08702422,4.73730469 C7.70305457,4.85009822 7.36578899,5.0756819 7.07521736,5.4140625 C6.84172231,5.68579237 6.68995279,5.96649025 6.61990428,6.25616455 C6.54985576,6.54583885 6.51483203,6.95983618 6.51483203,7.49816895 L6.51483203,11.8125 L5.11386868,11.8125 L5.11386868,3.5760498 Z M15.7751998,8.16723633 C15.8115212,8.80810867 15.9645879,9.32848921 16.2344044,9.72839355 C16.7480935,10.4769325 17.6535219,10.8511963 18.9507167,10.8511963 C19.5318599,10.8511963 20.0611075,10.7691659 20.5384751,10.6051025 C21.4620778,10.2872299 21.9238722,9.71814375 21.9238722,8.89782715 C21.9238722,8.2825897 21.7292959,7.84423959 21.3401375,7.58276367 C20.9457903,7.32641473 20.3283348,7.1033945 19.4877526,6.91369629 L17.9389098,6.56762695 C16.9270979,6.34203989 16.2110571,6.09338515 15.790766,5.82165527 C15.064337,5.34997323 14.7011279,4.64502422 14.7011279,3.70678711 C14.7011279,2.69164531 15.0565539,1.85852376 15.7674166,1.20739746 C16.4782794,0.556271158 17.4848874,0.230712891 18.787271,0.230712891 C19.9858789,0.230712891 21.0041615,0.516537669 21.8421494,1.0881958 C22.6801372,1.65985393 23.0991248,2.57372419 23.0991248,3.82983398 L21.6436796,3.82983398 C21.5658479,3.22485049 21.3998094,2.76086587 21.1455593,2.43786621 C20.6733804,1.84826365 19.871726,1.5534668 18.7405722,1.5534668 C17.8273471,1.5534668 17.1709764,1.74316217 16.7714404,2.12255859 C16.3719044,2.50195502 16.1721394,2.94286858 16.1721394,3.4453125 C16.1721394,3.99902621 16.4056309,4.40405145 16.8726211,4.66040039 C17.178759,4.82446371 17.8714506,5.02953979 18.9507167,5.27563477 L20.5540414,5.63708496 C21.3271695,5.81140224 21.9238701,6.04980318 22.3441612,6.35229492 C23.0705903,6.88037373 23.4337994,7.64684556 23.4337994,8.6517334 C23.4337994,9.90271622 22.9733022,10.7973606 22.0522939,11.3356934 C21.1312856,11.8740261 20.061116,12.1431885 18.8417529,12.1431885 C17.4200274,12.1431885 16.307051,11.7843053 15.5027902,11.0665283 C14.6985295,10.3538783 14.3041882,9.38745727 14.3197545,8.16723633 L15.7751998,8.16723633 Z M25.8060973,3.61450195 L27.2304101,3.61450195 L27.2304101,11.8125 L25.8060973,11.8125 L25.8060973,3.61450195 Z M25.8060973,0.515258789 L27.2304101,0.515258789 L27.2304101,2.08410645 L25.8060973,2.08410645 L25.8060973,0.515258789 Z M32.8871888,3.42993164 C33.5409749,3.42993164 34.1117321,3.5888656 34.5994773,3.90673828 C34.864105,4.08618254 35.1339175,4.34765453 35.4089228,4.69116211 L35.4089228,3.6529541 L36.7009223,3.6529541 L36.7009223,11.1434326 C36.7009223,12.1893363 36.5452613,13.0147675 36.2339345,13.619751 C35.6527913,14.7374323 34.555381,15.2962646 32.9416707,15.2962646 C32.0440119,15.2962646 31.2890559,15.0975972 30.6767799,14.7002563 C30.064504,14.3029155 29.7220497,13.6812786 29.6494068,12.8353271 L31.0737195,12.8353271 C31.1411737,13.2044696 31.2760799,13.4890127 31.4784423,13.6889648 C31.7949578,13.9965836 32.2930731,14.1503906 32.9728032,14.1503906 C34.0468805,14.1503906 34.7499495,13.7761268 35.0820313,13.0275879 C35.2792049,12.5866677 35.3700072,11.7996883 35.3544409,10.666626 C35.0742468,11.0870382 34.7369812,11.3997792 34.342634,11.6048584 C33.9482868,11.8099375 33.4268223,11.9124756 32.778225,11.9124756 C31.8753774,11.9124756 31.0853976,11.5958894 30.408262,10.9627075 C29.7311263,10.3295256 29.3925635,9.28235594 29.3925635,7.82116699 C29.3925635,6.44200971 29.7337206,5.36536032 30.4160451,4.59118652 C31.0983695,3.81701273 31.9220759,3.42993164 32.8871888,3.42993164 Z M35.4089228,7.65966797 C35.4089228,6.6393992 35.196186,5.88318117 34.7707062,5.39099121 C34.3452263,4.89880125 33.803007,4.65270996 33.144032,4.65270996 C32.158164,4.65270996 31.4836329,5.10900423 31.1204183,6.02160645 C30.9284335,6.50866943 30.8324425,7.14696871 30.8324425,7.93652344 C30.8324425,8.86450659 31.0231273,9.57073732 31.4045026,10.0552368 C31.7858778,10.5397363 32.2982621,10.7819824 32.9416707,10.7819824 C33.9482938,10.7819824 34.6565515,10.3333785 35.0664651,9.43615723 C35.2947714,8.92858633 35.4089228,8.33642917 35.4089228,7.65966797 Z M39.4078949,0.476806641 L40.8088582,0.476806641 L40.8088582,4.69116211 C41.1409401,4.27587683 41.4392904,3.98364342 41.7039181,3.81445312 C42.1553419,3.52221534 42.718316,3.37609863 43.3928573,3.37609863 C44.6018428,3.37609863 45.4216576,3.79394113 45.8523262,4.62963867 C46.0858213,5.08593978 46.2025671,5.71911216 46.2025671,6.5291748 L46.2025671,11.8125 L44.7626881,11.8125 L44.7626881,6.62145996 C44.7626881,6.01647647 44.6848576,5.57299946 44.5291942,5.29101562 C44.274944,4.83984149 43.7975835,4.61425781 43.0970983,4.61425781 C42.5159551,4.61425781 41.9893019,4.81164353 41.517123,5.2064209 C41.0449441,5.60119826 40.8088582,6.34716248 40.8088582,7.44433594 L40.8088582,11.8125 L39.4078949,11.8125 L39.4078949,0.476806641 Z M49.1508166,1.27661133 L50.5673462,1.27661133 L50.5673462,3.5760498 L51.8982614,3.5760498 L51.8982614,4.70654297 L50.5673462,4.70654297 L50.5673462,10.0821533 C50.5673462,10.3692641 50.6659316,10.561523 50.8631052,10.6589355 C50.9720695,10.7153323 51.1536741,10.7435303 51.4079242,10.7435303 C51.4753784,10.7435303 51.5480202,10.7422485 51.6258519,10.7396851 C51.7036836,10.7371216 51.7944858,10.7307129 51.8982614,10.720459 L51.8982614,11.8125 C51.7374093,11.8586428 51.5700737,11.8919677 51.3962496,11.9124756 C51.2224255,11.9329835 51.034335,11.9432373 50.8319727,11.9432373 C50.1781865,11.9432373 49.7345525,11.7778947 49.5010575,11.4472046 C49.2675624,11.1165145 49.1508166,10.6871364 49.1508166,10.1590576 L49.1508166,4.70654297 L48.0222628,4.70654297 L48.0222628,3.5760498 L49.1508166,3.5760498 L49.1508166,1.27661133 Z M59.2579889,0.515258789 L64.4026376,0.515258789 C65.4196383,0.515258789 66.2394531,0.798520117 66.8621066,1.36505127 C67.4847601,1.93158242 67.7960822,2.72753394 67.7960822,3.75292969 C67.7960822,4.63477003 67.5184867,5.40252359 66.9632873,6.05621338 C66.408088,6.70990317 65.5545466,7.03674316 64.4026376,7.03674316 L60.8068317,7.03674316 L60.8068317,11.8125 L59.2579889,11.8125 L59.2579889,0.515258789 Z M66.2316731,3.76062012 C66.2316731,2.93004956 65.920351,2.36609035 65.2976976,2.06872559 C64.9552381,1.90978924 64.4856607,1.83032227 63.8889511,1.83032227 L60.8068317,1.83032227 L60.8068317,5.74475098 L63.8889511,5.74475098 C64.5842475,5.74475098 65.1485187,5.59863427 65.5817818,5.30639648 C66.0150448,5.0141587 66.2316731,4.49890506 66.2316731,3.76062012 Z M75.1573663,0.207641602 C76.6050356,0.207641602 77.7283895,0.584468888 78.5274614,1.33813477 C79.3265334,2.09180064 79.7701674,2.94799325 79.8583766,3.90673828 L78.3484495,3.90673828 C78.1772198,3.1787073 77.8360626,2.60193084 77.3249679,2.1763916 C76.8138732,1.75085236 76.0965352,1.53808594 75.1729325,1.53808594 C74.0469675,1.53808594 73.1376476,1.9290122 72.4449456,2.71087646 C71.7522436,3.49274073 71.4058978,4.69115403 71.4058978,6.30615234 C71.4058978,7.62891286 71.718517,8.70171708 72.3437649,9.52459717 C72.9690128,10.3474773 73.9016818,10.7589111 75.1418,10.7589111 C76.2833314,10.7589111 77.1524389,10.3256879 77.7491485,9.45922852 C78.065664,9.00292741 78.3017499,8.40307989 78.4574133,7.65966797 L79.9673404,7.65966797 C79.8324322,8.84912704 79.3862039,9.84630945 78.6286421,10.6512451 C77.7206058,11.6202441 76.4960723,12.1047363 74.9550049,12.1047363 C73.6266775,12.1047363 72.5111067,11.7074014 71.6082591,10.9127197 C70.4200287,9.86168908 69.8259224,8.23902464 69.8259224,6.04467773 C69.8259224,4.37840964 70.2721507,3.01209029 71.1646207,1.94567871 C72.1297337,0.786981511 73.4606355,0.207641602 75.1573663,0.207641602 Z M86.7448898,5.29101562 C87.398676,5.29101562 87.9071687,5.20129484 88.2703832,5.02185059 C88.8411489,4.73986675 89.1265275,4.23230347 89.1265275,3.49914551 C89.1265275,2.76086057 88.8229885,2.26355109 88.2159013,2.00720215 C87.8734419,1.86364674 87.3649492,1.79187012 86.6904079,1.79187012 L83.9273969,1.79187012 L83.9273969,5.29101562 L86.7448898,5.29101562 Z M87.2663595,10.505127 C88.2159061,10.505127 88.8930316,10.2334012 89.2977563,9.68994141 C89.5520065,9.34643383 89.6791297,8.93115478 89.6791297,8.4440918 C89.6791297,7.6237752 89.3081376,7.06494289 88.5661422,6.76757813 C88.1717949,6.60864178 87.6503305,6.5291748 87.0017331,6.5291748 L83.9273969,6.5291748 L83.9273969,10.505127 L87.2663595,10.505127 Z M82.4096866,0.515258789 L87.3208414,0.515258789 C88.6595464,0.515258789 89.6116731,0.910030232 90.17725,1.69958496 C90.5093319,2.16614003 90.6753703,2.70446472 90.6753703,3.3145752 C90.6753703,4.02722524 90.4704166,4.61169205 90.0605031,5.06799316 C89.8477631,5.30896117 89.5416297,5.52941795 89.1420938,5.72937012 C89.7284258,5.9498302 90.166871,6.19848494 90.4574427,6.4753418 C90.9711318,6.96753176 91.2279725,7.64684625 91.2279725,8.51330566 C91.2279725,9.24133665 90.9970753,9.90014354 90.535274,10.4897461 C89.8451664,11.3715864 88.747756,11.8125 87.2430101,11.8125 L82.4096866,11.8125 L82.4096866,0.515258789 Z" id="InSight-PCB"></path>
                    <path d="M95.6371152,0.638305664 C94.9599796,0.638305664 94.3814394,0.8767066 93.9014773,1.35351562 C93.4241097,1.82776116 93.1854294,2.40069244 93.1854294,3.07232666 C93.1854294,3.74908786 93.4228125,4.32586432 93.8975858,4.80267334 C94.3749534,5.27948236 94.9547908,5.5178833 95.6371152,5.5178833 C96.3194397,5.5178833 96.8992771,5.27948236 97.3766447,4.80267334 C97.8540124,4.32586432 98.0926927,3.74908786 98.0926927,3.07232666 C98.0926927,2.40069244 97.8540124,1.82776116 97.3766447,1.35351562 C96.8966827,0.8767066 96.3168453,0.638305664 95.6371152,0.638305664 Z M98.4974154,3.07232666 C98.4974154,3.85419092 98.2185227,4.52196989 97.660729,5.07568359 C97.1029352,5.6293973 96.4284041,5.90625 95.6371152,5.90625 C94.8458264,5.90625 94.1725925,5.6293973 93.6173931,5.07568359 C93.0647881,4.52453338 92.7884898,3.85675441 92.7884898,3.07232666 C92.7884898,2.29558938 93.0673825,1.63165559 93.6251762,1.08050537 C94.1803756,0.531918644 94.8510152,0.257629395 95.6371152,0.257629395 C96.4284041,0.257629395 97.1029352,0.531918644 97.660729,1.08050537 C98.2185227,1.6290921 98.4974154,2.29302589 98.4974154,3.07232666 Z M96.3842957,2.45709229 C96.3842957,2.23150522 96.3148968,2.08026161 96.176097,2.00335693 C96.0372971,1.92645225 95.8148316,1.88800049 95.5086936,1.88800049 L95.0378143,1.88800049 L95.0378143,3.01080322 L95.5359346,3.01080322 C95.7694296,3.01080322 95.9445483,2.98773216 96.0612958,2.94158936 C96.2766301,2.85699421 96.3842957,2.6954968 96.3842957,2.45709229 Z M96.1627788,3.17225444 C96.162678,3.17227038 96.1625773,3.17228631 96.1624765,3.17230225 C96.168866,3.17329909 96.1752109,3.17433814 96.1815115,3.17541941 L96.1627788,3.17225444 Z M96.1815115,3.17541941 C96.4182477,3.21604677 96.5922102,3.3162641 96.703404,3.47607422 C96.8175572,3.64013754 96.8746329,3.80035322 96.8746329,3.95672607 L96.8746329,4.18359375 C96.8746329,4.25537145 96.8772272,4.33227498 96.882416,4.41430664 C96.8876048,4.4963383 96.896685,4.55017077 96.909657,4.57580566 L96.9291148,4.61425781 L96.4115367,4.61425781 L96.4037535,4.58349609 C96.4011591,4.57324214 96.3985648,4.56170661 96.3959704,4.54888916 L96.3842957,4.44891357 L96.3842957,4.20281982 C96.3842957,3.84393131 96.2857104,3.6068121 96.0885368,3.49145508 C95.9717892,3.42480435 95.7668355,3.39147949 95.4736695,3.39147949 L95.0378143,3.39147949 L95.0378143,4.61425781 L94.4852121,4.61425781 L94.4852121,1.51501465 L95.5826333,1.51501465 C95.9717918,1.51501465 96.2571703,1.55218469 96.4387776,1.62652588 C96.7630763,1.75982733 96.9252232,2.02129932 96.9252232,2.41094971 C96.9252232,2.68780656 96.8227464,2.89160091 96.6177896,3.02233887 C96.5088817,3.09151723 96.3572129,3.14148859 96.1627788,3.17225444 L96.1815115,3.17541941 Z" id="®"></path>
                </g>
            </g>
        </g>
    </g>
</svg>