<?xml version="1.0" encoding="UTF-8"?>
<svg width="220px" height="45px" viewBox="0 0 220 45" version="1.1" xmlns="http://www.w3.org/2000/svg" xmlns:xlink="http://www.w3.org/1999/xlink">
    <!-- Generator: Sketch 51 (57462) - http://www.bohemiancoding.com/sketch -->
    <title>logo_10_color</title>
    <desc>Created with Sketch.</desc>
    <defs>
        <polygon id="path-1" points="38.7434634 10.6467805 219.511756 10.6467805 219.511756 44.4512195 38.7434634 44.4512195"></polygon>
    </defs>
    <g id="Symbols" stroke="none" stroke-width="1" fill="none" fill-rule="evenodd">
        <g id="our_clients_assets" transform="translate(-429.000000, -679.000000)">
            <g id="logo_10_color" transform="translate(429.000000, 679.000000)">
                <path d="M22.33,2.52439024 C23.43,2.52439024 24.31,3.40243902 24.31,4.5 C24.31,5.59756098 23.43,6.47560976 22.33,6.47560976 C22.33,6.47560976 22.22,6.47560976 22.22,6.47560976 C21.23,6.47560976 20.35,5.59756098 20.35,4.6097561 C20.35,4.06097561 20.57,3.51219512 20.9,3.18292683 C21.23,2.74390244 21.78,2.52439024 22.33,2.52439024 Z M22.33,0 C19.8,0 17.71,2.19512195 17.82,4.7195122 C17.93,7.02439024 19.8,8.8902439 22.11,9 C22.22,9 22.22,9 22.33,9 C24.86,9 26.84,6.91463415 26.84,4.5 C26.84,2.08536585 24.75,0 22.33,0 Z" id="Shape" fill="#808184"></path>
                <path d="M19.25,31.7195122 C21.78,31.7195122 23.87,33.804878 23.87,36.3292683 C23.87,38.8536585 21.78,40.9390244 19.25,40.9390244 L14.3,40.9390244 C11.77,40.9390244 9.68,38.8536585 9.68,36.3292683 C9.68,33.804878 11.77,31.7195122 14.3,31.7195122 L19.25,31.7195122 Z M19.25,28.6463415 L14.3,28.6463415 C10.12,28.6463415 6.71,32.0487805 6.71,36.2195122 C6.71,40.3902439 10.12,43.7926829 14.3,43.7926829 L19.25,43.7926829 C23.43,43.7926829 26.84,40.3902439 26.84,36.2195122 C26.84,32.0487805 23.43,28.6463415 19.25,28.6463415 Z" id="Shape" fill="#808184"></path>
                <path d="M19.25,13.9390244 C21.78,13.9390244 23.87,16.0243902 23.87,18.5487805 C23.87,21.0731707 21.78,23.1585366 19.25,23.1585366 L7.59,23.1585366 C5.06,23.1585366 2.97,21.0731707 2.97,18.5487805 C2.97,16.0243902 5.06,13.9390244 7.59,13.9390244 L19.25,13.9390244 Z M19.25,10.9756098 L7.59,10.9756098 C3.41,10.9756098 0,14.3780488 0,18.5487805 C0,22.7195122 3.41,26.1219512 7.59,26.1219512 L19.25,26.1219512 C23.43,26.1219512 26.84,22.7195122 26.84,18.5487805 C26.84,14.3780488 23.43,10.9756098 19.25,10.9756098 Z" id="Shape" fill="#808184"></path>
                <path d="M214.61,11.4146341 L213.51,11.4146341 L213.51,10.9756098 L216.15,10.9756098 L216.15,11.4146341 L215.05,11.4146341 L215.05,14.2682927 L214.61,14.2682927 L214.61,11.4146341 Z M218.13,14.2682927 L217.25,11.4146341 L217.25,14.2682927 L216.7,14.2682927 L216.7,10.9756098 L217.47,10.9756098 L218.35,13.7195122 L219.23,10.9756098 L220,10.9756098 L220,14.2682927 L219.56,14.2682927 L219.56,11.4146341 L218.68,14.2682927 L218.13,14.2682927 Z M85.91,43.7926829 L85.91,40.5 L70.73,40.5 L70.73,28.7560976 L84.37,28.7560976 L84.37,25.5731707 L70.73,25.5731707 L70.73,14.2682927 L85.91,14.2682927 L85.91,10.9756098 L67.43,10.9756098 L67.43,43.7926829 L85.91,43.7926829 Z M140.47,43.7926829 L140.47,40.5 L125.29,40.5 L125.29,28.7560976 L138.93,28.7560976 L138.93,25.5731707 L125.29,25.5731707 L125.29,14.2682927 L140.47,14.2682927 L140.47,10.9756098 L121.99,10.9756098 L121.99,43.7926829 L140.47,43.7926829 Z M180.62,43.7926829 L180.62,30.1829268 L191.73,10.9756098 L188.1,10.9756098 L179.08,26.6707317 L169.95,10.9756098 L166.21,10.9756098 L177.32,30.1829268 L177.32,43.7926829 L180.62,43.7926829 Z M115.17,43.7926829 L115.17,10.9756098 L111.87,10.9756098 L111.87,37.7560976 L95.59,10.9756098 L92.29,10.9756098 L92.29,43.7926829 L95.59,43.7926829 L95.59,17.0121951 L111.87,43.7926829 L115.17,43.7926829 Z M50.05,29.7439024 L57.97,29.7439024 L57.97,32.3780488 C57.97,38.8536585 53.9,41.0487805 50.05,41.0487805 C46.2,41.0487805 42.13,38.7439024 42.13,32.3780488 L42.13,22.6097561 C42.13,16.1341463 46.2,13.9390244 50.05,13.9390244 C54.23,13.9390244 57.09,16.4634146 57.75,20.6341463 L61.05,20.6341463 C60.28,14.597561 55.99,10.6463415 50.05,10.6463415 C43.34,10.6463415 38.83,15.4756098 38.83,22.6097561 L38.83,32.4878049 C38.83,39.6219512 43.34,44.4512195 50.05,44.4512195 C56.76,44.4512195 61.27,39.6219512 61.27,32.4878049 L61.27,26.6707317 L50.05,26.6707317 L50.05,29.7439024 Z M144.54,33.9146341 C144.65,38.6341463 147.73,44.3414634 155.21,44.3414634 C161.26,44.3414634 165,40.9390244 165,35.3414634 C165,30.2926829 161.59,27.5487805 158.4,26.6707317 L152.68,25.1341463 C149.93,24.3658537 148.39,22.3902439 148.39,19.5365854 C148.39,16.1341463 150.81,13.8292683 154.55,13.8292683 C158.07,13.8292683 160.49,15.804878 161.26,19.6463415 L164.56,19.6463415 C163.9,15.1463415 161.04,10.6463415 154.55,10.6463415 C148.94,10.6463415 145.09,14.2682927 145.09,19.5365854 C145.09,23.9268293 147.51,27.3292683 151.58,28.4268293 L157.08,29.9634146 C159.94,30.7317073 161.59,32.7073171 161.59,35.4512195 C161.59,39.1829268 159.28,41.1585366 155.1,41.1585366 C150.92,41.1585366 148.06,38.4146341 147.73,34.0243902 L144.54,33.9146341 Z M193.16,33.9146341 C193.27,38.6341463 196.35,44.3414634 203.83,44.3414634 C209.88,44.3414634 213.62,40.9390244 213.62,35.3414634 C213.62,30.2926829 210.21,27.5487805 207.02,26.6707317 L201.3,25.1341463 C198.55,24.3658537 197.01,22.3902439 197.01,19.5365854 C197.01,16.1341463 199.43,13.8292683 203.17,13.8292683 C206.69,13.8292683 209.11,15.804878 209.88,19.6463415 L213.18,19.6463415 C212.52,15.1463415 209.66,10.6463415 203.17,10.6463415 C197.56,10.6463415 193.71,14.2682927 193.71,19.5365854 C193.71,23.9268293 196.13,27.3292683 200.2,28.4268293 L205.7,29.9634146 C208.56,30.7317073 210.21,32.7073171 210.21,35.4512195 C210.21,39.1829268 207.9,41.1585366 203.72,41.1585366 C199.54,41.1585366 196.68,38.4146341 196.35,34.0243902 L193.16,33.9146341 Z" id="Shape" fill="#808184"></path>
                <path d="M22.2802683,0 C19.755878,0 17.6705122,2.19512195 17.7802683,4.7195122 C17.8900244,7.02439024 19.755878,8.8902439 22.0607561,9 L22.2802683,9 C24.8046585,9 26.7802683,6.91463415 26.7802683,4.5 C26.7802683,2.08536585 24.6949024,0 22.2802683,0 M22.2802683,2.52439024 C23.3778293,2.52439024 24.255878,3.40243902 24.255878,4.5 C24.255878,5.59756098 23.3778293,6.47560976 22.2802683,6.47560976 L22.1705122,6.47560976 C21.1827073,6.47560976 20.3046585,5.59756098 20.3046585,4.6097561 C20.3046585,4.06097561 20.5241707,3.51219512 20.853439,3.18292683 C21.1827073,2.74390244 21.7314878,2.52439024 22.2802683,2.52439024" id="Fill-1" fill="#FF4F1F"></path>
                <path d="M19.2073171,28.6459024 L14.2682927,28.6459024 C10.097561,28.6459024 6.69512195,32.049439 6.69512195,36.2190732 C6.69512195,40.3898049 10.097561,43.7933415 14.2682927,43.7933415 L19.2073171,43.7933415 C23.3780488,43.7933415 26.7804878,40.3898049 26.7804878,36.2190732 C26.7804878,32.049439 23.3780488,28.6459024 19.2073171,28.6459024 M19.2073171,31.7201707 C21.7317073,31.7201707 23.8170732,33.804439 23.8170732,36.3288293 C23.8170732,38.8543171 21.7317073,40.9385854 19.2073171,40.9385854 L14.2682927,40.9385854 C11.7439024,40.9385854 9.65853659,38.8543171 9.65853659,36.3288293 C9.65853659,33.804439 11.7439024,31.7201707 14.2682927,31.7201707 L19.2073171,31.7201707" id="Fill-3" fill="#FF4F1F"></path>
                <path d="M19.2073171,10.9756098 L7.57317073,10.9756098 C3.40243902,10.9756098 0,14.3780488 0,18.5487805 C0,22.7195122 3.40243902,26.1219512 7.57317073,26.1219512 L19.2073171,26.1219512 C23.3780488,26.1219512 26.7804878,22.7195122 26.7804878,18.5487805 C26.7804878,14.3780488 23.3780488,10.9756098 19.2073171,10.9756098 M19.2073171,13.9390244 C21.7317073,13.9390244 23.8170732,16.0243902 23.8170732,18.5487805 C23.8170732,21.0731707 21.7317073,23.1585366 19.2073171,23.1585366 L7.57317073,23.1585366 C5.04878049,23.1585366 2.96341463,21.0731707 2.96341463,18.5487805 C2.96341463,16.0243902 5.04878049,13.9390244 7.57317073,13.9390244 L19.2073171,13.9390244" id="Fill-5" fill="#FF4F1F"></path>
                <mask id="mask-2" fill="white">
                    <use xlink:href="#path-1"></use>
                </mask>
                <g id="Clip-8"></g>
                <path d="M192.731268,33.9150732 C192.842122,38.6345854 195.914195,44.3419024 203.37761,44.3419024 C209.414195,44.3419024 213.147,40.9383659 213.147,35.3419024 C213.147,30.2920244 209.743463,27.548122 206.561634,26.6700732 L200.85322,25.1345854 C198.109317,24.3662927 196.572732,22.3906829 196.572732,19.5359268 C196.572732,16.1345854 198.987366,13.8297073 202.720171,13.8297073 C206.232366,13.8297073 208.645902,15.8053171 209.414195,19.6467805 L212.706878,19.6467805 C212.049439,15.1456829 209.194683,10.6467805 202.720171,10.6467805 C197.121512,10.6467805 193.280049,14.2687317 193.280049,19.5359268 C193.280049,23.9261707 195.694683,27.3297073 199.755659,28.4272683 L205.243463,29.9627561 C208.097122,30.7321463 209.743463,32.7066585 209.743463,35.450561 C209.743463,39.1833659 207.438585,41.1589756 203.268951,41.1589756 C199.09822,41.1589756 196.243463,38.4150732 195.914195,34.0248293 L192.731268,33.9150732 Z M144.220171,33.9150732 C144.328829,38.6345854 147.402,44.3419024 154.865415,44.3419024 C160.902,44.3419024 164.633707,40.9383659 164.633707,35.3419024 C164.633707,30.2920244 161.232366,27.548122 158.048341,26.6700732 L152.341024,25.1345854 C149.597122,24.3662927 148.061634,22.3906829 148.061634,19.5359268 C148.061634,16.1345854 150.475171,13.8297073 154.206878,13.8297073 C157.720171,13.8297073 160.134805,15.8053171 160.902,19.6467805 L164.194683,19.6467805 C163.536146,15.1456829 160.683585,10.6467805 154.206878,10.6467805 C148.610415,10.6467805 144.768951,14.2687317 144.768951,19.5359268 C144.768951,23.9261707 147.182488,27.3297073 151.243463,28.4272683 L156.731268,29.9627561 C159.586024,30.7321463 161.232366,32.7066585 161.232366,35.450561 C161.232366,39.1833659 158.92639,41.1589756 154.755659,41.1589756 C150.586024,41.1589756 147.731268,38.4150732 147.402,34.0248293 L144.220171,33.9150732 Z M49.9385854,29.7432439 L57.842122,29.7432439 L57.842122,32.3784878 C57.842122,38.8540976 53.7800488,41.0492195 49.9385854,41.0492195 C46.097122,41.0492195 42.0361463,38.7432439 42.0361463,32.3784878 L42.0361463,22.6101951 C42.0361463,16.1345854 46.097122,13.9394634 49.9385854,13.9394634 C54.1093171,13.9394634 56.9629756,16.4638537 57.6215122,20.6334878 L60.9141951,20.6334878 C60.1459024,14.5969024 55.8654146,10.6467805 49.9385854,10.6467805 C43.2434634,10.6467805 38.7434634,15.4760488 38.7434634,22.6101951 L38.7434634,32.4871463 C38.7434634,39.6212927 43.2434634,44.4516585 49.9385854,44.4516585 C56.6337073,44.4516585 61.1348049,39.6212927 61.1348049,32.4871463 L61.1348049,26.6700732 L49.9385854,26.6700732 L49.9385854,29.7432439 Z M114.915293,43.793122 L114.915293,10.9760488 L111.62261,10.9760488 L111.62261,37.7565366 L95.3776098,10.9760488 L92.0849268,10.9760488 L92.0849268,43.793122 L95.3776098,43.793122 L95.3776098,17.0126341 L111.62261,43.793122 L114.915293,43.793122 Z M180.220171,43.793122 L180.220171,30.1833659 L191.304439,10.9760488 L187.682488,10.9760488 L178.682488,26.6700732 L169.572732,10.9760488 L165.841024,10.9760488 L176.927488,30.1833659 L176.927488,43.793122 L180.220171,43.793122 Z M140.159195,43.793122 L140.159195,40.500439 L125.012854,40.500439 L125.012854,28.7565366 L138.621512,28.7565366 L138.621512,25.5725122 L125.012854,25.5725122 L125.012854,14.2687317 L140.159195,14.2687317 L140.159195,10.9760488 L121.720171,10.9760488 L121.720171,43.793122 L140.159195,43.793122 Z M85.7190732,43.793122 L85.7190732,40.500439 L70.5727317,40.500439 L70.5727317,28.7565366 L84.1835854,28.7565366 L84.1835854,25.5725122 L70.5727317,25.5725122 L70.5727317,14.2687317 L85.7190732,14.2687317 L85.7190732,10.9760488 L67.2800488,10.9760488 L67.2800488,43.793122 L85.7190732,43.793122 Z M217.645902,14.2687317 L216.767854,11.4150732 L216.767854,14.2687317 L216.219073,14.2687317 L216.219073,10.9760488 L216.988463,10.9760488 L217.865415,13.7199512 L218.743463,10.9760488 L219.511756,10.9760488 L219.511756,14.2687317 L219.072732,14.2687317 L219.072732,11.4150732 L218.194683,14.2687317 L217.645902,14.2687317 Z M214.133707,11.4150732 L213.036146,11.4150732 L213.036146,10.9760488 L215.670293,10.9760488 L215.670293,11.4150732 L214.572732,11.4150732 L214.572732,14.2687317 L214.133707,14.2687317 L214.133707,11.4150732 Z" id="Fill-7" fill="#4E5054" mask="url(#mask-2)"></path>
            </g>
        </g>
    </g>
</svg>