<?xml version="1.0" encoding="UTF-8"?>
<svg width="89px" height="100px" viewBox="0 0 89 100" version="1.1" xmlns="http://www.w3.org/2000/svg" xmlns:xlink="http://www.w3.org/1999/xlink">
    <!-- Generator: Sketch 51 (57462) - http://www.bohemiancoding.com/sketch -->
    <title>HWDI_icon1</title>
    <desc>Created with Sketch.</desc>
    <defs></defs>
    <g id="Symbols" stroke="none" stroke-width="1" fill="none" fill-rule="evenodd">
        <g id="How-we-do-it" transform="translate(-150.000000, -204.000000)" fill="#619BB9">
            <g id="Group" transform="translate(150.000000, 199.000000)">
                <g id="HWDI_icon1" transform="translate(0.000000, 5.000000)">
                    <path d="M84.7873247,76.1398785 C82.3600355,72.9285425 79.0260213,70.6427126 75.1465077,69.5285425 L64.4460144,66.4564777 C63.4070841,66.1580972 62.3217803,66.7540486 62.0219794,67.7888664 C61.7221785,68.8228745 62.3213736,69.9030364 63.3607106,70.2010121 L74.0612039,73.2730769 C80.2557339,75.0516194 84.5823048,80.7751012 84.5823048,87.1921053 L84.5823048,95.8730769 L25.2107365,95.8730769 C24.1295006,95.8730769 23.252471,96.7455466 23.252471,97.8220648 C23.252471,98.8981781 24.1295006,99.7702429 25.2107365,99.7702429 L86.5401636,99.7702429 C87.6213995,99.7702429 88.4980223,98.8981781 88.4980223,97.8220648 L88.4980223,87.1921053 C88.4980223,83.1730769 87.2150208,79.3516194 84.7873247,76.1398785" id="Fill-1"></path>
                    <path d="M18.8098035,96.4440891 C18.4453237,96.081336 17.9405029,95.8732389 17.4255124,95.8732389 C16.9105219,95.8732389 16.4052943,96.081336 16.0412212,96.4440891 C15.6771482,96.8068421 15.4676536,97.3092713 15.4676536,97.8218219 C15.4676536,98.3343725 15.6771482,98.8368016 16.0412212,99.1995547 C16.4052943,99.5619028 16.9105219,99.7704049 17.4255124,99.7704049 C17.9405029,99.7704049 18.4453237,99.5619028 18.8098035,99.1995547 C19.1742834,98.8368016 19.3833711,98.3343725 19.3833711,97.8218219 C19.3833711,97.3092713 19.1742834,96.8068421 18.8098035,96.4440891" id="Fill-4"></path>
                    <path d="M25.1574883,68.167247 C24.8580942,67.1332389 23.7731972,66.5368826 22.7334533,66.8348583 L13.3517587,69.5283806 C9.47183832,70.6421457 6.13823092,72.9287854 3.71053488,76.1397166 C1.28324563,79.3514575 -0.000162714212,83.172915 -0.000162714212,87.1919433 L-0.000162714212,97.8219028 C-0.000162714212,98.8980162 0.876866886,99.7704858 1.95810282,99.7704858 L9.39821014,99.7704858 C10.4794461,99.7704858 11.3556621,98.8980162 11.3556621,97.8219028 C11.3556621,96.7457895 10.4794461,95.8733198 9.39821014,95.8733198 L3.91555479,95.8733198 L3.91555479,87.1919433 C3.91555479,80.7753441 8.24212567,75.0518623 14.4370625,73.272915 L23.8187571,70.5797976 C24.8580942,70.281417 25.4572893,69.2016599 25.1574883,68.167247" id="Fill-6"></path>
                    <path d="M59.152677,49.7398785 C55.4696408,53.4674089 53.441815,58.458502 53.441815,63.7933198 C53.441815,63.9678138 53.2986264,64.109919 53.1237087,64.109919 L46.2071343,64.109919 L46.2071343,49.884413 C46.2071343,48.8082996 45.3305115,47.9362348 44.2488688,47.9362348 C43.1676329,47.9362348 42.29101,48.8082996 42.29101,49.884413 L42.29101,64.109919 L35.4635217,64.109919 L35.4244703,64.109919 C35.248739,64.109919 35.106364,63.9678138 35.106364,63.792915 C35.106364,58.4544534 33.0805721,53.4661943 29.4028241,49.7479757 C24.2179358,44.5046559 20.6426978,35.0831984 26.1591163,24.3637652 C27.737851,21.2953441 30.1602588,18.8451417 33.1627428,17.2787449 C36.8144565,15.3734818 40.6109858,14.4220648 44.3066323,14.4220648 C48.083636,14.4220648 51.7548754,15.4163968 55.0551264,17.4030364 C61.3684378,21.2038462 65.1381193,27.8512146 65.1381193,35.1848178 C65.1381193,40.6637652 63.0122581,45.8334008 59.152677,49.7398785 Z M51.518533,73.8605263 L51.5181262,73.8605263 C51.5181262,75.3609312 50.2920746,76.5815789 48.7845274,76.5815789 L40.1557928,76.5815789 C38.6482456,76.5815789 37.4213805,75.3609312 37.4213805,73.8605263 L37.4213805,68.0074899 L51.518533,68.0074899 L51.518533,73.8605263 Z M65.7564333,22.8864372 C63.6659624,19.2755061 60.6659192,16.2265182 57.0817319,14.0690283 C49.3511797,9.41477733 39.9702986,9.32732794 31.3448182,13.8273279 C27.6215103,15.7698381 24.6230942,18.7989879 22.6733711,22.5876518 C19.9239077,27.9305668 18.9309443,33.63583 19.8026856,39.087247 C20.6150364,44.1661943 22.969511,48.7981781 26.6122754,52.4815789 C29.5647248,55.467004 31.1902397,59.484413 31.1902397,63.7937247 C31.1902397,65.4301619 32.1327618,66.8504049 33.5052562,67.5479757 L33.5052562,73.8605263 C33.5052562,77.5103239 36.4886213,80.4791498 40.155386,80.4791498 L48.7841207,80.4791498 C52.4508854,80.4791498 55.4338437,77.5103239 55.4338437,73.8605263 L55.4338437,67.3220648 C56.5907417,66.5690283 57.3571257,65.2690283 57.3571257,63.7937247 C57.3571257,59.4876518 58.9863017,55.467004 61.9444461,52.4726721 C66.528919,47.8325911 69.05343,41.692915 69.05343,35.1852227 C69.05343,30.8633603 67.9136169,26.6103239 65.7564333,22.8864372 Z" id="Fill-9"></path>
                    <path d="M44.0531236,39.7520648 C42.9739216,39.7520648 42.0956716,38.8779757 42.0956716,37.8038866 C42.0956716,36.7289879 42.9739216,35.8548988 44.0531236,35.8548988 C45.1327324,35.8548988 46.0109823,36.7289879 46.0109823,37.8038866 C46.0109823,38.8779757 45.1327324,39.7520648 44.0531236,39.7520648 M44.0531236,31.9577328 C40.8142972,31.9577328 38.1795473,34.5804049 38.1795473,37.8038866 C38.1795473,41.0269636 40.8142972,43.6496356 44.0531236,43.6496356 C47.29195,43.6496356 49.9266998,41.0269636 49.9266998,37.8038866 C49.9266998,34.5804049 47.29195,31.9577328 44.0531236,31.9577328" id="Fill-11"></path>
                    <path d="M44.2366652,4.04858299e-05 C43.1550225,4.04858299e-05 42.2788065,0.872105263 42.2788065,1.94821862 L42.2788065,5.99639676 C42.2788065,7.07251012 43.1550225,7.9445749 44.2366652,7.9445749 C45.3179012,7.9445749 46.1941172,7.07251012 46.1941172,5.99639676 L46.1941172,1.94821862 C46.1941172,0.872105263 45.3179012,4.04858299e-05 44.2366652,4.04858299e-05" id="Fill-13"></path>
                    <path d="M62.51899,3.43064777 C61.75464,2.66951417 60.5147577,2.66951417 59.7500009,3.43064777 L55.927844,7.23469636 C55.1630872,7.9954251 55.1630872,9.2294332 55.927844,9.9905668 C56.3102224,10.3715385 56.8113822,10.561417 57.312542,10.561417 C57.8137017,10.561417 58.3148615,10.3715385 58.6968331,9.9905668 L62.51899,6.18692308 C63.2837468,5.42578947 63.2837468,4.19178138 62.51899,3.43064777" id="Fill-15"></path>
                    <path d="M32.4931331,7.26097166 L28.6347724,3.42048583 C27.8700156,2.65935223 26.6301333,2.65975709 25.8657833,3.42048583 C25.1010265,4.18161943 25.1010265,5.41522267 25.8657833,6.17595142 L29.724144,10.0168421 C30.1069292,10.397004 30.6076822,10.5872874 31.108842,10.5872874 C31.6100017,10.5872874 32.1111615,10.397004 32.4931331,10.0168421 C33.2578899,9.2557085 33.2578899,8.0217004 32.4931331,7.26097166" id="Fill-17"></path>
                    <path d="M67.5688255,85.3504049 L60.8584914,85.3504049 C59.7776623,85.3504049 58.9006327,86.2228745 58.9006327,87.2989879 C58.9006327,88.3755061 59.7772555,89.2479757 60.8584914,89.2479757 L67.5688255,89.2479757 C68.6500615,89.2479757 69.5266843,88.3755061 69.5266843,87.2989879 C69.5266843,86.2228745 68.6500615,85.3504049 67.5688255,85.3504049" id="Fill-19"></path>
                    <path d="M76.372722,85.9212955 C76.0082422,85.5589474 75.5030145,85.3504453 74.9884308,85.3504453 C74.4734404,85.3504453 73.9682127,85.5589474 73.6041397,85.9212955 C73.2400666,86.2840486 73.0301653,86.7868826 73.0301653,87.2990283 C73.0301653,87.8115789 73.2400666,88.314413 73.6041397,88.6767611 C73.9682127,89.0391093 74.4734404,89.2480162 74.9884308,89.2480162 C75.5030145,89.2480162 76.0082422,89.0391093 76.372722,88.6767611 C76.736795,88.314413 76.9462896,87.8115789 76.9462896,87.2990283 C76.9462896,86.7868826 76.736795,86.2840486 76.372722,85.9212955" id="Fill-21"></path>
                </g>
            </g>
        </g>
    </g>
</svg>