<?xml version="1.0" encoding="UTF-8"?>
<svg width="200px" height="55px" viewBox="0 0 200 55" version="1.1" xmlns="http://www.w3.org/2000/svg" xmlns:xlink="http://www.w3.org/1999/xlink">
    <!-- Generator: Sketch 51 (57462) - http://www.bohemiancoding.com/sketch -->
    <title>logo_2_color</title>
    <desc>Created with Sketch.</desc>
    <defs></defs>
    <g id="Symbols" stroke="none" stroke-width="1" fill="none" fill-rule="evenodd">
        <g id="our_clients_assets" transform="translate(-429.000000, -181.000000)">
            <g id="logo_2_color" transform="translate(429.000000, 181.000000)">
                <path d="M27.4135552,54.5454545 C27.1384371,54.5454545 26.8663423,54.5424464 26.5987824,54.534926 L32.2009128,39.2173771 L39.9102666,39.2173771 C41.2662059,39.2173771 42.7491228,38.178058 43.2086608,36.916135 L49.2869572,20.3050775 C50.2801034,17.5872053 48.7170697,15.3551508 45.8071665,15.3551508 L35.1138393,15.3551508 L26.1377328,39.8987253 L21.0495592,53.8084554 C8.97912976,50.9522079 0,40.1559229 0,27.2719752 C0,14.7625434 8.46517284,4.21593573 20.0125756,1.00171716 L14.7626568,15.3551508 L14.7581219,15.3551508 L6.03143565,39.2173771 L11.8421721,39.2173771 L19.2597798,18.9453894 L23.6284137,18.9453894 L16.2077827,39.2173771 L22.0200308,39.2173771 L28.9327514,20.3050775 C29.9289209,17.5872053 28.3613523,15.3551508 25.4544724,15.3551508 L20.5749049,15.3551508 L26.178547,0.0255693569 C26.5897125,0.00451223945 26.9993664,0 27.4135552,0 C42.5541215,0 54.8271105,12.2086159 54.8271105,27.2719752 C54.8271105,42.3338305 42.5541215,54.5454545 27.4135552,54.5454545 L27.4135552,54.5454545 Z M43.9977358,18.9318527 L39.6321253,18.9318527 L33.5205728,35.6196182 L37.8816484,35.6196182 L43.9977358,18.9318527 Z" id="hp_logo" fill="#0096D6"></path>
                <path d="M73.4075206,40.8181818 L67.3366834,40.8181818 L67.3366834,5.91761364 L73.4075206,5.91761364 L73.4075206,40.8181818 Z M85.7660104,14.8824574 L85.9346448,17.8787287 C87.8619043,15.5616006 90.3913945,14.403054 93.5231912,14.403054 C98.9516389,14.403054 101.714003,17.495175 101.810366,23.6795099 L101.810366,40.8181818 L95.9563442,40.8181818 L95.9563442,24.0150923 C95.9563442,22.3691324 95.5990035,21.1506609 94.8843115,20.3596413 C94.1696194,19.5686218 93.0012358,19.1731179 91.3791257,19.1731179 C89.0182328,19.1731179 87.2596349,20.2357848 86.1032792,22.3611506 L86.1032792,40.8181818 L80.2492577,40.8181818 L80.2492577,14.8824574 L85.7660104,14.8824574 Z M106.676672,27.6585582 C106.676672,23.6635099 107.608167,20.4555341 109.471184,18.0345348 C111.334202,15.6135355 113.831571,14.403054 116.963368,14.403054 C119.725773,14.403054 121.958149,15.3618512 123.660561,17.2794744 L123.660561,4 L129.514583,4 L129.514583,40.8181818 L124.214646,40.8181818 L123.925558,38.1335227 C122.174964,40.2429083 119.838197,41.2975852 116.915187,41.2975852 C113.863692,41.2975852 111.394428,40.0751188 109.50732,37.6301491 C107.620212,35.1851795 106.676672,31.8613491 106.676672,27.6585582 Z M112.530693,28.1619318 C112.530693,30.7986638 113.040606,32.8560828 114.060448,34.3342507 C115.080289,35.8124186 116.529727,36.5514915 118.408805,36.5514915 C120.801819,36.5514915 122.552387,35.4888245 123.660561,33.3634588 L123.660561,22.2892401 C122.584508,20.2118149 120.850001,19.1731179 118.456987,19.1731179 C116.561848,19.1731179 115.100365,19.9201807 114.072493,21.4143288 C113.044621,22.9084769 112.530693,25.1576554 112.530693,28.1619318 Z M141.848982,40.8181818 L135.994961,40.8181818 L135.994961,14.8824574 L141.848982,14.8824574 L141.848982,40.8181818 Z M135.633601,8.14683949 C135.633601,7.25194865 135.918671,6.5088808 136.488818,5.91761364 C137.058966,5.32634648 137.874024,5.03071733 138.934017,5.03071733 C139.994009,5.03071733 140.813082,5.32634648 141.39126,5.91761364 C141.969438,6.5088808 142.258523,7.25194865 142.258523,8.14683949 C142.258523,9.02575013 141.969438,9.75683302 141.39126,10.3401101 C140.813082,10.9233871 139.994009,11.2150213 138.934017,11.2150213 C137.874024,11.2150213 137.058966,10.9233871 136.488818,10.3401101 C135.918671,9.75683302 135.633601,9.02575013 135.633601,8.14683949 Z M147.197101,27.6585582 C147.197101,23.6315495 148.148671,20.4155838 150.051839,18.0105646 C151.955008,15.6055455 154.480483,14.403054 157.628341,14.403054 C160.599532,14.403054 162.936299,15.433761 164.638712,17.495206 L164.903709,14.8824574 L170.179555,14.8824574 L170.179555,40.0271662 C170.179555,43.4309474 169.115564,46.1155797 166.987548,48.0811435 C164.859532,50.0467073 161.988762,51.0294744 158.37515,51.0294744 C156.463951,51.0294744 154.596946,50.6339706 152.77408,49.842951 C150.951214,49.0519314 149.566017,48.0172294 148.618447,46.7388139 L151.388869,43.239169 C153.187645,45.3645348 155.40396,46.4272017 158.037881,46.4272017 C159.981201,46.4272017 161.514956,45.9038582 162.63919,44.8571555 C163.763425,43.8104529 164.325534,42.2723823 164.325534,40.2428977 L164.325534,38.4930753 C162.639182,40.3627579 160.390746,41.2975852 157.580159,41.2975852 C154.528665,41.2975852 152.03531,40.0910987 150.100021,37.6780895 C148.164731,35.2650803 147.197101,31.9252699 147.197101,27.6585582 Z M153.027031,28.1619318 C153.027031,30.7667034 153.561035,32.8161324 154.629058,34.3102805 C155.697081,35.8044286 157.178639,36.5514915 159.073778,36.5514915 C161.434671,36.5514915 163.185239,35.5447544 164.325534,33.53125 L164.325534,22.1214489 C163.21736,20.1558851 161.482852,19.1731179 159.121959,19.1731179 C157.1947,19.1731179 155.697081,19.9321657 154.629058,21.4502841 C153.561035,22.9684025 153.027031,25.205596 153.027031,28.1619318 Z M175.094043,27.6106179 C175.094043,25.0697671 175.599941,22.7806387 176.611752,20.7431641 C177.623563,18.7056894 179.044896,17.1396539 180.875792,16.0450107 C182.706689,14.9503674 184.810582,14.403054 187.187536,14.403054 C190.704784,14.403054 193.559495,15.5296407 195.751752,17.782848 C197.94401,20.0360553 199.128454,23.0243067 199.305119,26.7476918 L199.32921,28.1139915 C199.32921,30.6708224 198.835357,32.9559558 197.847637,34.9694602 C196.859916,36.9829646 195.446614,38.5410101 193.607687,39.6436435 C191.76876,40.7462768 189.644791,41.2975852 187.235717,41.2975852 C183.557863,41.2975852 180.614822,40.0791137 178.406503,37.6421342 C176.198185,35.2051547 175.094043,31.9572291 175.094043,27.8982599 L175.094043,27.6106179 Z M180.948064,28.1139915 C180.948064,30.7826838 181.502143,32.8720628 182.610317,34.3821911 C183.718491,35.8923193 185.260276,36.6473722 187.235717,36.6473722 C189.211158,36.6473722 190.748927,35.8803344 191.849071,34.3462358 C192.949215,32.8121372 193.499279,30.5669537 193.499279,27.6106179 C193.499279,24.9898662 192.933155,22.9124722 191.80089,21.3783736 C190.668625,19.844275 189.130856,19.0772372 187.187536,19.0772372 C185.276337,19.0772372 183.758643,19.83229 182.634408,21.3424183 C181.510173,22.8525466 180.948064,25.1097151 180.948064,28.1139915 Z" id="Indigo" fill="#5A5A5A"></path>
            </g>
        </g>
    </g>
</svg>