<?xml version="1.0" encoding="UTF-8"?>
<svg width="100px" height="100px" viewBox="0 0 100 100" version="1.1" xmlns="http://www.w3.org/2000/svg" xmlns:xlink="http://www.w3.org/1999/xlink">
    <!-- Generator: Sketch 51 (57462) - http://www.bohemiancoding.com/sketch -->
    <title>HWDI_icon2</title>
    <desc>Created with Sketch.</desc>
    <defs></defs>
    <g id="Symbols" stroke="none" stroke-width="1" fill="none" fill-rule="evenodd">
        <g id="How-we-do-it" transform="translate(-735.000000, -199.000000)" fill="#609BB9">
            <g id="Group" transform="translate(150.000000, 199.000000)">
                <g id="HWDI_icon2" transform="translate(585.000000, 0.000000)">
                    <path d="M59.9055603,85.7734483 L57.6034052,83.4712931 L52.5215086,78.3893966 L64.4413362,71.7674138 L70.500819,77.8264655 L59.9055603,85.7734483 Z M41.2585776,71.3674138 L58.3236638,71.3674138 L49.7913362,76.1075 L41.2585776,71.3674138 Z M41.9805603,83.4712931 L39.7482328,85.7040517 L30.5150431,77.7889655 L35.2736638,71.8402586 L47.0624569,78.3893966 L41.9805603,83.4712931 Z M19.9167672,68.0480172 C17.1710776,68.0480172 14.9374569,65.8139655 14.9374569,63.0687069 L14.9374569,38.1730172 L58.0896121,38.1730172 C58.6624569,38.1730172 59.1934914,37.8777586 59.4973707,37.3932759 L64.7284052,29.0230172 L64.7284052,68.0480172 L19.9167672,68.0480172 Z M7.97323276,34.8536207 L14.1969397,24.895431 L16.5969397,24.895431 L63.3943534,24.895431 L57.1702155,34.8536207 L7.97323276,34.8536207 Z M49.7913362,14.9372414 C53.7978017,14.9372414 57.1503879,17.7937069 57.9219397,21.5764655 L41.6603017,21.5764655 C42.4322845,17.7937069 45.7844397,14.9372414 49.7913362,14.9372414 Z M68.0482328,29.0230172 L73.2792672,37.3932759 C73.5831466,37.8777586 74.114181,38.1730172 74.6870259,38.1730172 L84.6452155,38.1730172 L84.6452155,63.0687069 C84.6452155,65.8139655 82.4111638,68.0480172 79.6659052,68.0480172 L68.0482328,68.0480172 L68.0482328,29.0230172 Z M82.9853017,24.895431 L85.3853017,24.895431 L91.6094397,34.8536207 L75.6064224,34.8536207 L69.3822845,24.895431 L82.9853017,24.895431 Z M85.639181,77.182931 L73.7607328,76.3911207 L68.7348707,71.3674138 L79.6659052,71.3674138 C84.2417672,71.3674138 87.9646121,67.644569 87.9646121,63.0687069 L87.9646121,38.1730172 L94.6034052,38.1730172 C95.2072845,38.1730172 95.7620259,37.8462931 96.0555603,37.3182759 C96.3495259,36.7902586 96.3309914,36.145 96.0124569,35.6337931 L87.714181,22.3562069 C87.4085776,21.8712931 86.8771121,21.5764655 86.3046983,21.5764655 L82.9853017,21.5764655 L66.388319,21.5764655 L61.276681,21.5764655 C60.4663362,15.9549138 55.6318534,11.6178448 49.7913362,11.6178448 C43.9503879,11.6178448 39.1163362,15.9549138 38.3059914,21.5764655 L16.5969397,21.5764655 L13.2775431,21.5764655 C12.7051293,21.5764655 12.1740948,21.8712931 11.8702155,22.3562069 L3.57193966,35.6337931 C3.25297414,36.145 3.23443966,36.7902586 3.52840517,37.3182759 C3.82237069,37.8462931 4.3749569,38.1730172 4.97883621,38.1730172 L11.6180603,38.1730172 L11.6180603,63.0687069 C11.6180603,67.644569 15.3404741,71.3674138 19.9167672,71.3674138 L31.401681,71.3674138 L27.3784052,76.3962931 L14.0064224,77.232931 C6.1525431,77.7221552 0.000387931034,84.2717241 0.000387931034,92.1402586 L0.000387931034,99.582069 L3.31935345,99.582069 L3.31935345,92.1402586 C3.31935345,86.0191379 8.10426724,80.9273276 14.2120259,80.545431 L27.6456466,79.7057759 L38.7525431,89.2260345 C39.064181,89.4911207 39.4495259,89.6243103 39.8331466,89.6243103 C40.2577155,89.6243103 40.6844397,89.4596552 41.0064224,89.1381034 L42.8934914,87.2506034 L44.5064224,89.6721552 L40.0689224,97.069569 C39.914181,97.3268966 39.8331466,97.6221552 39.8331466,97.9230172 L39.8331466,99.582069 L43.1525431,99.582069 L43.1525431,98.3825 L47.8943534,90.4786207 C48.2240948,89.9277586 48.2077155,89.2372414 47.8525431,88.7044828 L45.288319,84.8575 L49.7913362,80.3531897 L54.2939224,84.8557759 L51.7296983,88.7031897 C51.3745259,89.2355172 51.3581466,89.9277586 51.688319,90.4773276 L56.4301293,98.3825 L56.4301293,99.582069 L59.7495259,99.582069 L59.7495259,97.9230172 C59.7495259,97.6221552 59.6680603,97.3268966 59.5120259,97.0678448 L55.0740948,89.670431 L56.6870259,87.2493103 L58.5745259,89.1363793 C58.8978017,89.4596552 59.3228017,89.6243103 59.7495259,89.6243103 C60.0978017,89.6243103 60.4482328,89.5148276 60.7452155,89.2919828 L73.5296983,79.7023276 L85.4171983,80.4941379 C91.4995259,80.9006034 96.263319,85.9928448 96.263319,92.0868103 L96.263319,99.582069 L99.5827155,99.582069 L99.5827155,92.0868103 C99.5827155,84.2518966 93.4581466,77.7040517 85.639181,77.182931 Z" id="Fill-1"></path>
                    <polygon id="Fill-4" points="48.1318966 8.29827586 51.4508621 8.29827586 51.4508621 -0.000431034483 48.1318966 -0.000431034483"></polygon>
                    <polygon id="Fill-6" points="60.6199138 12.5489655 66.4862931 6.68258621 68.8337069 9.02956897 62.9668966 14.8959483"></polygon>
                    <polygon id="Fill-7" points="30.7455172 9.02784483 33.0925 6.68086207 38.9593103 12.5472414 36.6118966 14.8946552"></polygon>
                    <path d="M41.4927586,59.7493103 C39.3285345,59.7493103 37.4828448,58.3618103 36.797069,56.4299138 L46.1862931,56.4299138 C45.5026724,58.3618103 43.6569828,59.7493103 41.4927586,59.7493103 M48.1315517,53.1105172 L34.8539655,53.1105172 C33.9380172,53.1105172 33.1940517,53.8540517 33.1940517,54.77 C33.1940517,59.3458621 36.9168966,63.0687069 41.4927586,63.0687069 C46.0686207,63.0687069 49.7914655,59.3458621 49.7914655,54.77 C49.7914655,53.8540517 49.0475,53.1105172 48.1315517,53.1105172" id="Fill-8"></path>
                    <path d="M34.8537931,44.8121552 C35.7706034,44.8121552 36.5137069,45.5552586 36.5137069,46.472069 C36.5137069,47.3884483 35.7706034,48.1311207 34.8537931,48.1311207 C33.9374138,48.1311207 33.1938793,47.3884483 33.1938793,46.472069 C33.1938793,45.5552586 33.9374138,44.8121552 34.8537931,44.8121552" id="Fill-9"></path>
                    <path d="M48.131681,44.8121552 C49.0480603,44.8121552 49.7915948,45.5552586 49.7915948,46.472069 C49.7915948,47.3884483 49.0480603,48.1311207 48.131681,48.1311207 C47.2148707,48.1311207 46.4717672,47.3884483 46.4717672,46.472069 C46.4717672,45.5552586 47.2148707,44.8121552 48.131681,44.8121552" id="Fill-10"></path>
                </g>
            </g>
        </g>
    </g>
</svg>