<?xml version="1.0" encoding="UTF-8"?>
<svg width="176px" height="30px" viewBox="0 0 176 30" version="1.1" xmlns="http://www.w3.org/2000/svg" xmlns:xlink="http://www.w3.org/1999/xlink">
    <!-- Generator: Sketch 51 (57462) - http://www.bohemiancoding.com/sketch -->
    <title>logo_3_color</title>
    <desc>Created with Sketch.</desc>
    <defs></defs>
    <g id="Symbols" stroke="none" stroke-width="1" fill="none" fill-rule="evenodd">
        <g id="our_clients_assets" transform="translate(-736.000000, -185.000000)" fill="#004D9E">
            <g id="logo_3_color" transform="translate(736.000000, 185.000000)">
                <g id="logo_5_color">
                    <polygon id="Fill-1" points="31.5568957 0.861853448 31.5186348 22.2300647 14.4035913 0.825969828 0.110286957 0.825969828 0.000286956522 0.861853448 0.0729826087 29.2913793 8.31915652 29.2157328 8.35646087 7.8106681 25.5097652 29.2913793 39.8030696 29.2913793 39.7648087 0.825969828"></polygon>
                    <path d="M131.943661,0.861659483 L132.016357,29.2911853 L123.25653,29.2911853 L123.219226,0.899482759 L123.292878,0.825775862 C126.18827,0.825775862 129.084617,0.787952586 131.943661,0.861659483" id="Fill-2"></path>
                    <polygon id="Fill-4" points="92.6889652 14.5736638 92.7262696 14.6105172 93.7889652 13.7192457 107.825922 0.861271552 119.482096 0.861271552 103.428791 14.6483405 103.466096 14.7967241 121.533835 29.2161207 108.814965 29.2917672 92.7645304 14.7220474 92.6889652 14.8355172 92.6889652 29.2917672 83.9300957 29.2917672 83.9300957 0.861271552 92.6889652 0.861271552"></polygon>
                    <path d="M53.0707913,7.5519181 C52.3371391,7.6993319 51.4207913,7.99706897 51.3098348,8.85148707 C51.3098348,13.087694 51.2007913,17.3985776 51.383487,21.5969612 C51.6407913,22.3039655 52.4107913,22.2302586 52.9598348,22.413556 L68.7931391,22.4513793 C70.149487,22.3398491 71.7621826,22.6754095 72.4958348,21.300194 L72.5321826,9.29857759 L72.4212261,8.36851293 C72.2021826,7.81086207 71.6521826,7.73521552 71.1758348,7.58780172 L53.0707913,7.5519181 Z M70.259487,0.526487069 C73.8885304,0.67487069 77.809313,0.93575431 79.7520087,4.57842672 C80.1920087,5.58025862 80.4120087,6.65773707 80.3747043,7.88553879 L80.3383565,23.3436207 C80.229313,25.4258405 78.7983565,27.2462069 77.0402696,28.2499784 C73.2285304,29.9219612 68.6104435,29.5136638 64.1750522,29.6232543 C58.9342696,29.5495474 53.5471391,29.8841379 48.6717478,28.9918966 C46.5100087,28.657306 44.2009652,26.8369397 43.6146174,24.6451293 L43.3209652,22.8606466 L43.3946174,6.47443966 C43.467313,4.39221983 45.2636609,2.57185345 46.9863565,1.64178879 C49.8080957,0.452780172 53.2161826,0.601163793 56.4788783,0.452780172 L70.259487,0.526487069 Z" id="Fill-6"></path>
                    <path d="M154.702183,7.99706897 L149.314096,18.1424353 L160.091226,18.1424353 C158.295835,14.7616164 156.497574,11.3420043 154.702183,7.99706897 Z M175.703574,29.1781034 L175.703574,29.2915733 L166.028357,29.2915733 C165.149313,27.6535345 164.269313,26.0940517 163.462009,24.4598922 L163.279313,24.3852155 L146.089661,24.3852155 L143.450617,29.2159267 L133.666357,29.2915733 L149.095052,0.862047414 L160.421226,0.862047414 L175.703574,29.1781034 Z" id="Fill-9"></path>
                </g>
            </g>
        </g>
    </g>
</svg>