<?xml version="1.0" encoding="UTF-8"?>
<svg width="196px" height="60px" viewBox="0 0 196 60" version="1.1" xmlns="http://www.w3.org/2000/svg" xmlns:xlink="http://www.w3.org/1999/xlink">
    <!-- Generator: Sketch 51 (57462) - http://www.bohemiancoding.com/sketch -->
    <title>logo_9_color</title>
    <desc>Created with Sketch.</desc>
    <defs></defs>
    <g id="Symbols" stroke="none" stroke-width="1" fill="none" fill-rule="evenodd">
        <g id="our_clients_assets" transform="translate(-111.000000, -672.000000)" fill="#AD1F24">
            <g id="logo_9_color" transform="translate(111.000000, 672.000000)">
                <path d="M40.4227742,44.1922258 C40.4169677,44.2086774 40.4024516,44.2193226 40.3947097,44.2348065 C40.3424516,44.3344839 40.2630968,44.4167419 40.1585806,44.4612581 C40.0927742,44.4873871 40.029871,44.4999677 39.966,44.4999677 C39.8818065,44.4999677 39.8014839,44.4738387 39.729871,44.435129 C39.636,44.382871 39.5566452,44.3035161 39.5130968,44.199 L38.7418065,42.3709355 C38.6353548,42.1212581 38.7514839,41.832871 39.0011613,41.7254516 C39.2489032,41.6219032 39.5450323,41.7448065 39.6476129,41.9886774 L40.419871,43.8148065 C40.4711613,43.9357742 40.472129,44.0702903 40.4227742,44.1922258 Z M39.5914839,45.9302903 C39.4163226,46.1015806 39.212129,46.2380323 38.9847097,46.3348065 L37.6618065,46.8941613 C37.6008387,46.9193226 37.5369677,46.932871 37.4692258,46.932871 C37.2718065,46.932871 37.0937419,46.8148065 37.0163226,46.6319032 C36.9108387,46.3822258 37.0279355,46.0919032 37.2776129,45.9864194 L38.6005161,45.4260968 C38.7147097,45.3796452 38.8153548,45.3119032 38.8995484,45.2277097 C39.0892258,45.042871 39.4124516,45.0457742 39.5972903,45.2335161 C39.786,45.4260968 39.7840645,45.7396452 39.5914839,45.9302903 Z M36.722129,37.2041613 C36.5237419,37.2041613 36.3447097,37.0870645 36.2672903,36.905129 L35.4950323,35.0770645 C35.4447097,34.955129 35.4437419,34.8206129 35.4930968,34.6977097 C35.5434194,34.5757742 35.6372903,34.4819032 35.7582581,34.4306129 C36.0030968,34.3260968 36.3001935,34.449 36.4047097,34.692871 L37.176,36.5199677 C37.2272903,36.6399677 37.2272903,36.7754516 37.1779355,36.8973871 C37.1285806,37.0193226 37.0347097,37.115129 36.9137419,37.1654516 C36.8537419,37.1915806 36.789871,37.2041613 36.722129,37.2041613 Z M35.8356774,47.6664194 L34.0085806,48.4367419 C33.9505161,48.462871 33.8847097,48.4773871 33.8169677,48.4773871 C33.6185806,48.4773871 33.4405161,48.3583548 33.3630968,48.1754516 C33.2585806,47.9257742 33.3747097,47.6364194 33.6253548,47.529 L35.4514839,46.7567419 C35.6953548,46.6531935 35.9943871,46.7760968 36.0969677,47.0209355 C36.2034194,47.2686774 36.0863226,47.559 35.8356774,47.6664194 Z M32.4137419,49.2099677 L30.7076129,49.9319032 C30.6543871,49.9531935 30.6001935,49.9725484 30.5440645,49.9919032 C30.4927742,50.0073871 30.4434194,50.015129 30.3940645,50.015129 C30.1763226,50.015129 29.9885806,49.8757742 29.9237419,49.6696452 C29.8830968,49.5467419 29.8947097,49.4141613 29.9556774,49.2960968 C30.0156774,49.179 30.1182581,49.0919032 30.2430968,49.0512581 L30.3253548,49.0222258 L32.0295484,48.3012581 C32.2763226,48.1996452 32.5734194,48.3196452 32.676,48.5635161 C32.7814839,48.8131935 32.6624516,49.1025484 32.4137419,49.2099677 Z M38.019871,38.3209355 L38.7901935,40.1480323 C38.8424516,40.269 38.8424516,40.4025484 38.7930968,40.5244839 C38.7427742,40.6473871 38.6489032,40.7431935 38.5279355,40.7935161 C38.4679355,40.8196452 38.4040645,40.8322258 38.3382581,40.8322258 C38.1379355,40.8322258 37.959871,40.715129 37.8824516,40.5322258 L37.1101935,38.7041613 C37.059871,38.5831935 37.0579355,38.4486774 37.1082581,38.3257742 C37.1585806,38.2048065 37.2524516,38.1099677 37.3734194,38.0586774 C37.6182581,37.9541613 37.9153548,38.0760968 38.019871,38.3209355 Z M29.1950323,48.8635161 C29.1466452,48.9864194 29.0518065,49.0822258 28.929871,49.1335161 C28.869871,49.1596452 28.806,49.1722258 28.7401935,49.1722258 C28.5418065,49.1722258 28.3627742,49.0541613 28.2853548,48.8712581 L27.5130968,47.0441613 C27.4618065,46.9231935 27.459871,46.7886774 27.5101935,46.6677097 C27.5605161,46.5448065 27.6543871,46.449 27.7763226,46.3986774 C28.0211613,46.295129 28.3182581,46.4170645 28.4218065,46.6619032 L29.1930968,48.4880323 C29.2443871,48.6080323 29.2443871,48.7425484 29.1950323,48.8635161 Z M27.1947097,45.519 C26.9972903,45.519 26.8192258,45.3999677 26.7418065,45.2170645 L25.9695484,43.3899677 C25.9182581,43.2699677 25.9182581,43.1364194 25.9666452,43.0135161 C26.016,42.8906129 26.1108387,42.7957742 26.2318065,42.7454516 C26.4795484,42.6399677 26.7737419,42.7619032 26.8772903,43.0057742 L27.6495484,44.8348065 C27.699871,44.9548065 27.7008387,45.0893226 27.6524516,45.2112581 C27.6030968,45.3331935 27.5092258,45.4280323 27.3872903,45.4793226 C27.3282581,45.5054516 27.2624516,45.519 27.1947097,45.519 Z M25.6327742,41.832871 C25.4343871,41.832871 25.2553548,41.7138387 25.1789032,41.5319032 L24.4066452,39.7038387 C24.3543871,39.5848065 24.3543871,39.4512581 24.4037419,39.3283548 C24.4530968,39.2064194 24.5479355,39.1115806 24.669871,39.0593226 C24.9156774,38.9548065 25.2108387,39.0777097 25.3153548,39.3215806 L26.0866452,41.1486774 C26.1369677,41.2686774 26.1389032,41.4031935 26.0885806,41.525129 C26.0392258,41.6480323 25.9453548,41.7438387 25.8253548,41.7941613 C25.7653548,41.8193226 25.7005161,41.832871 25.6327742,41.832871 Z M36.7037419,33.4560968 C36.6814839,33.4183548 36.6630968,33.3873871 36.6466452,33.3564194 C36.6118065,33.2935161 36.5818065,33.2286774 36.5556774,33.1638387 C36.5218065,33.0815806 36.4511613,32.9702903 36.3069677,32.9122258 L33.5082581,31.7770645 L33.5082581,34.1354516 C33.5789032,34.332871 33.6350323,34.5370645 33.6776129,34.7470645 C33.6892258,34.7983548 33.6989032,34.8506129 33.7056774,34.902871 C33.7463226,35.1457742 33.7656774,35.375129 33.7656774,35.5996452 C33.7656774,37.989 31.8214839,39.9331935 29.4330968,39.9331935 C27.5943871,39.9331935 25.9453548,38.742871 25.3463226,37.0135161 C25.3327742,36.9825484 25.3201935,36.9496452 25.3095484,36.9196452 C25.2930968,36.8760968 25.2795484,36.8335161 25.266,36.789 C25.2466452,36.7241613 25.232129,36.6593226 25.2185806,36.5935161 C25.2118065,36.5673871 25.2050323,36.5431935 25.2001935,36.5180323 C25.0134194,35.8280323 24.9118065,35.1544839 24.8943871,34.5157742 C24.8934194,34.4983548 24.8934194,34.4819032 24.8934194,34.4654516 L24.8934194,34.2941613 L23.2076129,38.4467419 C23.1495484,38.5899677 23.1795484,38.7167419 23.2153548,38.7960968 C23.2463226,38.8677097 23.2734194,38.9412581 23.2956774,39.0167419 L23.3169677,39.0922258 L28.6695484,51.3060968 C28.7305161,51.4483548 28.8447097,51.4909355 28.9269677,51.4909355 C28.9608387,51.4909355 28.9937419,51.4841613 29.0285806,51.4706129 L41.9189032,46.0231935 C42.0543871,45.965129 42.1172903,45.8093226 42.0592258,45.6738387 L36.7037419,33.4560968 Z" id="Fill-1"></path>
                <path d="M42.6691935,47.7975484 L29.7779032,53.2449677 C29.5001613,53.3620645 29.2117742,53.4181935 28.9272581,53.4181935 C28.0727419,53.4181935 27.258871,52.9149677 26.9056452,52.0788387 L21.5162903,39.7807742 C21.4862903,39.7110968 21.4717742,39.6394839 21.4504839,39.5707742 C21.2008065,39.0036774 21.1708065,38.3417419 21.4233871,37.7214194 L24.8153226,29.3669032 L24.8491935,29.2836774 L24.8801613,29.2014194 L25.0340323,28.8259355 C25.0582258,28.764 25.0940323,28.7156129 25.121129,28.6585161 C25.1385484,28.6265806 25.1530645,28.5956129 25.1714516,28.5646452 C25.1879032,28.5356129 25.2014516,28.5036774 25.218871,28.4756129 C25.4995161,28.0188387 25.9282258,27.777871 26.2620968,27.777871 C26.3559677,27.777871 26.441129,27.7972258 26.5156452,27.8359355 C26.8466129,28.0130323 26.8195161,28.3227097 26.8195161,28.3227097 L26.8204839,34.4649677 C26.835,34.9952903 26.925,35.5265806 27.071129,36.0549677 C27.0769355,36.084 27.0837097,36.1091613 27.0895161,36.1372258 C27.101129,36.1749677 27.105,36.2136774 27.1166129,36.2514194 L27.1301613,36.2659355 C27.1272581,36.2669032 27.1253226,36.2669032 27.1233871,36.267871 C27.1214516,36.2620645 27.1185484,36.2572258 27.1166129,36.2514194 C27.1185484,36.2572258 27.1214516,36.2620645 27.1233871,36.267871 C27.1253226,36.2669032 27.1272581,36.2669032 27.1301613,36.2659355 C27.4204839,37.2685161 28.335,38.0069032 29.4324194,38.0069032 C30.761129,38.0069032 31.8401613,36.9288387 31.8401613,35.600129 C31.8401613,35.450129 31.8217742,35.3049677 31.7956452,35.1636774 L31.7956452,35.1588387 C31.7608065,34.977871 31.7085484,34.8036774 31.6379032,34.6381935 C31.6262903,34.5810968 31.6108065,34.5307742 31.6020968,34.4669032 C31.5953226,34.4069032 31.5817742,34.347871 31.5817742,34.284 L31.5817742,29.5730323 C31.5817742,29.5730323 31.548871,29.1772258 31.9127419,29.1085161 C31.9233871,29.1065806 31.9369355,29.1056129 31.9514516,29.1056129 C32.2272581,29.1056129 33.0004839,29.4907742 33.0004839,29.4907742 L37.031129,31.1262581 C37.6514516,31.377871 38.1053226,31.8607742 38.3395161,32.4356129 C38.3743548,32.4994839 38.415,32.5585161 38.4440323,32.6272258 L43.8353226,44.9252903 C44.3046774,46.040129 43.7830645,47.3272258 42.6691935,47.7975484 Z M30.2627419,33.954 C30.2627419,34.0681935 30.281129,34.1775484 30.2966129,34.287871 C30.345,34.6469032 30.4669355,34.9807742 30.6498387,35.2749677 C30.8095161,35.4617419 30.911129,35.7027097 30.911129,35.967871 C30.911129,36.5591613 30.431129,37.0381935 29.8417742,37.0381935 C29.445,37.0381935 29.1024194,36.8194839 28.9185484,36.500129 C28.9020968,36.4846452 28.8885484,36.4681935 28.8701613,36.4420645 C28.6475806,36.0936774 28.4695161,35.7133548 28.3456452,35.3088387 C28.2246774,34.9169032 28.1520968,34.5056129 28.1395161,34.077871 L28.1385484,34.077871 L28.1375806,26.064 L28.1375806,25.8191613 C26.6230645,25.3614194 25.5120968,23.9707742 25.5120968,22.3062581 C25.5120968,20.270129 27.1630645,18.6210968 29.1972581,18.6210968 C31.2353226,18.6210968 32.8853226,20.270129 32.8853226,22.3062581 C32.8853226,22.374 32.868871,22.4359355 32.8659677,22.5027097 C32.7808065,24.0781935 31.7143548,25.3788387 30.2617742,25.8181935 L30.2627419,33.954 Z M21.5337097,16.0333548 C23.5930645,14.0146452 26.3162903,12.9027097 29.201129,12.9027097 C32.088871,12.9027097 34.8130645,14.0146452 36.8695161,16.0343226 C37.0659677,16.2269032 37.1753226,16.4843226 37.1791935,16.7591613 C37.181129,17.034 37.0775806,17.2933548 36.8840323,17.4907742 C36.6895161,17.6891613 36.4291935,17.7975484 36.1495161,17.7975484 C35.8785484,17.7975484 35.6230645,17.694 35.4314516,17.5033548 C33.7572581,15.8630323 31.5459677,14.9591613 29.201129,14.9591613 C26.8582258,14.9591613 24.6479032,15.8630323 22.9746774,17.5014194 C22.781129,17.6930323 22.5266129,17.7975484 22.2546774,17.7975484 C21.9759677,17.7975484 21.7156452,17.6862581 21.5201613,17.4888387 C21.3275806,17.2923871 21.2230645,17.0320645 21.2259677,16.7581935 C21.228871,16.4843226 21.3382258,16.2259355 21.5337097,16.0333548 Z M15.8075806,14.4510968 C15.5220968,14.4510968 15.2579032,14.3369032 15.0614516,14.1298065 C14.6695161,13.7194839 14.6879032,13.0672258 15.0991935,12.6762581 C19.0669355,8.90980645 23.718871,7.30432258 29.1943548,7.30432258 C34.6708065,7.30432258 39.3362903,8.86141935 43.3030645,12.6259355 C43.5033871,12.8156129 43.6166129,13.070129 43.6243548,13.3449677 C43.631129,13.6207742 43.5314516,13.8810968 43.3417742,14.0814194 C43.1443548,14.2875484 42.881129,14.4007742 42.5956452,14.4007742 C42.3304839,14.4007742 42.078871,14.3010968 41.8862903,14.1181935 C38.3017742,10.7185161 34.1424194,9.36270968 29.1943548,9.36270968 C24.2472581,9.36270968 20.0995161,10.767871 16.5159677,14.1685161 C16.3224194,14.3504516 16.0737097,14.4510968 15.8075806,14.4510968 Z M42.6595161,0.967548387 L16.1269355,0.967548387 C7.21983871,0.967548387 -0.000483870968,8.18787097 -0.000483870968,17.094 L-0.000483870968,43.6275484 C-0.000483870968,52.5346452 7.21983871,59.754 16.1269355,59.754 L42.6595161,59.754 C51.5666129,59.754 58.7869355,52.5346452 58.7869355,43.6275484 L58.7869355,17.094 C58.7869355,8.18787097 51.5666129,0.967548387 42.6595161,0.967548387 Z" id="Fill-3"></path>
                <path d="M182.632645,46.5973548 L184.723935,46.5973548 L184.723935,37.3109032 C186.544258,38.0463871 188.478774,38.4634839 190.440387,38.541871 C194.824258,38.541871 195.521032,34.2373548 195.521032,30.0557419 C195.521032,26.3038065 194.647161,21.7844516 190.440387,21.7844516 C188.465226,21.7844516 185.476839,23.1992903 184.723935,23.7838065 L184.171355,21.9692903 L182.632645,21.9692903 L182.632645,46.5973548 Z M184.723935,35.4673548 L184.723935,25.4754194 C186.289742,24.7999355 188.148774,24.0615484 190.440387,24.0615484 C192.328452,24.0615484 193.369742,26.0599355 193.369742,30.0567097 C193.369742,35.0686452 192.295548,36.2667097 190.440387,36.2667097 C188.505871,36.2899355 186.578129,36.0189677 184.723935,35.4663871 L184.723935,35.4673548 Z M165.849097,30.3634839 C165.849097,36.2057419 167.443935,38.4489677 172.64071,38.4489677 C177.836516,38.4489677 179.430387,36.4196129 179.430387,30.3634839 C179.430387,23.8757419 177.836516,21.8163871 172.64071,21.8163871 C167.588129,21.8163871 165.849097,23.6909032 165.849097,30.3634839 Z M167.996516,30.3634839 C167.996516,24.4912258 169.391032,24.0905806 172.64071,24.0905806 C176.038452,24.0905806 177.283935,24.5212258 177.283935,30.3634839 C177.283935,35.744129 175.77329,36.1728387 172.64071,36.1728387 C169.651355,36.1728387 167.996516,35.8050968 167.996516,30.3634839 Z M154.348452,38.2960645 L156.496839,38.2960645 L156.496839,25.8760645 C158.732323,24.7389677 159.921677,24.0925161 162.24329,24.0925161 C162.96329,24.0847742 163.682323,24.1476774 164.39071,24.2773548 L164.39071,22.0331613 C164.042323,21.8492903 163.085226,21.7873548 162.24329,21.7873548 C159.863613,21.7873548 158.266839,22.9554194 156.496839,24.0315484 L155.858129,21.9712258 L154.348452,21.9712258 L154.348452,38.2960645 Z M135.851032,38.2960645 L143.743935,38.2960645 C149.346194,38.2960645 151.289419,32.2389677 151.289419,27.1350968 C151.289419,22.5228387 150.274258,15.7902581 143.743935,15.7902581 L135.851032,15.7902581 L135.851032,38.2960645 Z M137.998452,35.9289677 L137.998452,18.0634839 L143.744903,18.0634839 C147.11071,18.0634839 149.143935,20.5234839 149.143935,27.1021935 C149.143935,31.8373548 147.576194,35.9270323 143.744903,35.9270323 L137.998452,35.9270323 L137.998452,35.9289677 Z M122.755548,38.2960645 L126.818129,38.2960645 L126.818129,27.8725161 C127.805226,26.3667097 129.023613,26.058 130.707484,26.058 C131.606516,26.058 132.535548,26.1199355 132.942,26.1509032 L132.942,22.0002581 C132.387484,21.8328387 131.806839,21.7709032 131.230065,21.8163871 C129.313935,21.8163871 127.864258,22.9225161 126.818129,24.0296129 L126.180387,21.9692903 L122.755548,21.9692903 L122.755548,38.2960645 Z M107.278452,30.0576774 C107.278452,36.0528387 108.44071,38.4509032 112.358129,38.4509032 C114.766839,38.4509032 118.075548,38.4509032 120.250065,37.5896129 L120.250065,34.6699355 C118.073613,35.0386452 116.941355,35.0067097 114.59071,35.0067097 C112.387161,35.0067097 111.340065,34.8228387 111.340065,31.9012258 L116.245548,31.9012258 C119.031677,31.9012258 120.541355,30.7031613 120.541355,27.7825161 C120.541355,22.3709032 118.481032,21.8483226 114.011032,21.8483226 C109.135548,21.8463871 107.278452,23.0454194 107.278452,30.0557419 L107.278452,30.0576774 Z M111.342,28.7967097 C111.312968,25.2605806 112.095871,25.1376774 114.244258,25.1376774 C116.188452,25.1376774 116.479742,25.5073548 116.479742,27.5676774 C116.479742,28.368 116.04329,28.7967097 115.202323,28.7967097 L111.342,28.7967097 Z M95.4884516,25.2605806 L97.898129,25.2605806 L97.898129,38.2960645 L101.961677,38.2960645 L101.961677,25.2586452 L105.473613,25.2586452 L105.473613,21.9692903 L101.961677,21.9692903 L101.961677,19.9399355 C101.961677,18.2173548 101.931677,17.3570323 103.557484,17.388 L106.343613,17.4189677 L106.343613,14.8670323 C105.115548,14.3434839 103.788774,14.091871 102.454258,14.1286452 C98.9723226,14.1286452 97.898129,16.128 97.898129,18.9247742 L97.898129,21.9702581 L95.4884516,22.4909032 L95.4884516,25.2576774 L95.4884516,25.2605806 Z M83.7855484,25.2605806 L86.1952258,25.2605806 L86.1952258,38.2960645 L90.2587742,38.2960645 L90.2587742,25.2586452 L93.7707097,25.2586452 L93.7707097,21.9692903 L90.2587742,21.9692903 L90.2587742,19.9399355 C90.2587742,18.2173548 90.2297419,17.3570323 91.8545806,17.388 L94.6407097,17.4189677 L94.6407097,14.8670323 C93.4136129,14.3434839 92.0868387,14.091871 90.7523226,14.1286452 C87.2694194,14.1286452 86.1952258,16.128 86.1952258,18.9247742 L86.1952258,21.9702581 L83.7855484,22.4909032 L83.7855484,25.2576774 L83.7855484,25.2605806 Z M65.3161935,27.198 C65.3161935,37.4367097 68.6249032,38.4209032 73.8507097,38.4209032 C79.0755484,38.4209032 82.3842581,37.1289677 82.3842581,27.198 C82.3842581,16.6525161 78.8723226,15.6373548 73.8507097,15.6373548 C68.9742581,15.6354194 65.3161935,16.6505806 65.3161935,27.198 Z M69.3807097,27.198 C69.3807097,20.0347742 70.7152258,19.6031613 73.8497419,19.6031613 C77.0713548,19.6031613 78.3187742,20.1886452 78.3187742,27.198 C78.3187742,33.2550968 77.2745806,34.454129 73.8497419,34.454129 C70.2216774,34.4521935 69.3807097,33.3450968 69.3807097,27.198 Z" id="Fill-6"></path>
            </g>
        </g>
    </g>
</svg>