<?xml version="1.0" encoding="UTF-8"?>
<svg width="82px" height="100px" viewBox="0 0 82 100" version="1.1" xmlns="http://www.w3.org/2000/svg" xmlns:xlink="http://www.w3.org/1999/xlink">
    <!-- Generator: Sketch 51 (57462) - http://www.bohemiancoding.com/sketch -->
    <title>HWDI_icon4</title>
    <desc>Created with Sketch.</desc>
    <defs></defs>
    <g id="Symbols" stroke="none" stroke-width="1" fill="none" fill-rule="evenodd">
        <g id="How-we-do-it" transform="translate(-735.000000, -384.000000)" fill="#609BB9">
            <g id="Group-3" transform="translate(150.000000, 384.000000)">
                <g id="HWDI_icon4" transform="translate(585.000000, 0.000000)">
                    <path d="M40.4283209,56.387729 C30.9508293,56.387729 23.2731311,48.754613 23.2731311,39.3198112 C23.2731311,29.8844894 30.9508293,22.2513734 40.4283209,22.2513734 C49.9063321,22.2513734 57.5840304,29.8844894 57.5840304,39.3198112 C57.5840304,48.754613 49.9063321,56.387729 40.4283209,56.387729 M62.7106358,39.0691871 C62.7106358,26.8562014 52.7322779,16.9206714 40.4283209,16.9206714 C28.1498229,16.9206714 18.1465256,26.8562014 18.1465256,39.0691871 C18.1465256,51.2826927 28.124364,61.2182227 40.4283209,61.2182227 C52.7073385,61.2431811 62.7106358,51.3071311 62.7106358,39.0691871" id="Fill-1"></path>
                    <path d="M68.0678843,84.9670042 C67.0328086,84.9670042 66.2009535,85.3733333 65.7751179,86.4087764 L63.4815082,92.8062447 L50.0272107,69.5526582 L60.1131906,72.7408439 L62.0408346,64.0083544 L74.9272107,86.1855696 L68.0678843,84.9670042 Z M33.8538896,64.3737553 L24.2548801,67.4201688 L22.1037778,57.6315612 L12.2619156,55.4990717 L15.3258239,45.9539241 L7.85767906,39.1708017 L15.3055862,32.4281857 L12.2412562,22.8834599 L22.0835401,20.7509705 L24.2346424,10.9619409 L33.8332302,14.0083544 L40.6111841,6.59611814 L47.4296134,13.9881013 L57.0282013,10.9421097 L59.1793036,20.7307173 L69.0215874,22.8627848 L65.9572574,32.4083544 L73.404743,39.1505485 L65.9572574,45.8931646 L69.0215874,55.4383122 L59.1793036,57.5703797 L57.0282013,67.3594093 L47.4296134,64.3129958 L40.6520812,71.725654 L33.8538896,64.3737553 Z M17.3550782,92.8062447 L15.0618902,86.4087764 C14.8590912,85.5762869 14.0268145,84.9670042 13.195381,84.9670042 L12.7893615,84.9670042 L5.93003505,86.2058228 L19.100161,63.4395781 L21.1500747,72.761519 L30.7284248,69.7353586 L17.3550782,92.8062447 Z M80.7308021,88.2568776 L64.7396205,60.6577215 L74.3791055,58.5657384 L70.7468541,47.2129958 L79.5945377,39.1914768 L70.7468541,31.1695359 L74.3791055,19.8167932 L62.6698908,17.2779747 L60.1131906,5.60075949 L48.6877258,9.21594937 L40.6314218,0.42185654 L32.5548801,9.23620253 L21.1500747,5.60075949 L18.5929529,17.2374684 L6.88415981,19.7762869 L10.5164112,31.1286076 L1.66872752,39.1505485 L10.5164112,47.1724895 L6.88415981,58.5252321 L16.2390516,60.5560338 L0.329242609,88.0539241 C-0.705833079,89.9222785 0.897585594,91.547173 2.39897237,91.161097 L11.9570847,89.2927426 L15.0821279,98.3906329 C15.5690983,99.9345148 17.8420487,100.564051 18.8164112,98.796962 L34.7464579,71.5024473 L40.6314218,77.9404219 L46.3338245,71.725654 L62.0408346,98.796962 C63.1568612,100.645063 65.592135,99.9345148 65.9981545,98.5940084 L69.1231977,89.4956962 L78.6813101,91.3640506 C80.4061551,91.8513924 81.948439,90.2269198 80.7308021,88.2568776 Z" id="Fill-3"></path>
                    <path d="M47.2902599,33.3717733 C48.529167,32.321213 50.3851471,32.4738982 51.4357074,33.7128053 C52.4862678,34.9517124 52.3335826,36.8076925 51.0946754,37.8582528 L37.8987101,49.0480813 C36.6341423,50.1204013 34.7336167,49.9360779 33.6986774,48.6407391 L28.0966834,41.6292361 C27.0827452,40.3601824 27.2895571,38.5094519 28.5586108,37.4955136 C29.8276644,36.4815754 31.678395,36.6883873 32.6923332,37.957441 L36.4040183,42.6030174 L47.2902599,33.3717733 Z" id="Path-2" fill-rule="nonzero"></path>
                </g>
            </g>
        </g>
    </g>
</svg>