<?xml version="1.0" encoding="UTF-8"?>
<svg width="175px" height="48px" viewBox="0 0 175 48" version="1.1" xmlns="http://www.w3.org/2000/svg" xmlns:xlink="http://www.w3.org/1999/xlink">
    <!-- Generator: Sketch 51 (57462) - http://www.bohemiancoding.com/sketch -->
    <title>logo_6_color</title>
    <desc>Created with Sketch.</desc>
    <defs>
        <polygon id="path-1" points="0.28494672 25.0886364 24.1317173 48.2909091 47.9761522 25.0886364 24.1317173 1.89545455"></polygon>
        <polygon id="path-3" points="0.28494672 25.0886364 24.1317173 48.2909091 47.9761522 25.0886364 24.1317173 1.89545455"></polygon>
        <polygon id="path-5" points="0.28494672 25.0886364 24.1317173 48.2909091 47.9761522 25.0886364 24.1317173 1.89545455"></polygon>
        <polygon id="path-7" points="0.28494672 24.0886364 24.1317173 47.2909091 47.9761522 24.0886364 24.1317173 0.895454545"></polygon>
    </defs>
    <g id="Symbols" stroke="none" stroke-width="1" fill="none" fill-rule="evenodd">
        <g id="our_clients_assets" transform="translate(-429.000000, -440.000000)">
            <g id="logo_6_color" transform="translate(429.000000, 439.000000)">
                <polygon id="Fill-1" fill="#18A9E1" points="0 24.806085 23.8467706 24.806085 23.8467706 1.61290323"></polygon>
                <polygon id="Fill-2" fill="#F0EA46" points="24.1935484 24.806085 48.0379833 24.806085 24.1935484 1.61290323"></polygon>
                <polygon id="Fill-3" fill="#80C242" points="0 25 23.8467706 48.2022727 23.8467706 25"></polygon>
                <polygon id="Fill-4" fill="#EC322D" points="24.1935484 25 24.1935484 48.2022727 48.0379833 25"></polygon>
                <g id="Group-17" style="mix-blend-mode: multiply;">
                    <g id="Group-7">
                        <mask id="mask-2" fill="white">
                            <use xlink:href="#path-1"></use>
                        </mask>
                        <g id="Clip-6"></g>
                        <polygon id="Fill-5" fill="#C2C2C2" mask="url(#mask-2)" points="12.2386952 36.7272727 -11.6781443 36.7272727 -11.6781443 13.4545455 12.2386952 13.4545455"></polygon>
                    </g>
                    <g id="Group-10">
                        <mask id="mask-4" fill="white">
                            <use xlink:href="#path-3"></use>
                        </mask>
                        <g id="Clip-9"></g>
                        <polygon id="Fill-8" fill="#C2C2C2" mask="url(#mask-4)" points="59.9322363 36.7272727 36.0153969 36.7272727 36.0153969 13.4545455 59.9322363 13.4545455"></polygon>
                    </g>
                    <g id="Group-13">
                        <mask id="mask-6" fill="white">
                            <use xlink:href="#path-5"></use>
                        </mask>
                        <g id="Clip-12"></g>
                        <polygon id="Fill-11" fill="#C2C2C2" mask="url(#mask-6)" points="36.090137 13.5204545 12.1732976 13.5204545 12.1732976 -9.74318182 36.090137 -9.74318182"></polygon>
                    </g>
                    <g id="Group-16" transform="translate(0.000000, 1.000000)">
                        <mask id="mask-8" fill="white">
                            <use xlink:href="#path-7"></use>
                        </mask>
                        <g id="Clip-15"></g>
                        <polygon id="Fill-14" fill="#C2C2C2" mask="url(#mask-8)" points="36.090137 51.2727273 12.1732976 51.2727273 12.1732976 35.6659091 36.090137 35.6659091"></polygon>
                    </g>
                </g>
                <polygon id="Fill-18" fill="#000000" points="136.323649 43.9090909 142.78867 43.9090909 142.78867 14.6022727 136.323649 14.6022727"></polygon>
                <polygon id="Fill-19" fill="#000000" points="149.041148 43.8477273 155.515511 43.8477273 155.515511 5.89090909 149.041148 5.89090909"></polygon>
                <polygon id="Fill-20" fill="#000000" points="163.709832 9.17909091 163.709832 14.6040909 160.033552 14.6040909 160.033552 20.5404545 163.709832 20.5404545 163.709832 43.9086364 170.179524 43.9086364 170.179524 20.5404545 174.783048 20.5404545 174.783048 14.6040909 170.179524 14.6040909 170.179524 5.10409091"></polygon>
                <polygon id="Fill-21" fill="#000000" points="136.323649 12.0340909 142.78867 12.0340909 142.78867 5.72727273 136.323649 5.72727273"></polygon>
                <polygon id="Fill-22" fill="#000000" points="120.783309 29.6654545 120.661856 29.6654545 115.430048 16.9609091 113.327982 16.9609091 108.091502 29.6654545 107.970049 29.6654545 103.034865 14.6040909 96.0630133 14.6040909 106.043155 43.8972727 108.196605 43.9109091 114.442077 29.2472727 120.610472 43.9109091 122.71721 43.8972727 132.692681 14.6040909 125.718493 14.6040909"></polygon>
                <path d="M75.0276391,37.4156818 C67.9763756,37.4156818 62.2610918,31.8588636 62.2610918,24.9906818 C62.2610918,18.1293182 67.9763756,12.5656818 75.0276391,12.5656818 C82.0742314,12.5656818 87.7895152,18.1293182 87.7895152,24.9906818 C87.7895152,27.1475 87.224293,29.1770455 86.2223082,30.9429545 L81.4319335,26.2884091 L76.8541009,30.7315909 L81.7846134,35.5202273 C79.8273564,36.7134091 77.5104126,37.4156818 75.0276391,37.4156818 M94.8244293,24.9906818 C94.8244293,14.3475 85.9583822,5.72704545 75.0276391,5.72704545 C64.0922249,5.72704545 55.230849,14.3475 55.230849,24.9906818 C55.230849,35.6270455 64.0922249,44.2520455 75.0276391,44.2520455 C79.4559914,44.2520455 83.5410063,42.8452273 86.8435855,40.4429545 L91.2555884,44.7452273 L95.8287497,40.2838636 L91.3279929,35.9065909 C93.5304909,32.8088636 94.8244293,29.0475 94.8244293,24.9906818" id="Fill-23" fill="#000000"></path>
            </g>
        </g>
    </g>
</svg>