<?xml version="1.0" encoding="UTF-8"?>
<svg width="200px" height="59px" viewBox="0 0 200 59" version="1.1" xmlns="http://www.w3.org/2000/svg" xmlns:xlink="http://www.w3.org/1999/xlink">
    <!-- Generator: Sketch 51 (57462) - http://www.bohemiancoding.com/sketch -->
    <title>logo_4_color</title>
    <desc>Created with Sketch.</desc>
    <defs></defs>
    <g id="Symbols" stroke="none" stroke-width="1" fill="none" fill-rule="evenodd">
        <g id="our_clients_assets" transform="translate(-1093.000000, -179.000000)">
            <g id="logo_4_color" transform="translate(1093.000000, 179.000000)">
                <path d="M51.3948598,-0.000234126984 C51.9738318,0.131813492 52.5266355,0.342527778 53.0794393,0.554178571 C52.4214953,2.53161508 51.2102804,4.24636111 50.2364486,6.03977381 C49.4205607,7.38459921 48.7626168,8.78280556 47.8415888,10.0222738 C48.1836449,8.65122619 48.7098131,7.35884524 49.1574766,6.01355159 C49.8943925,4.00895635 50.4995327,1.92522619 51.3948598,-0.000234126984" id="Fill-1" fill="#F88F20"></path>
                <path d="M56.3169159,2.84815476 C56.7645794,3.19091667 57.2117757,3.56036905 57.6328037,3.95604365 C56.5533645,5.51205159 55.001028,6.62040873 53.6318692,7.85940873 C52.368785,8.9410754 51.2103738,10.1280992 49.8416822,11.07725 C50.4996262,9.89069444 51.4472897,8.8881627 52.2370093,7.80696429 C53.5795327,6.14513095 54.7902804,4.35171825 56.3169159,2.84815476" id="Fill-4" fill="#F88F20"></path>
                <path d="M27.7059346,6.19818413 C28.1535981,6.11904921 28.8115421,5.82873175 29.0479907,6.40889841 C29.8115421,7.62214444 30.3638785,8.94074762 31.1535981,10.1015492 C31.6802336,10.9191206 32.6540654,11.3677079 33.6278972,11.4201524 C36.655,11.3939302 39.6026636,10.4972238 42.6035981,10.1544619 C43.9461215,9.91705714 44.7620093,11.8949619 43.7353738,12.765446 C41.5503271,14.6117714 38.5236916,15.271073 36.4970561,17.3548032 C35.9442523,17.8296127 36.5232243,18.4889143 36.8129439,18.9375016 C38.3129439,20.6780016 40.0769626,22.1815651 41.5503271,23.9487556 C41.9979907,24.5289222 42.6297664,25.2411365 42.2877103,26.0062635 C41.8928505,26.7709222 40.8923832,27.0345492 40.1559346,26.6388746 C37.7867757,25.5838984 35.655,24.1332476 33.3909813,22.8933111 C32.943785,22.6559063 32.3648131,22.4714143 31.8643458,22.6559063 C31.4171495,22.8933111 31.2592056,23.4477238 31.0222897,23.8433984 C28.3638785,21.5747079 25.5475234,19.2273508 24.0736916,15.9832873 C24.8106075,15.6667476 25.837243,15.4031206 26.0213551,14.4535016 C26.3110748,12.8974937 25.3895794,11.4992873 24.7844393,10.1544619 C24.4685514,9.20484286 23.2573364,9.7058746 22.5204206,9.52138254 C22.3891121,8.49262857 23.283972,7.80710476 24.0208879,7.22646984 C24.4685514,6.91039841 25.2578037,6.59385873 25.6792991,7.14733492 C26.8900467,8.65089841 27.416215,10.5763587 28.6269626,12.0532317 C29.1274299,12.0532317 29.5222897,11.5259778 29.2849065,11.0773905 C28.7325701,9.46846984 27.5213551,7.99159683 27.7059346,6.19818413" id="Fill-6" fill="#050608"></path>
                <path d="M55.527243,10.0749992 C57.0800467,9.07293571 58.580514,7.9917373 60.2650935,7.19991984 C60.5809813,7.67519762 60.8964019,8.17622937 61.1599533,8.70348333 C59.6856542,9.6793246 58.0277103,10.233269 56.4221028,10.9192611 C54.6057477,11.6576976 52.816028,12.4485786 51.0001402,13.1345706 C52.4478037,12.02715 54.0267757,11.1037532 55.527243,10.0749992" id="Fill-10" fill="#F88F20"></path>
                <path d="M21.178271,17.0119008 C21.9413551,16.2734643 23.0207944,15.9040119 24.0735981,15.9836151 C25.5474299,19.2272103 28.363785,21.5745675 31.0221963,23.8432579 C31.6278037,24.3442897 32.2067757,24.8453214 32.8119159,25.3468214 C32.5488318,25.6891151 32.2857477,26.0323452 32.0226636,26.3484167 C31.7595794,26.2168373 31.5221963,26.0852579 31.2852804,25.9532103 C27.6007009,23.3155357 24.389486,20.1506071 21.178271,17.0119008" id="Fill-12" fill="#F88F20"></path>
                <path d="M3.77995327,19.3856675 C9.64957944,19.8342548 15.6243458,18.9899929 21.1780841,17.0120881 C24.3892991,20.1507944 27.600514,23.315723 31.2855607,25.9529294 C32.3911682,33.1799611 33.7070561,40.3807706 35.0495794,47.5544214 C35.3916355,49.1638103 35.4967757,51.0096675 36.7603271,52.249604 C37.576215,53.0671754 38.8135981,52.96135 39.8397664,53.3308024 C40.3925701,53.6473421 40.3659346,54.2804214 40.2607944,54.8076754 C38.7346262,55.1771278 36.8654673,55.3091754 35.6813551,54.0959294 C33.6019159,52.0913341 33.3911682,49.0317627 32.8645327,46.3411754 C32.1804206,42.6752151 31.7855607,38.9296516 30.7855607,35.3161357 C30.5224766,34.5252548 30.3907009,33.5756357 29.6799533,33.0216913 C29.2322897,33.2857865 29.3640654,33.8392627 29.3640654,34.2616278 C29.811729,39.8797389 29.732757,45.5765167 30.6799533,51.1679373 C30.9958411,52.513231 31.1804206,54.1483738 32.3911682,55.0188579 C33.1542523,55.6781595 34.3388318,56.0209214 34.4967757,57.1550325 C33.4173364,57.7351992 31.9963084,57.7094452 31.0748131,56.8651833 C29.8378972,55.7572944 29.179486,54.1221516 28.8378972,52.513231 C28.2061215,47.5811119 27.6533178,42.6223024 26.6790187,37.743096 C26.4953738,36.7143421 26.1528505,35.6326754 25.4159346,34.8417944 C24.2313551,33.4965008 22.4416355,32.810977 20.7042523,32.493969 C18.0196729,32.0191595 15.2822897,31.5972627 12.5449065,31.9142706 C11.518271,32.0191595 10.5444393,32.5997944 9.99163551,33.522723 C8.72808411,35.5273183 8.49163551,37.9805008 8.38602804,40.3278579 C8.30705607,44.2841357 8.12294393,48.2404135 8.04397196,52.1966913 C8.0967757,53.1196198 7.99163551,54.2541992 8.83369159,54.8868103 C9.57060748,55.4936675 9.78135514,56.495731 9.62294393,57.4191278 C8.2285514,57.4715722 6.78042056,56.6015563 6.22761682,55.3349294 C5.96453271,53.9376595 6.28042056,52.5394532 6.22761682,51.1417151 C6.0696729,46.473223 5.78042056,41.8314214 5.54350467,37.1629294 C5.38556075,36.266223 6.43836449,35.501096 5.99070093,34.5776992 C5.72761682,34.1295802 5.33275701,33.4965008 4.72761682,33.7339056 C4.38509346,34.0766675 4.27995327,34.5776992 4.22761682,35.0525087 C3.77995327,40.248723 3.33228972,45.4182468 2.88509346,50.6139929 C2.8061215,51.484477 2.64817757,52.3549611 2.72714953,53.2516675 C3.14817757,54.2804214 4.33275701,54.9659452 4.35892523,56.1791913 C4.35892523,56.6277786 4.41172897,57.3399929 3.85892523,57.4715722 C2.70098131,57.2870802 1.77948598,56.3641516 1.3061215,55.3616198 C0.700514019,53.9376595 0.621542056,52.3549611 0.83182243,50.8513976 C1.01640187,49.1104294 0.858457944,47.3437071 0.858457944,45.6027389 C0.779485981,41.3828341 0.542570093,37.1629294 0.463598131,32.9692468 C1.01640187,31.9404929 1.96406542,31.1491437 2.25331776,29.9888103 C2.70098131,28.2216198 2.77948598,26.3752944 2.49023364,24.5818817 C2.22714953,22.9991833 1.09537383,21.7859373 0.279018692,20.4935563 C-0.0364018692,20.0978817 0.0159345794,19.5963817 0.0421028037,19.1220405 C1.27948598,18.7525881 2.51640187,19.358977 3.77995327,19.3856675" id="Fill-14" fill="#050608"></path>
                <path d="M32.8121495,25.3467278 C33.3649533,25.3467278 33.996729,25.1617675 34.4705607,25.5312198 C35.0495327,25.9006722 35.2336449,26.6915532 35.0757009,27.3251008 C34.8654206,27.6411722 34.6018692,27.9577119 34.3649533,28.2742516 C33.7598131,28.380077 33.0228972,28.4587437 32.5224299,27.9844024 C32.0228972,27.61495 32.0490654,26.9289579 32.0228972,26.3487913 C32.2859813,26.0322516 32.5490654,25.6890214 32.8121495,25.3467278" id="Fill-18" fill="#050608"></path>
                <path d="M32.8121495,26.7972381 C32.7331776,26.0588016 33.4700935,25.926754 34.0490654,25.8738413 L33.9172897,26.0850238 C33.5490654,26.3486508 33.1808411,26.5860556 32.8121495,26.7972381" id="Fill-22" fill="#050608"></path>
                <path d="M33.9173832,26.0852579 C34.6809346,26.1639246 34.5753271,27.5092183 33.8388785,27.6412659 C33.2594393,27.9311151 32.891215,27.3247262 32.5753271,26.9290516 L32.812243,26.7974722 C33.1804673,26.5858214 33.5491589,26.3484167 33.9173832,26.0852579" id="Fill-24" fill="#FFFFFF"></path>
                <path d="M34.3650467,28.2742516 C34.6019626,27.9577119 34.8650467,27.6411722 35.0757944,27.3251008 C36.1547664,29.3292278 37.3131776,31.333823 38.0762617,33.4962198 C38.7346729,35.2896325 38.3398131,37.1888706 38.0762617,39.0089738 C37.6290654,42.0685452 38.5500935,45.1281167 39.7080374,47.9502833 C41.1557009,51.5900214 43.6828037,54.9661325 47.2360748,56.7862357 C48.894486,57.6300294 51.1052336,58.0523944 52.7370093,56.8653706 C53.0795327,56.548831 53.6585047,56.2056008 53.447757,55.6521246 C53.0528972,54.7020373 52.0790654,54.2010056 51.2103738,53.8320214 C48.894486,52.8824024 46.3150467,52.5925532 43.8935514,53.1727198 C46.4463551,51.9327833 49.5519626,51.9594738 52.1318692,53.1989421 C53.026729,53.6208389 53.8954206,54.491323 53.7898131,55.5725214 C53.4743925,57.260577 52.0000935,58.7641405 50.2103738,58.7903627 C47.3678505,58.9491008 44.8407477,57.2081325 42.9192523,55.2559817 C40.8664486,53.1989421 39.5243925,50.5350452 38.5234579,47.8182357 C37.7865421,45.761196 37.2075701,43.598331 37.2603738,41.3825532 C37.3131776,39.3517357 38.1028972,37.3476087 37.5762617,35.316323 C36.944486,32.7844738 35.3916822,30.647831 34.3650467,28.2742516" id="Fill-28" fill="#F88F20"></path>
                <path d="M131.716215,13.9463357 C133.076495,13.9280738 134.418084,13.8906135 135.778364,13.9650659 C135.759673,23.3947643 135.778364,32.8239944 135.759673,42.2532246 C134.418084,42.2719548 133.076495,42.2532246 131.716215,42.2532246 L131.716215,13.9463357 Z" id="Fill-30" fill="#808184"></path>
                <path d="M131.716215,13.9463357 C133.076495,13.9280738 134.418084,13.8906135 135.778364,13.9650659 C135.759673,23.3947643 135.778364,32.8239944 135.759673,42.2532246 C134.418084,42.2719548 133.076495,42.2532246 131.716215,42.2532246 L131.716215,13.9463357 Z" id="Stroke-32" fill="#050608"></path>
                <path d="M57.9273364,20.2951571 C61.0950935,20.2576968 64.2628505,20.2951571 67.4306075,20.276427 C70.1324766,20.276427 73.113785,20.5939032 75.2193925,22.4608317 C77.7165888,24.6082444 78.0516355,28.6038556 76.3184579,31.3113 C75.1077103,33.1417048 72.8712617,33.9817524 70.7661215,34.1123952 C73.4119159,36.8568317 76.1698598,39.508554 78.8525701,42.2347286 C76.8591121,42.2721889 74.8469626,42.290919 72.8530374,42.2347286 C71.4179907,40.9465619 70.1698598,39.4336333 68.8651869,37.9773635 C67.0021028,35.8491492 65.0829439,33.794919 63.275,31.6287762 C65.3992991,31.5913159 67.5609813,31.7036968 69.6292056,31.1436651 C70.6726636,30.8444508 71.7348131,30.3776016 72.4619159,29.5188238 C73.3376168,28.4549508 73.4675234,26.8488397 72.7595794,25.6725857 C72.1077103,24.5337921 70.8591121,23.8801095 69.6292056,23.5626333 C68.1946262,23.1519746 66.6852804,23.2826175 65.1946262,23.2638873 C64.1511682,23.2826175 63.107243,23.226427 62.0642523,23.3013476 C62.0829439,29.6120063 62.0829439,35.9423317 62.0642523,42.2534587 C60.6852804,42.2721889 59.3063084,42.2721889 57.9273364,42.2534587 L57.9273364,20.2951571 Z" id="Fill-34" fill="#808184"></path>
                <path d="M57.9273364,20.2951571 C61.0950935,20.2576968 64.2628505,20.2951571 67.4306075,20.276427 C70.1324766,20.276427 73.113785,20.5939032 75.2193925,22.4608317 C77.7165888,24.6082444 78.0516355,28.6038556 76.3184579,31.3113 C75.1077103,33.1417048 72.8712617,33.9817524 70.7661215,34.1123952 C73.4119159,36.8568317 76.1698598,39.508554 78.8525701,42.2347286 C76.8591121,42.2721889 74.8469626,42.290919 72.8530374,42.2347286 C71.4179907,40.9465619 70.1698598,39.4336333 68.8651869,37.9773635 C67.0021028,35.8491492 65.0829439,33.794919 63.275,31.6287762 C65.3992991,31.5913159 67.5609813,31.7036968 69.6292056,31.1436651 C70.6726636,30.8444508 71.7348131,30.3776016 72.4619159,29.5188238 C73.3376168,28.4549508 73.4675234,26.8488397 72.7595794,25.6725857 C72.1077103,24.5337921 70.8591121,23.8801095 69.6292056,23.5626333 C68.1946262,23.1519746 66.6852804,23.2826175 65.1946262,23.2638873 C64.1511682,23.2826175 63.107243,23.226427 62.0642523,23.3013476 C62.0829439,29.6120063 62.0829439,35.9423317 62.0642523,42.2534587 C60.6852804,42.2721889 59.3063084,42.2721889 57.9273364,42.2534587 L57.9273364,20.2951571 Z" id="Stroke-36" fill="#050608"></path>
                <path d="M111.145,21.9752056 C113.45528,20.556396 116.324907,20.1644675 118.971168,20.6500468 C122.790794,21.3781817 126.182383,24.3281817 127.225841,28.0999675 C125.735187,28.1369595 124.262757,28.1186976 122.790794,28.1186976 C122.15715,26.8487929 121.30014,25.6538087 120.052009,24.944404 C118.281449,23.9357849 116.026776,23.9170548 114.145,24.6269278 C112.244533,25.3363325 110.883785,27.0918167 110.306215,28.9962056 C109.393598,31.8717532 110.064159,35.3260627 112.281916,37.4172849 C114.647804,39.6953405 118.78472,39.7140706 121.169766,37.4360151 C121.859486,36.8197929 122.343598,36.0354675 122.77257,35.2136817 C124.244065,35.2136817 125.735187,35.1949516 127.20715,35.2324119 C126.331449,38.1079595 124.169766,40.5541183 121.449206,41.8052929 C118.933785,42.9810786 115.989393,43.1121897 113.343598,42.3096024 C111.088925,41.6184595 109.132383,40.1059992 107.846402,38.1454198 C105.797336,35.101769 105.331449,31.1061579 106.560888,27.6705786 C107.380981,25.3180706 109.002009,23.2451103 111.145,21.9752056" id="Fill-38" fill="#808184"></path>
                <path d="M111.145,21.9752056 C113.45528,20.556396 116.324907,20.1644675 118.971168,20.6500468 C122.790794,21.3781817 126.182383,24.3281817 127.225841,28.0999675 C125.735187,28.1369595 124.262757,28.1186976 122.790794,28.1186976 C122.15715,26.8487929 121.30014,25.6538087 120.052009,24.944404 C118.281449,23.9357849 116.026776,23.9170548 114.145,24.6269278 C112.244533,25.3363325 110.883785,27.0918167 110.306215,28.9962056 C109.393598,31.8717532 110.064159,35.3260627 112.281916,37.4172849 C114.647804,39.6953405 118.78472,39.7140706 121.169766,37.4360151 C121.859486,36.8197929 122.343598,36.0354675 122.77257,35.2136817 C124.244065,35.2136817 125.735187,35.1949516 127.20715,35.2324119 C126.331449,38.1079595 124.169766,40.5541183 121.449206,41.8052929 C118.933785,42.9810786 115.989393,43.1121897 113.343598,42.3096024 C111.088925,41.6184595 109.132383,40.1059992 107.846402,38.1454198 C105.797336,35.101769 105.331449,31.1061579 106.560888,27.6705786 C107.380981,25.3180706 109.002009,23.2451103 111.145,21.9752056 Z" id="Stroke-40" fill="#050608"></path>
                <path d="M182.269299,21.1727119 C184.263224,20.444577 186.480514,20.3696563 188.511355,21.005077 C190.002477,21.4714579 191.45528,22.3302357 192.368364,23.6376008 C192.965093,24.4776484 193.281449,25.5232595 193.262757,26.5688706 C191.77257,26.5688706 190.281449,26.606331 188.790794,26.5501405 C188.56743,25.5419897 187.933785,24.6082913 186.92771,24.2533548 C185.642196,23.8052357 184.020701,23.9171484 183.014626,24.9070373 C182.250607,25.6539024 182.231916,27.0357198 182.996402,27.8008468 C183.554813,28.3613468 184.337991,28.6413627 185.08285,28.8656563 C186.294065,29.2205929 187.523972,29.4631484 188.697804,29.9107992 C190.356215,30.5082913 191.977243,31.4237278 192.965093,32.9357198 C194.269299,34.8967675 194.101542,37.641204 192.778645,39.5455929 C191.77257,40.984069 190.169766,41.9172992 188.511355,42.3466881 C185.959019,43.0003706 183.163692,42.7390849 180.797336,41.5623627 C179.530047,40.9466087 178.374907,39.9937119 177.666495,38.7430056 C177.088925,37.7348548 176.828178,36.5581325 176.846869,35.4006087 C178.318832,35.4006087 179.790794,35.4006087 181.244533,35.3823468 C181.486589,36.4274897 181.766028,37.5480214 182.623505,38.2574262 C184.076776,39.4336802 186.237991,39.564323 187.878178,38.7430056 C189.201075,38.1080532 189.852944,36.2785849 189.014626,35.0086802 C188.269299,33.981331 186.983318,33.5519421 185.828178,33.1604817 C183.685187,32.4693389 181.337523,32.0024897 179.586121,30.470831 C177.909019,29.0150294 177.480514,26.4007675 178.467897,24.4214579 C179.231916,22.8902675 180.685187,21.7697357 182.269299,21.1727119" id="Fill-42" fill="#808184"></path>
                <path d="M182.269299,21.1727119 C184.263224,20.444577 186.480514,20.3696563 188.511355,21.005077 C190.002477,21.4714579 191.45528,22.3302357 192.368364,23.6376008 C192.965093,24.4776484 193.281449,25.5232595 193.262757,26.5688706 C191.77257,26.5688706 190.281449,26.606331 188.790794,26.5501405 C188.56743,25.5419897 187.933785,24.6082913 186.92771,24.2533548 C185.642196,23.8052357 184.020701,23.9171484 183.014626,24.9070373 C182.250607,25.6539024 182.231916,27.0357198 182.996402,27.8008468 C183.554813,28.3613468 184.337991,28.6413627 185.08285,28.8656563 C186.294065,29.2205929 187.523972,29.4631484 188.697804,29.9107992 C190.356215,30.5082913 191.977243,31.4237278 192.965093,32.9357198 C194.269299,34.8967675 194.101542,37.641204 192.778645,39.5455929 C191.77257,40.984069 190.169766,41.9172992 188.511355,42.3466881 C185.959019,43.0003706 183.163692,42.7390849 180.797336,41.5623627 C179.530047,40.9466087 178.374907,39.9937119 177.666495,38.7430056 C177.088925,37.7348548 176.828178,36.5581325 176.846869,35.4006087 C178.318832,35.4006087 179.790794,35.4006087 181.244533,35.3823468 C181.486589,36.4274897 181.766028,37.5480214 182.623505,38.2574262 C184.076776,39.4336802 186.237991,39.564323 187.878178,38.7430056 C189.201075,38.1080532 189.852944,36.2785849 189.014626,35.0086802 C188.269299,33.981331 186.983318,33.5519421 185.828178,33.1604817 C183.685187,32.4693389 181.337523,32.0024897 179.586121,30.470831 C177.909019,29.0150294 177.480514,26.4007675 178.467897,24.4214579 C179.231916,22.8902675 180.685187,21.7697357 182.269299,21.1727119 Z" id="Stroke-44" fill="#050608"></path>
                <path d="M153.163645,21.0048897 C154.486542,21.0231516 155.828131,21.0231516 157.151028,21.0231516 L157.151028,31.0128817 C157.132804,33.0483817 157.058037,35.2327865 158.120187,37.0439929 C158.772523,38.2015167 160.039346,38.9109214 161.344019,39.0607627 C163.076729,39.3215802 165.014579,38.9483817 166.263178,37.6227548 C167.492617,36.3153897 167.884206,34.429731 167.921589,32.6934452 C167.902897,28.8097468 167.921589,24.9255802 167.902897,21.0606119 C169.244486,21.0048897 170.586075,21.0048897 171.927664,21.0606119 C171.908972,28.118604 171.927664,35.176596 171.927664,42.2533183 C170.716449,42.2720484 169.487009,42.2720484 168.294019,42.2533183 C168.275794,41.5251833 168.294019,40.7970484 168.256636,40.0689135 C167.36271,41.2638976 166.058037,42.1226754 164.604299,42.4771437 C161.474393,43.2989294 157.766449,42.6644452 155.455701,40.2740087 C153.703832,38.4815325 153.21972,35.8672706 153.144953,33.4403103 C153.163645,29.2948579 153.126262,25.1498738 153.163645,21.0048897" id="Fill-46" fill="#808184"></path>
                <path d="M153.163645,21.0048897 C154.486542,21.0231516 155.828131,21.0231516 157.151028,21.0231516 L157.151028,31.0128817 C157.132804,33.0483817 157.058037,35.2327865 158.120187,37.0439929 C158.772523,38.2015167 160.039346,38.9109214 161.344019,39.0607627 C163.076729,39.3215802 165.014579,38.9483817 166.263178,37.6227548 C167.492617,36.3153897 167.884206,34.429731 167.921589,32.6934452 C167.902897,28.8097468 167.921589,24.9255802 167.902897,21.0606119 C169.244486,21.0048897 170.586075,21.0048897 171.927664,21.0606119 C171.908972,28.118604 171.927664,35.176596 171.927664,42.2533183 C170.716449,42.2720484 169.487009,42.2720484 168.294019,42.2533183 C168.275794,41.5251833 168.294019,40.7970484 168.256636,40.0689135 C167.36271,41.2638976 166.058037,42.1226754 164.604299,42.4771437 C161.474393,43.2989294 157.766449,42.6644452 155.455701,40.2740087 C153.703832,38.4815325 153.21972,35.8672706 153.144953,33.4403103 C153.163645,29.2948579 153.126262,25.1498738 153.163645,21.0048897 Z" id="Stroke-48" fill="#050608"></path>
                <path d="M82.1511215,21.0419286 C83.4740187,21.0049365 84.8156075,21.0231984 86.1385047,21.0419286 C86.1758879,24.9068968 86.1385047,28.7723333 86.1571963,32.6373016 C86.2128037,34.3923175 86.4184112,36.2967063 87.6109346,37.6785238 C88.6357009,38.8735079 90.331028,39.2101825 91.8403738,39.1165317 C93.2380374,39.0416111 94.6543925,38.4628492 95.548785,37.3427857 C96.6665421,35.9235079 96.9272897,34.0561111 96.9646729,32.3010952 C96.9833645,28.5480397 96.9459813,24.7949841 96.9833645,21.0419286 C98.3062617,21.0231984 99.6478505,21.0231984 100.970748,21.0419286 L100.970748,42.2533651 C99.7413084,42.2720952 98.5114019,42.2720952 97.2814953,42.2533651 C97.3001869,41.5252302 97.3001869,40.8158254 97.2628037,40.0872222 C96.3684112,41.2826746 95.0642056,42.1227222 93.6291589,42.4771905 C90.4800935,43.2989762 86.7908411,42.6644921 84.4800935,40.2553254 C82.6539252,38.3696667 82.206729,35.6060317 82.1511215,33.0666905 L82.1511215,21.0419286 Z" id="Fill-50" fill="#808184"></path>
                <path d="M82.1511215,21.0419286 C83.4740187,21.0049365 84.8156075,21.0231984 86.1385047,21.0419286 C86.1758879,24.9068968 86.1385047,28.7723333 86.1571963,32.6373016 C86.2128037,34.3923175 86.4184112,36.2967063 87.6109346,37.6785238 C88.6357009,38.8735079 90.331028,39.2101825 91.8403738,39.1165317 C93.2380374,39.0416111 94.6543925,38.4628492 95.548785,37.3427857 C96.6665421,35.9235079 96.9272897,34.0561111 96.9646729,32.3010952 C96.9833645,28.5480397 96.9459813,24.7949841 96.9833645,21.0419286 C98.3062617,21.0231984 99.6478505,21.0231984 100.970748,21.0419286 L100.970748,42.2533651 C99.7413084,42.2720952 98.5114019,42.2720952 97.2814953,42.2533651 C97.3001869,41.5252302 97.3001869,40.8158254 97.2628037,40.0872222 C96.3684112,41.2826746 95.0642056,42.1227222 93.6291589,42.4771905 C90.4800935,43.2989762 86.7908411,42.6644921 84.4800935,40.2553254 C82.6539252,38.3696667 82.206729,35.6060317 82.1511215,33.0666905 L82.1511215,21.0419286 Z" id="Stroke-52" fill="#050608"></path>
                <path d="M137.902804,31.3489944 C140.28785,27.8946849 142.728505,24.4773675 145.151402,21.0417881 C146.791121,21.0230579 148.449065,21.004796 150.088785,21.0417881 C147.629439,24.4216452 145.001869,27.6895897 142.486916,31.03105 C145.393458,34.803304 148.430841,38.4627087 151.319159,42.2532246 C149.753271,42.2719548 148.188785,42.2719548 146.623364,42.2532246 C146.28785,42.3094151 146.120093,41.9919389 145.934112,41.7676452 C143.269159,38.2950738 140.585981,34.8220341 137.902804,31.3489944" id="Fill-54" fill="#808184"></path>
                <path d="M137.902804,31.3489944 C140.28785,27.8946849 142.728505,24.4773675 145.151402,21.0417881 C146.791121,21.0230579 148.449065,21.004796 150.088785,21.0417881 C147.629439,24.4216452 145.001869,27.6895897 142.486916,31.03105 C145.393458,34.803304 148.430841,38.4627087 151.319159,42.2532246 C149.753271,42.2719548 148.188785,42.2719548 146.623364,42.2532246 C146.28785,42.3094151 146.120093,41.9919389 145.934112,41.7676452 C143.269159,38.2950738 140.585981,34.8220341 137.902804,31.3489944 Z" id="Stroke-56" fill="#050608"></path>
                <path d="M196.721075,19.6705532 L197.239766,19.6705532 C197.399579,19.6658706 197.528551,19.6270056 197.626215,19.5544262 C197.723879,19.4813786 197.772477,19.3849183 197.772477,19.2650452 C197.772477,19.1034976 197.729486,18.9887754 197.643037,18.9213468 C197.556121,18.8539183 197.401916,18.820204 197.179953,18.820204 L196.721075,18.820204 L196.721075,19.6705532 Z M196.721075,20.0971325 L196.721075,21.2246881 L196.251449,21.2246881 L196.251449,18.3926881 L197.17014,18.3926881 C197.509393,18.3926881 197.772944,18.466204 197.960327,18.6113627 C198.148178,18.7574579 198.242103,18.9691087 198.242103,19.2467833 C198.242103,19.5207119 198.100047,19.7295532 197.815935,19.8742437 C198.086495,19.9852198 198.222944,20.2118548 198.22528,20.5546167 L198.22528,20.7573706 C198.22528,20.9488865 198.244439,21.0865532 198.281822,21.1713071 L198.281822,21.2246881 L197.799579,21.2246881 C197.768271,21.1441484 197.75285,21.0017992 197.75285,20.7957675 C197.75285,20.5906722 197.749112,20.4684579 197.743037,20.4309976 C197.707056,20.2174738 197.561729,20.1064976 197.306589,20.0971325 L196.721075,20.0971325 Z M195.229953,19.8456802 C195.229953,20.2273071 195.318738,20.5813071 195.496308,20.9072119 C195.673879,21.2326484 195.914533,21.4873786 196.22014,21.6714024 C196.524813,21.8563627 196.855187,21.9481405 197.210327,21.9481405 C197.567804,21.9481405 197.899112,21.8544897 198.205654,21.6667198 C198.511729,21.47895 198.751916,21.2237516 198.926215,20.9020611 C199.100047,20.5794341 199.186963,20.2273071 199.186963,19.8456802 C199.186963,19.4659262 199.100047,19.115204 198.926215,18.79445 C198.751916,18.4732278 198.511729,18.2199024 198.205654,18.0344738 C197.899112,17.848577 197.567804,17.7558627 197.210327,17.7558627 C196.855187,17.7558627 196.524346,17.8476405 196.218271,18.031196 C195.912196,18.2142833 195.671075,18.4685452 195.494439,18.792577 C195.317804,19.1166087 195.229953,19.4677992 195.229953,19.8456802 Z M194.846776,19.8470849 C194.846776,19.3980294 194.950981,18.9812833 195.157991,18.5963786 C195.365935,18.2119421 195.653318,17.9089817 196.02014,17.6879659 C196.38743,17.4664817 196.784159,17.3559738 197.210327,17.3559738 C197.636028,17.3559738 198.03229,17.4664817 198.398645,17.6879659 C198.764533,17.9089817 199.050981,18.2119421 199.258925,18.5963786 C199.465935,18.9812833 199.57014,19.3980294 199.57014,19.8470849 C199.57014,20.2849024 199.47014,20.6950929 199.27014,21.0781246 C199.070607,21.4602198 198.78743,21.7678627 198.42014,22.0001167 C198.05285,22.2323706 197.649579,22.3484976 197.210327,22.3484976 C196.772944,22.3484976 196.371075,22.2337754 196.003785,22.0033944 C195.636495,21.7730135 195.351916,21.4672437 195.150047,21.0846802 C194.948178,20.7021167 194.846776,20.2895849 194.846776,19.8470849 Z" id="Fill-58" fill="#050608"></path>
            </g>
        </g>
    </g>
</svg>