<?xml version="1.0" encoding="UTF-8"?>
<svg width="100px" height="100px" viewBox="0 0 100 100" version="1.1" xmlns="http://www.w3.org/2000/svg" xmlns:xlink="http://www.w3.org/1999/xlink">
    <!-- Generator: Sketch 51 (57462) - http://www.bohemiancoding.com/sketch -->
    <title>HWDI_icon3</title>
    <desc>Created with Sketch.</desc>
    <defs></defs>
    <g id="Symbols" stroke="none" stroke-width="1" fill="none" fill-rule="evenodd">
        <g id="How-we-do-it" transform="translate(-150.000000, -384.000000)" fill="#609BB9">
            <g id="Group-3" transform="translate(150.000000, 384.000000)">
                <g id="HWDI_icon3">
                    <path d="M89.1443534,19.0834335 L80.8460776,10.8203433 C80.2904741,10.2666953 79.4206466,10.1769957 78.7628879,10.6057511 L69.5413362,16.6246352 L59.5982328,12.4933047 L58.0732328,1.84695279 C57.9559914,1.0327897 57.2559914,0.428927039 56.4301293,0.428927039 L43.1525431,0.428927039 C42.326681,0.428927039 41.626681,1.0327897 41.5090086,1.84695279 L39.9822845,12.4933047 L30.0486638,16.6246352 L20.825819,10.6091845 C20.1684914,10.1804292 19.2986638,10.2701288 18.7430603,10.8237768 L10.4443534,19.086867 C9.88788793,19.6413734 9.79909483,20.5091845 10.2322845,21.1641202 L16.3732328,30.4512446 L15.3439224,32.8199142 L18.3913362,34.1319313 L19.7771121,30.9456652 C19.9995259,30.4336481 19.9478017,29.8443777 19.639181,29.3787124 L13.7439224,20.4714163 L20.1322845,14.1109013 L28.9654741,19.8718455 C29.4275431,20.1696996 30.0077155,20.2229185 30.5167672,20.0139056 L42.1348707,15.1701288 C42.6715086,14.9435193 43.0495259,14.4538197 43.1309914,13.8795708 L44.5913362,3.73407725 L54.9913362,3.73407725 L56.4469397,13.8842918 C56.5279741,14.45897 56.9059914,14.9486695 57.4421983,15.175279 L69.0603017,20.0156223 C69.5693534,20.2246352 70.1490948,20.1714163 70.6107328,19.8735622 L79.4469397,14.1156223 L85.8801293,20.5212017 L81.5646121,27.7924464 C81.3077155,28.2237768 81.2615948,28.7478112 81.438319,29.2169099 L83.2792672,34.0576824 L86.3844397,32.8872961 L84.825819,28.7907296 L89.3986638,21.0933047 C89.7840086,20.4439485 89.6796983,19.6169099 89.1443534,19.0834335" id="Fill-1"></path>
                    <path d="M64.7286207,96.2788412 L57.7906897,96.2788412 L53.2531897,73.6861373 L55.9437069,71.0058798 L63.0687069,63.9114592 L64.7286207,65.5642489 L64.7286207,96.2788412 Z M46.7092241,96.2788412 L49.7764655,73.3612446 C49.7863793,73.2912876 49.7915517,73.2213305 49.7915517,73.1509442 C49.7919828,73.2569528 49.8027586,73.3625322 49.8243103,73.466824 L54.4053448,96.2788412 L46.7092241,96.2788412 Z M43.3600862,96.2788412 L34.8536207,96.2788412 L34.8536207,65.5642489 L36.5135345,63.9114592 L43.6385345,71.0058798 L46.3773276,73.7329185 L43.3600862,96.2788412 Z M44.1247414,61.5749785 L47.4441379,64.8801288 L44.8122414,67.5007296 L38.8600862,61.5749785 L44.1247414,61.5749785 Z M50.7639655,61.5749785 L49.7915517,62.5432189 L48.8187069,61.5749785 L50.7639655,61.5749785 Z M52.4234483,69.8376395 L50.2777586,71.9745494 C49.9652586,72.2835622 49.7902586,72.7041631 49.7915517,73.1427897 C49.7881034,72.7084549 49.6135345,72.2930043 49.3049138,71.9857082 L47.1587931,69.8376395 L49.7915517,67.2166094 L52.4234483,69.8376395 Z M55.4575,61.5749785 L60.7221552,61.5749785 L54.77,67.5007296 L52.1381034,64.8801288 L55.4575,61.5749785 Z M67.5618103,63.7114592 L62.5825,58.7535193 C62.2712931,58.4440773 61.8493103,58.2693991 61.4092241,58.2693991 L38.1734483,58.2693991 C37.732931,58.2693991 37.3113793,58.4440773 36.9997414,58.7535193 L32.0208621,63.7114592 C31.7096552,64.0213305 31.5342241,64.4415021 31.5342241,64.8801288 L31.5342241,97.9316309 C31.5342241,98.8445064 32.2777586,99.5839914 33.1941379,99.5839914 L66.3885345,99.5839914 C67.3049138,99.5839914 68.0480172,98.8445064 68.0480172,97.9316309 L68.0480172,64.8801288 C68.0480172,64.4415021 67.8730172,64.0213305 67.5618103,63.7114592 Z" id="Fill-4"></path>
                    <path d="M53.1104741,31.8281974 L39.8328879,31.8281974 C39.8328879,28.1771245 42.8053017,25.217897 46.4721121,25.217897 L59.7492672,25.217897 C59.7492672,28.8685408 56.7772845,31.8281974 53.1104741,31.8281974 Z M59.7492672,41.7436481 C59.7492672,47.2196137 55.2910776,51.6590987 49.7915086,51.6590987 C44.2915086,51.6590987 39.8328879,47.2196137 39.8328879,41.7436481 L39.8328879,35.1333476 L53.1104741,35.1333476 C55.5634914,35.1324893 57.9294397,34.2260515 59.7492672,32.5882833 L59.7492672,41.7436481 Z M61.409181,21.9123176 L46.4721121,21.9123176 C40.9742672,21.917897 36.5190948,26.3539485 36.5134914,31.8281974 L36.5134914,41.7436481 C36.5221121,49.0415021 42.4617672,54.9560944 49.7915086,54.9642489 C57.12125,54.9560944 63.0604741,49.0415021 63.0690948,41.7436481 L63.0690948,23.5651073 C63.0690948,22.6526609 62.3259914,21.9123176 61.409181,21.9123176 Z" id="Fill-6"></path>
                    <path d="M96.2631897,96.2788412 L87.9644828,96.2788412 L87.9644828,71.49 L84.6450862,71.49 L84.6450862,96.2788412 L76.3463793,96.2788412 L76.3463793,72.1745494 L79.6657759,68.8693991 L83.4718103,72.6586695 L84.6450862,71.49 L85.8187931,70.3221888 L83.6726724,68.1848498 L89.0683621,68.1848498 L86.8256897,70.2857082 L87.9644828,71.49 L89.1032759,72.6951502 L93.0597414,68.9848498 L96.2631897,72.1745494 L96.2631897,96.2788412 Z M99.0959483,70.3221888 L94.117069,65.3642489 C93.8058621,65.0543777 93.3838793,64.8801288 92.9437931,64.8801288 L79.6657759,64.8801288 C79.2256897,64.8801288 78.8037069,65.0543777 78.4925,65.3642489 L73.5136207,70.3221888 C73.2024138,70.6316309 73.0274138,71.0518026 73.0274138,71.49 L73.0274138,97.9316309 C73.0274138,98.8445064 73.7700862,99.5839914 74.6868966,99.5839914 L97.9231034,99.5839914 C98.8394828,99.5839914 99.5825862,98.8445064 99.5825862,97.9316309 L99.5825862,71.49 C99.5825862,71.0518026 99.4075862,70.6316309 99.0959483,70.3221888 Z" id="Fill-8"></path>
                    <path d="M87.9644828,40.0912876 C90.7144828,40.0912876 92.9437931,42.3106009 92.9437931,45.0487983 C90.1937931,45.0487983 87.9644828,42.8290558 87.9644828,40.0912876 Z M92.9437931,53.3234764 C92.9373276,56.9633906 89.9769828,59.913176 86.3213793,59.9221888 C82.6640517,59.9221888 79.6989655,56.9698283 79.6989655,53.3281974 L79.6989655,53.3118884 L79.7157759,48.3539485 C82.3101724,48.3384979 84.7481034,47.1153219 86.304569,45.0487983 C87.8718103,47.1290558 90.3317241,48.3539485 92.9437931,48.3539485 L92.9437931,53.3234764 Z M79.7205172,45.0324893 C79.73,42.3217597 81.9231034,40.1209013 84.6450862,40.0912876 C84.6455172,42.8080258 82.4493966,45.0187554 79.7205172,45.0487983 L79.7205172,45.0324893 Z M87.9644828,36.7861373 L84.6998276,36.7861373 C80.1312931,36.794721 76.4256897,40.4719742 76.4015517,45.0204721 L76.3748276,53.2955794 C76.3562931,58.762103 80.7925,63.2088841 86.2834483,63.2273391 L86.3166379,63.2273391 C91.805,63.2209013 96.2537069,58.7934335 96.2631897,53.3281974 L96.2631897,45.0487983 C96.2575862,40.4878541 92.5455172,36.7912876 87.9644828,36.7861373 Z" id="Fill-11"></path>
                    <path d="M23.2360776,96.2788412 L14.9373707,96.2788412 L14.9373707,71.49 L11.6179741,71.49 L11.6179741,96.2788412 L3.31926724,96.2788412 L3.31926724,72.1745494 L6.63866379,68.8693991 L10.4442672,72.6586695 L11.6179741,71.49 L12.791681,70.3221888 L10.6451293,68.1848498 L16.04125,68.1848498 L13.7985776,70.2857082 L14.9373707,71.49 L16.0761638,72.6951502 L20.0326293,68.9848498 L23.2360776,72.1745494 L23.2360776,96.2788412 Z M26.0688362,70.3221888 L21.0899569,65.3642489 C20.77875,65.0543777 20.3567672,64.8801288 19.916681,64.8801288 L6.63866379,64.8801288 C6.19857759,64.8801288 5.77659483,65.0543777 5.46538793,65.3642489 L0.486508621,70.3221888 C0.17487069,70.6316309 0.000301724138,71.0518026 0.000301724138,71.49 L0.000301724138,97.9316309 C0.000301724138,98.8445064 0.742974138,99.5839914 1.65935345,99.5839914 L24.8959914,99.5839914 C25.8123707,99.5839914 26.5550431,98.8445064 26.5550431,97.9316309 L26.5550431,71.49 C26.5550431,71.0518026 26.3800431,70.6316309 26.0688362,70.3221888 Z" id="Fill-13"></path>
                    <path d="M19.9165948,53.3281116 C19.9075431,56.966309 16.9476293,59.9130901 13.294181,59.922103 C9.63685345,59.922103 6.67176724,56.9697425 6.67176724,53.3281116 L6.67176724,53.3118026 L6.69331897,46.6881974 C7.99288793,46.6809013 9.23728448,46.1637339 10.1553879,45.2487124 C10.418319,44.9843348 10.6502155,44.6916309 10.8480603,44.3766094 C12.3877155,45.8658798 14.4497845,46.6997854 16.5971983,46.7015021 L19.9165948,46.7015021 L19.9165948,53.3281116 Z M8.29849138,41.4263948 L8.29849138,41.72897 C8.30064655,42.1684549 8.12435345,42.5903433 7.80883621,42.898927 C7.59288793,43.1079399 7.32176724,43.2512876 7.02737069,43.3118026 C7.29892241,42.5937768 7.73383621,41.9482833 8.29849138,41.4263948 Z M14.9372845,40.0912017 C17.0398707,40.0997854 18.9101293,41.4225322 19.6109914,43.3959227 L16.5971983,43.3959227 C14.4946121,43.3877682 12.6239224,42.0650215 11.9234914,40.0912017 L14.9372845,40.0912017 Z M14.9372845,36.7860515 L11.6726293,36.7860515 C7.10409483,36.7950644 3.39892241,40.4718884 3.37435345,45.0208155 L3.34762931,53.2954936 C3.32952586,58.7620172 7.76573276,63.2087983 13.25625,63.2272532 L13.2894397,63.2272532 C18.7778017,63.2208155 23.2269397,58.7933476 23.2359914,53.3281116 L23.2359914,45.0487124 C23.2303879,40.4877682 19.5178879,36.7912017 14.9372845,36.7860515 Z" id="Fill-15"></path>
                </g>
            </g>
        </g>
    </g>
</svg>